<?xml version="1.0" encoding="UTF-8"?>
<svg width="2048px" height="128px" viewBox="0 0 2048 128" version="1.1" xmlns="http://www.w3.org/2000/svg" xmlns:xlink="http://www.w3.org/1999/xlink">
    <!-- Generator: Sketch 64 (93537) - https://sketch.com -->
    <title>Footer</title>
    <desc>Created with Sketch.</desc>
    <g id="Footer" stroke="none" stroke-width="1" fill="none" fill-rule="evenodd">
        <rect id="BG" fill="#003B6F" x="0" y="0" width="2048" height="128"></rect>
        <g id="Aesthetic" transform="translate(-255.000000, -129.000000)" fill="#002F59">
            <g id="LHS" transform="translate(0.500000, 0.000000)">
                <path d="M573.762365,95.9998403 L532.193496,168.000101 C529.335423,172.950488 529.335427,179.049591 532.193507,183.999974 L572.030334,253.000007 C572.582615,253.956594 572.25486,255.179774 571.298273,255.732055 C570.994236,255.907589 570.64935,256 570.298279,256 L533.733189,256 C528.016939,256 522.734907,252.950417 519.876782,248 L482.926382,184.000029 C480.068261,179.049618 480.068257,172.950461 482.926371,168.000047 L521.031486,101.999854 C523.175077,98.2870333 527.136606,95.9998403 531.423798,95.9998403 L573.762365,95.9998403 Z M558.366366,133.332444 L599.93598,205.332261 C602.794108,210.282624 608.076096,213.332173 613.7923,213.332189 L693.466259,213.332413 C694.570828,213.332416 695.466256,214.227849 695.466253,215.332418 C695.466252,215.683486 695.373841,216.028369 695.198309,216.332404 L676.915967,247.998735 C674.057853,252.949193 668.775798,255.998808 663.059518,255.998808 L589.158787,255.998808 C583.442537,255.998808 578.160505,252.949225 575.30238,247.998808 L537.197266,181.998815 C535.053683,178.28602 535.053672,173.711671 537.197237,169.998866 L558.366366,133.332444 Z M722.563752,87.601863 C722.867785,87.7773978 723.120257,88.0298691 723.295792,88.3339019 L741.578469,120.000041 C744.436634,124.950469 744.43665,131.04967 741.578511,136.000114 L704.628145,200.000024 C701.77002,204.950442 696.487988,208.000024 690.771739,208.000024 L614.561511,208.000024 C610.274345,208.000024 606.312836,205.712859 604.169235,202.000075 L582.999748,165.333861 L666.138225,165.333428 C671.854429,165.333398 677.13641,162.283836 679.994526,157.333466 L719.831699,88.3339062 C720.383986,87.3773225 721.607168,87.0495756 722.563752,87.601863 Z M582.230393,47.9996958 C586.517559,47.9996958 590.479067,50.2868607 592.622669,53.999645 L613.792156,90.665859 L530.653679,90.6662926 C524.937475,90.6663224 519.655494,93.7158842 516.797378,98.6662537 L476.960205,167.665814 C476.407917,168.622398 475.184736,168.950145 474.228152,168.397857 C473.924119,168.222322 473.671647,167.969851 473.496111,167.665818 L455.213435,135.99968 C452.355269,131.049251 452.355253,124.95005 455.213393,119.999607 L492.163759,55.9996958 C495.021884,51.0492785 500.303916,47.9996958 506.020165,47.9996958 L582.230393,47.9996958 Z M663.05922,0.000204883322 C668.775469,0.000204883322 674.057501,3.04978766 676.915626,8.00020488 L713.866027,72.0001763 C716.724148,76.9505871 716.724152,83.0497438 713.866037,88.0001583 L675.760923,154.000351 C673.617331,157.713172 669.655803,160.000365 665.36861,160.000365 L623.030043,160.000365 L664.598912,88.0001041 C667.456985,83.0497171 667.456981,76.9506138 664.598902,72.0002305 L624.762074,3.00019811 C624.209793,2.0436107 624.537548,0.820431172 625.494136,0.268150164 C625.798173,0.0926160165 626.143058,0.000204883322 626.494129,0.000204883322 L663.05922,0.000204883322 Z M607.633827,4.26325641e-14 C613.350076,4.00581704e-14 618.632108,3.04958277 621.490233,8 L659.595347,73.9999933 C661.73893,77.7127881 661.738941,82.2871372 659.595376,85.9999425 L638.426247,122.666364 L596.856633,50.6665468 C593.998506,45.7161842 588.716517,42.6666351 583.000313,42.6666191 L503.326355,42.6663952 C502.221785,42.6663921 501.326357,41.7709591 501.32636,40.6663896 C501.326361,40.3153217 501.418772,39.9704389 501.594304,39.6664043 L519.876647,8.000073 C522.73476,3.04961463 528.016816,4.72353413e-14 533.733095,4.26325641e-14 L607.633827,4.26325641e-14 Z" id="Vortex-Copy-4" transform="translate(598.395952, 128.000000) rotate(-360.000000) translate(-598.395952, -128.000000) "></path>
                <path d="M1027.26237,95.9998403 L985.693496,168.000101 C982.835423,172.950488 982.835427,179.049591 985.693507,183.999974 L1025.53033,253.000007 C1026.08262,253.956594 1025.75486,255.179774 1024.79827,255.732055 C1024.49424,255.907589 1024.14935,256 1023.79828,256 L987.233189,256 C981.516939,256 976.234907,252.950417 973.376782,248 L936.426382,184.000029 C933.568261,179.049618 933.568257,172.950461 936.426371,168.000047 L974.531486,101.999854 C976.675077,98.2870333 980.636606,95.9998403 984.923798,95.9998403 L1027.26237,95.9998403 Z M1011.86637,133.332444 L1053.43598,205.332261 C1056.29411,210.282624 1061.5761,213.332173 1067.2923,213.332189 L1146.96626,213.332413 C1148.07083,213.332416 1148.96626,214.227849 1148.96625,215.332418 C1148.96625,215.683486 1148.87384,216.028369 1148.69831,216.332404 L1130.41597,247.998735 C1127.55785,252.949193 1122.2758,255.998808 1116.55952,255.998808 L1042.65879,255.998808 C1036.94254,255.998808 1031.6605,252.949225 1028.80238,247.998808 L990.697266,181.998815 C988.553683,178.28602 988.553672,173.711671 990.697237,169.998866 L1011.86637,133.332444 Z M1176.06375,87.601863 C1176.36778,87.7773978 1176.62026,88.0298691 1176.79579,88.3339019 L1195.07847,120.000041 C1197.93663,124.950469 1197.93665,131.04967 1195.07851,136.000114 L1158.12814,200.000024 C1155.27002,204.950442 1149.98799,208.000024 1144.27174,208.000024 L1068.06151,208.000024 C1063.77434,208.000024 1059.81284,205.712859 1057.66924,202.000075 L1036.49975,165.333861 L1119.63823,165.333428 C1125.35443,165.333398 1130.63641,162.283836 1133.49453,157.333466 L1173.3317,88.3339062 C1173.88399,87.3773225 1175.10717,87.0495756 1176.06375,87.601863 Z M1035.73039,47.9996958 C1040.01756,47.9996958 1043.97907,50.2868607 1046.12267,53.999645 L1067.29216,90.665859 L984.153679,90.6662926 C978.437475,90.6663224 973.155494,93.7158842 970.297378,98.6662537 L930.460205,167.665814 C929.907917,168.622398 928.684736,168.950145 927.728152,168.397857 C927.424119,168.222322 927.171647,167.969851 926.996111,167.665818 L908.713435,135.99968 C905.855269,131.049251 905.855253,124.95005 908.713393,119.999607 L945.663759,55.9996958 C948.521884,51.0492785 953.803916,47.9996958 959.520165,47.9996958 L1035.73039,47.9996958 Z M1116.55922,0.000204883322 C1122.27547,0.000204883322 1127.5575,3.04978766 1130.41563,8.00020488 L1167.36603,72.0001763 C1170.22415,76.9505871 1170.22415,83.0497438 1167.36604,88.0001583 L1129.26092,154.000351 C1127.11733,157.713172 1123.1558,160.000365 1118.86861,160.000365 L1076.53004,160.000365 L1118.09891,88.0001041 C1120.95699,83.0497171 1120.95698,76.9506138 1118.0989,72.0002305 L1078.26207,3.00019811 C1077.70979,2.0436107 1078.03755,0.820431172 1078.99414,0.268150164 C1079.29817,0.0926160165 1079.64306,0.000204883322 1079.99413,0.000204883322 L1116.55922,0.000204883322 Z M1061.13383,4.26325641e-14 C1066.85008,4.00581704e-14 1072.13211,3.04958277 1074.99023,8 L1113.09535,73.9999933 C1115.23893,77.7127881 1115.23894,82.2871372 1113.09538,85.9999425 L1091.92625,122.666364 L1050.35663,50.6665468 C1047.49851,45.7161842 1042.21652,42.6666351 1036.50031,42.6666191 L956.826355,42.6663952 C955.721785,42.6663921 954.826357,41.7709591 954.82636,40.6663896 C954.826361,40.3153217 954.918772,39.9704389 955.094304,39.6664043 L973.376647,8.000073 C976.23476,3.04961463 981.516816,4.72353413e-14 987.233095,4.26325641e-14 L1061.13383,4.26325641e-14 Z" id="Vortex-Copy-6" transform="translate(1051.895952, 128.000000) rotate(-360.000000) translate(-1051.895952, -128.000000) "></path>
                <path d="M121.262365,95.9998403 L79.6934962,168.000101 C76.8354234,172.950488 76.8354274,179.049591 79.6935066,183.999974 L119.530334,253.000007 C120.082615,253.956594 119.75486,255.179774 118.798273,255.732055 C118.494236,255.907589 118.14935,256 117.798279,256 L81.2331889,256 C75.5169395,256 70.2349072,252.950417 67.3767824,248 L30.4263817,184.000029 C27.5682607,179.049618 27.5682567,172.950461 30.4263713,168.000047 L68.5314856,101.999854 C70.6750771,98.2870333 74.6366056,95.9998403 78.9237982,95.9998403 L121.262365,95.9998403 Z M105.866366,133.332444 L147.43598,205.332261 C150.294108,210.282624 155.576096,213.332173 161.2923,213.332189 L240.966259,213.332413 C242.070828,213.332416 242.966256,214.227849 242.966253,215.332418 C242.966252,215.683486 242.873841,216.028369 242.698309,216.332404 L224.415967,247.998735 C221.557853,252.949193 216.275798,255.998808 210.559518,255.998808 L136.658787,255.998808 C130.942537,255.998808 125.660505,252.949225 122.80238,247.998808 L84.6972663,181.998815 C82.5536832,178.28602 82.553672,173.711671 84.6972369,169.998866 L105.866366,133.332444 Z M270.063752,87.601863 C270.367785,87.7773978 270.620257,88.0298691 270.795792,88.3339019 L289.078469,120.000041 C291.936634,124.950469 291.93665,131.04967 289.078511,136.000114 L252.128145,200.000024 C249.27002,204.950442 243.987988,208.000024 238.271739,208.000024 L162.061511,208.000024 C157.774345,208.000024 153.812836,205.712859 151.669235,202.000075 L130.499748,165.333861 L213.638225,165.333428 C219.354429,165.333398 224.63641,162.283836 227.494526,157.333466 L267.331699,88.3339062 C267.883986,87.3773225 269.107168,87.0495756 270.063752,87.601863 Z M129.730393,47.9996958 C134.017559,47.9996958 137.979067,50.2868607 140.122669,53.999645 L161.292156,90.665859 L78.1536787,90.6662926 C72.4374751,90.6663224 67.1554938,93.7158842 64.2973781,98.6662537 L24.4602049,167.665814 C23.9079175,168.622398 22.6847358,168.950145 21.7281521,168.397857 C21.4241189,168.222322 21.1716469,167.969851 20.9961114,167.665818 L2.71343525,135.99968 C-0.144730602,131.049251 -0.144746667,124.95005 2.71339311,119.999607 L39.6637588,55.9996958 C42.5218835,51.0492785 47.8039158,47.9996958 53.5201653,47.9996958 L129.730393,47.9996958 Z M210.55922,0.000204883322 C216.275469,0.000204883322 221.557501,3.04978766 224.415626,8.00020488 L261.366027,72.0001763 C264.224148,76.9505871 264.224152,83.0497438 261.366037,88.0001583 L223.260923,154.000351 C221.117331,157.713172 217.155803,160.000365 212.86861,160.000365 L170.530043,160.000365 L212.098912,88.0001041 C214.956985,83.0497171 214.956981,76.9506138 212.098902,72.0002305 L172.262074,3.00019811 C171.709793,2.0436107 172.037548,0.820431172 172.994136,0.268150164 C173.298173,0.0926160165 173.643058,0.000204883322 173.994129,0.000204883322 L210.55922,0.000204883322 Z M155.133827,4.26325641e-14 C160.850076,4.00581704e-14 166.132108,3.04958277 168.990233,8 L207.095347,73.9999933 C209.23893,77.7127881 209.238941,82.2871372 207.095376,85.9999425 L185.926247,122.666364 L144.356633,50.6665468 C141.498506,45.7161842 136.216517,42.6666351 130.500313,42.6666191 L50.8263547,42.6663952 C49.7217852,42.6663921 48.8263572,41.7709591 48.8263603,40.6663896 C48.8263613,40.3153217 48.9187719,39.9704389 49.0943042,39.6664043 L67.3766467,8.000073 C70.2347604,3.04961463 75.5168158,4.72353413e-14 81.2330953,4.26325641e-14 L155.133827,4.26325641e-14 Z" id="Vortex-Copy-7" transform="translate(145.895952, 128.000000) rotate(-360.000000) translate(-145.895952, -128.000000) "></path>
                <path d="M347.262365,226.49984 L305.693496,298.500101 C302.835423,303.450488 302.835427,309.549591 305.693507,314.499974 L345.530334,383.500007 C346.082615,384.456594 345.75486,385.679774 344.798273,386.232055 C344.494236,386.407589 344.14935,386.5 343.798279,386.5 L307.233189,386.5 C301.516939,386.5 296.234907,383.450417 293.376782,378.5 L256.426382,314.500029 C253.568261,309.549618 253.568257,303.450461 256.426371,298.500047 L294.531486,232.499854 C296.675077,228.787033 300.636606,226.49984 304.923798,226.49984 L347.262365,226.49984 Z M331.866366,263.832444 L373.43598,335.832261 C376.294108,340.782624 381.576096,343.832173 387.2923,343.832189 L466.966259,343.832413 C468.070828,343.832416 468.966256,344.727849 468.966253,345.832418 C468.966252,346.183486 468.873841,346.528369 468.698309,346.832404 L450.415967,378.498735 C447.557853,383.449193 442.275798,386.498808 436.559518,386.498808 L362.658787,386.498808 C356.942537,386.498808 351.660505,383.449225 348.80238,378.498808 L310.697266,312.498815 C308.553683,308.78602 308.553672,304.211671 310.697237,300.498866 L331.866366,263.832444 Z M496.063752,218.101863 C496.367785,218.277398 496.620257,218.529869 496.795792,218.833902 L515.078469,250.500041 C517.936634,255.450469 517.93665,261.54967 515.078511,266.500114 L478.128145,330.500024 C475.27002,335.450442 469.987988,338.500024 464.271739,338.500024 L388.061511,338.500024 C383.774345,338.500024 379.812836,336.212859 377.669235,332.500075 L356.499748,295.833861 L439.638225,295.833428 C445.354429,295.833398 450.63641,292.783836 453.494526,287.833466 L493.331699,218.833906 C493.883986,217.877322 495.107168,217.549576 496.063752,218.101863 Z M355.730393,178.499696 C360.017559,178.499696 363.979067,180.786861 366.122669,184.499645 L387.292156,221.165859 L304.153679,221.166293 C298.437475,221.166322 293.155494,224.215884 290.297378,229.166254 L250.460205,298.165814 C249.907917,299.122398 248.684736,299.450145 247.728152,298.897857 C247.424119,298.722322 247.171647,298.469851 246.996111,298.165818 L228.713435,266.49968 C225.855269,261.549251 225.855253,255.45005 228.713393,250.499607 L265.663759,186.499696 C268.521884,181.549279 273.803916,178.499696 279.520165,178.499696 L355.730393,178.499696 Z M436.55922,130.500205 C442.275469,130.500205 447.557501,133.549788 450.415626,138.500205 L487.366027,202.500176 C490.224148,207.450587 490.224152,213.549744 487.366037,218.500158 L449.260923,284.500351 C447.117331,288.213172 443.155803,290.500365 438.86861,290.500365 L396.530043,290.500365 L438.098912,218.500104 C440.956985,213.549717 440.956981,207.450614 438.098902,202.500231 L398.262074,133.500198 C397.709793,132.543611 398.037548,131.320431 398.994136,130.76815 C399.298173,130.592616 399.643058,130.500205 399.994129,130.500205 L436.55922,130.500205 Z M381.133827,130.5 C386.850076,130.5 392.132108,133.549583 394.990233,138.5 L433.095347,204.499993 C435.23893,208.212788 435.238941,212.787137 433.095376,216.499942 L411.926247,253.166364 L370.356633,181.166547 C367.498506,176.216184 362.216517,173.166635 356.500313,173.166619 L276.826355,173.166395 C275.721785,173.166392 274.826357,172.270959 274.82636,171.16639 C274.826361,170.815322 274.918772,170.470439 275.094304,170.166404 L293.376647,138.500073 C296.23476,133.549615 301.516816,130.5 307.233095,130.5 L381.133827,130.5 Z" id="Vortex-Copy-3" transform="translate(371.895952, 258.500000) scale(-1, 1) rotate(-360.000000) translate(-371.895952, -258.500000) "></path>
                <path d="M800.762365,226.49984 L759.193496,298.500101 C756.335423,303.450488 756.335427,309.549591 759.193507,314.499974 L799.030334,383.500007 C799.582615,384.456594 799.25486,385.679774 798.298273,386.232055 C797.994236,386.407589 797.64935,386.5 797.298279,386.5 L760.733189,386.5 C755.016939,386.5 749.734907,383.450417 746.876782,378.5 L709.926382,314.500029 C707.068261,309.549618 707.068257,303.450461 709.926371,298.500047 L748.031486,232.499854 C750.175077,228.787033 754.136606,226.49984 758.423798,226.49984 L800.762365,226.49984 Z M785.366366,263.832444 L826.93598,335.832261 C829.794108,340.782624 835.076096,343.832173 840.7923,343.832189 L920.466259,343.832413 C921.570828,343.832416 922.466256,344.727849 922.466253,345.832418 C922.466252,346.183486 922.373841,346.528369 922.198309,346.832404 L903.915967,378.498735 C901.057853,383.449193 895.775798,386.498808 890.059518,386.498808 L816.158787,386.498808 C810.442537,386.498808 805.160505,383.449225 802.30238,378.498808 L764.197266,312.498815 C762.053683,308.78602 762.053672,304.211671 764.197237,300.498866 L785.366366,263.832444 Z M949.563752,218.101863 C949.867785,218.277398 950.120257,218.529869 950.295792,218.833902 L968.578469,250.500041 C971.436634,255.450469 971.43665,261.54967 968.578511,266.500114 L931.628145,330.500024 C928.77002,335.450442 923.487988,338.500024 917.771739,338.500024 L841.561511,338.500024 C837.274345,338.500024 833.312836,336.212859 831.169235,332.500075 L809.999748,295.833861 L893.138225,295.833428 C898.854429,295.833398 904.13641,292.783836 906.994526,287.833466 L946.831699,218.833906 C947.383986,217.877322 948.607168,217.549576 949.563752,218.101863 Z M809.230393,178.499696 C813.517559,178.499696 817.479067,180.786861 819.622669,184.499645 L840.792156,221.165859 L757.653679,221.166293 C751.937475,221.166322 746.655494,224.215884 743.797378,229.166254 L703.960205,298.165814 C703.407917,299.122398 702.184736,299.450145 701.228152,298.897857 C700.924119,298.722322 700.671647,298.469851 700.496111,298.165818 L682.213435,266.49968 C679.355269,261.549251 679.355253,255.45005 682.213393,250.499607 L719.163759,186.499696 C722.021884,181.549279 727.303916,178.499696 733.020165,178.499696 L809.230393,178.499696 Z M890.05922,130.500205 C895.775469,130.500205 901.057501,133.549788 903.915626,138.500205 L940.866027,202.500176 C943.724148,207.450587 943.724152,213.549744 940.866037,218.500158 L902.760923,284.500351 C900.617331,288.213172 896.655803,290.500365 892.36861,290.500365 L850.030043,290.500365 L891.598912,218.500104 C894.456985,213.549717 894.456981,207.450614 891.598902,202.500231 L851.762074,133.500198 C851.209793,132.543611 851.537548,131.320431 852.494136,130.76815 C852.798173,130.592616 853.143058,130.500205 853.494129,130.500205 L890.05922,130.500205 Z M834.633827,130.5 C840.350076,130.5 845.632108,133.549583 848.490233,138.5 L886.595347,204.499993 C888.73893,208.212788 888.738941,212.787137 886.595376,216.499942 L865.426247,253.166364 L823.856633,181.166547 C820.998506,176.216184 815.716517,173.166635 810.000313,173.166619 L730.326355,173.166395 C729.221785,173.166392 728.326357,172.270959 728.32636,171.16639 C728.326361,170.815322 728.418772,170.470439 728.594304,170.166404 L746.876647,138.500073 C749.73476,133.549615 755.016816,130.5 760.733095,130.5 L834.633827,130.5 Z" id="Vortex-Copy-5" transform="translate(825.395952, 258.500000) scale(-1, 1) rotate(-360.000000) translate(-825.395952, -258.500000) "></path>
            </g>
            <g id="RHS" transform="translate(1359.500000, 0.000000)">
                <path d="M575.262365,95.9998403 L533.693496,168.000101 C530.835423,172.950488 530.835427,179.049591 533.693507,183.999974 L573.530334,253.000007 C574.082615,253.956594 573.75486,255.179774 572.798273,255.732055 C572.494236,255.907589 572.14935,256 571.798279,256 L535.233189,256 C529.516939,256 524.234907,252.950417 521.376782,248 L484.426382,184.000029 C481.568261,179.049618 481.568257,172.950461 484.426371,168.000047 L522.531486,101.999854 C524.675077,98.2870333 528.636606,95.9998403 532.923798,95.9998403 L575.262365,95.9998403 Z M559.866366,133.332444 L601.43598,205.332261 C604.294108,210.282624 609.576096,213.332173 615.2923,213.332189 L694.966259,213.332413 C696.070828,213.332416 696.966256,214.227849 696.966253,215.332418 C696.966252,215.683486 696.873841,216.028369 696.698309,216.332404 L678.415967,247.998735 C675.557853,252.949193 670.275798,255.998808 664.559518,255.998808 L590.658787,255.998808 C584.942537,255.998808 579.660505,252.949225 576.80238,247.998808 L538.697266,181.998815 C536.553683,178.28602 536.553672,173.711671 538.697237,169.998866 L559.866366,133.332444 Z M724.063752,87.601863 C724.367785,87.7773978 724.620257,88.0298691 724.795792,88.3339019 L743.078469,120.000041 C745.936634,124.950469 745.93665,131.04967 743.078511,136.000114 L706.128145,200.000024 C703.27002,204.950442 697.987988,208.000024 692.271739,208.000024 L616.061511,208.000024 C611.774345,208.000024 607.812836,205.712859 605.669235,202.000075 L584.499748,165.333861 L667.638225,165.333428 C673.354429,165.333398 678.63641,162.283836 681.494526,157.333466 L721.331699,88.3339062 C721.883986,87.3773225 723.107168,87.0495756 724.063752,87.601863 Z M583.730393,47.9996958 C588.017559,47.9996958 591.979067,50.2868607 594.122669,53.999645 L615.292156,90.665859 L532.153679,90.6662926 C526.437475,90.6663224 521.155494,93.7158842 518.297378,98.6662537 L478.460205,167.665814 C477.907917,168.622398 476.684736,168.950145 475.728152,168.397857 C475.424119,168.222322 475.171647,167.969851 474.996111,167.665818 L456.713435,135.99968 C453.855269,131.049251 453.855253,124.95005 456.713393,119.999607 L493.663759,55.9996958 C496.521884,51.0492785 501.803916,47.9996958 507.520165,47.9996958 L583.730393,47.9996958 Z M664.55922,0.000204883322 C670.275469,0.000204883322 675.557501,3.04978766 678.415626,8.00020488 L715.366027,72.0001763 C718.224148,76.9505871 718.224152,83.0497438 715.366037,88.0001583 L677.260923,154.000351 C675.117331,157.713172 671.155803,160.000365 666.86861,160.000365 L624.530043,160.000365 L666.098912,88.0001041 C668.956985,83.0497171 668.956981,76.9506138 666.098902,72.0002305 L626.262074,3.00019811 C625.709793,2.0436107 626.037548,0.820431172 626.994136,0.268150164 C627.298173,0.0926160165 627.643058,0.000204883322 627.994129,0.000204883322 L664.55922,0.000204883322 Z M609.133827,4.26325641e-14 C614.850076,4.00581704e-14 620.132108,3.04958277 622.990233,8 L661.095347,73.9999933 C663.23893,77.7127881 663.238941,82.2871372 661.095376,85.9999425 L639.926247,122.666364 L598.356633,50.6665468 C595.498506,45.7161842 590.216517,42.6666351 584.500313,42.6666191 L504.826355,42.6663952 C503.721785,42.6663921 502.826357,41.7709591 502.82636,40.6663896 C502.826361,40.3153217 502.918772,39.9704389 503.094304,39.6664043 L521.376647,8.000073 C524.23476,3.04961463 529.516816,4.72353413e-14 535.233095,4.26325641e-14 L609.133827,4.26325641e-14 Z" id="Vortex-Copy-12" transform="translate(599.895952, 128.000000) scale(-1, 1) rotate(-360.000000) translate(-599.895952, -128.000000) "></path>
                <path d="M121.762365,95.9998403 L80.1934962,168.000101 C77.3354234,172.950488 77.3354274,179.049591 80.1935066,183.999974 L120.030334,253.000007 C120.582615,253.956594 120.25486,255.179774 119.298273,255.732055 C118.994236,255.907589 118.64935,256 118.298279,256 L81.7331889,256 C76.0169395,256 70.7349072,252.950417 67.8767824,248 L30.9263817,184.000029 C28.0682607,179.049618 28.0682567,172.950461 30.9263713,168.000047 L69.0314856,101.999854 C71.1750771,98.2870333 75.1366056,95.9998403 79.4237982,95.9998403 L121.762365,95.9998403 Z M106.366366,133.332444 L147.93598,205.332261 C150.794108,210.282624 156.076096,213.332173 161.7923,213.332189 L241.466259,213.332413 C242.570828,213.332416 243.466256,214.227849 243.466253,215.332418 C243.466252,215.683486 243.373841,216.028369 243.198309,216.332404 L224.915967,247.998735 C222.057853,252.949193 216.775798,255.998808 211.059518,255.998808 L137.158787,255.998808 C131.442537,255.998808 126.160505,252.949225 123.30238,247.998808 L85.1972663,181.998815 C83.0536832,178.28602 83.053672,173.711671 85.1972369,169.998866 L106.366366,133.332444 Z M270.563752,87.601863 C270.867785,87.7773978 271.120257,88.0298691 271.295792,88.3339019 L289.578469,120.000041 C292.436634,124.950469 292.43665,131.04967 289.578511,136.000114 L252.628145,200.000024 C249.77002,204.950442 244.487988,208.000024 238.771739,208.000024 L162.561511,208.000024 C158.274345,208.000024 154.312836,205.712859 152.169235,202.000075 L130.999748,165.333861 L214.138225,165.333428 C219.854429,165.333398 225.13641,162.283836 227.994526,157.333466 L267.831699,88.3339062 C268.383986,87.3773225 269.607168,87.0495756 270.563752,87.601863 Z M130.230393,47.9996958 C134.517559,47.9996958 138.479067,50.2868607 140.622669,53.999645 L161.792156,90.665859 L78.6536787,90.6662926 C72.9374751,90.6663224 67.6554938,93.7158842 64.7973781,98.6662537 L24.9602049,167.665814 C24.4079175,168.622398 23.1847358,168.950145 22.2281521,168.397857 C21.9241189,168.222322 21.6716469,167.969851 21.4961114,167.665818 L3.21343525,135.99968 C0.355269398,131.049251 0.355253333,124.95005 3.21339311,119.999607 L40.1637588,55.9996958 C43.0218835,51.0492785 48.3039158,47.9996958 54.0201653,47.9996958 L130.230393,47.9996958 Z M211.05922,0.000204883322 C216.775469,0.000204883322 222.057501,3.04978766 224.915626,8.00020488 L261.866027,72.0001763 C264.724148,76.9505871 264.724152,83.0497438 261.866037,88.0001583 L223.760923,154.000351 C221.617331,157.713172 217.655803,160.000365 213.36861,160.000365 L171.030043,160.000365 L212.598912,88.0001041 C215.456985,83.0497171 215.456981,76.9506138 212.598902,72.0002305 L172.762074,3.00019811 C172.209793,2.0436107 172.537548,0.820431172 173.494136,0.268150164 C173.798173,0.0926160165 174.143058,0.000204883322 174.494129,0.000204883322 L211.05922,0.000204883322 Z M155.633827,4.26325641e-14 C161.350076,4.00581704e-14 166.632108,3.04958277 169.490233,8 L207.595347,73.9999933 C209.73893,77.7127881 209.738941,82.2871372 207.595376,85.9999425 L186.426247,122.666364 L144.856633,50.6665468 C141.998506,45.7161842 136.716517,42.6666351 131.000313,42.6666191 L51.3263547,42.6663952 C50.2217852,42.6663921 49.3263572,41.7709591 49.3263603,40.6663896 C49.3263613,40.3153217 49.4187719,39.9704389 49.5943042,39.6664043 L67.8766467,8.000073 C70.7347604,3.04961463 76.0168158,4.72353413e-14 81.7330953,4.26325641e-14 L155.633827,4.26325641e-14 Z" id="Vortex-Copy-13" transform="translate(146.395952, 128.000000) scale(-1, 1) rotate(-360.000000) translate(-146.395952, -128.000000) "></path>
                <path d="M801.262365,226.49984 L759.693496,298.500101 C756.835423,303.450488 756.835427,309.549591 759.693507,314.499974 L799.530334,383.500007 C800.082615,384.456594 799.75486,385.679774 798.798273,386.232055 C798.494236,386.407589 798.14935,386.5 797.798279,386.5 L761.233189,386.5 C755.516939,386.5 750.234907,383.450417 747.376782,378.5 L710.426382,314.500029 C707.568261,309.549618 707.568257,303.450461 710.426371,298.500047 L748.531486,232.499854 C750.675077,228.787033 754.636606,226.49984 758.923798,226.49984 L801.262365,226.49984 Z M785.866366,263.832444 L827.43598,335.832261 C830.294108,340.782624 835.576096,343.832173 841.2923,343.832189 L920.966259,343.832413 C922.070828,343.832416 922.966256,344.727849 922.966253,345.832418 C922.966252,346.183486 922.873841,346.528369 922.698309,346.832404 L904.415967,378.498735 C901.557853,383.449193 896.275798,386.498808 890.559518,386.498808 L816.658787,386.498808 C810.942537,386.498808 805.660505,383.449225 802.80238,378.498808 L764.697266,312.498815 C762.553683,308.78602 762.553672,304.211671 764.697237,300.498866 L785.866366,263.832444 Z M950.063752,218.101863 C950.367785,218.277398 950.620257,218.529869 950.795792,218.833902 L969.078469,250.500041 C971.936634,255.450469 971.93665,261.54967 969.078511,266.500114 L932.128145,330.500024 C929.27002,335.450442 923.987988,338.500024 918.271739,338.500024 L842.061511,338.500024 C837.774345,338.500024 833.812836,336.212859 831.669235,332.500075 L810.499748,295.833861 L893.638225,295.833428 C899.354429,295.833398 904.63641,292.783836 907.494526,287.833466 L947.331699,218.833906 C947.883986,217.877322 949.107168,217.549576 950.063752,218.101863 Z M809.730393,178.499696 C814.017559,178.499696 817.979067,180.786861 820.122669,184.499645 L841.292156,221.165859 L758.153679,221.166293 C752.437475,221.166322 747.155494,224.215884 744.297378,229.166254 L704.460205,298.165814 C703.907917,299.122398 702.684736,299.450145 701.728152,298.897857 C701.424119,298.722322 701.171647,298.469851 700.996111,298.165818 L682.713435,266.49968 C679.855269,261.549251 679.855253,255.45005 682.713393,250.499607 L719.663759,186.499696 C722.521884,181.549279 727.803916,178.499696 733.520165,178.499696 L809.730393,178.499696 Z M890.55922,130.500205 C896.275469,130.500205 901.557501,133.549788 904.415626,138.500205 L941.366027,202.500176 C944.224148,207.450587 944.224152,213.549744 941.366037,218.500158 L903.260923,284.500351 C901.117331,288.213172 897.155803,290.500365 892.86861,290.500365 L850.530043,290.500365 L892.098912,218.500104 C894.956985,213.549717 894.956981,207.450614 892.098902,202.500231 L852.262074,133.500198 C851.709793,132.543611 852.037548,131.320431 852.994136,130.76815 C853.298173,130.592616 853.643058,130.500205 853.994129,130.500205 L890.55922,130.500205 Z M835.133827,130.5 C840.850076,130.5 846.132108,133.549583 848.990233,138.5 L887.095347,204.499993 C889.23893,208.212788 889.238941,212.787137 887.095376,216.499942 L865.926247,253.166364 L824.356633,181.166547 C821.498506,176.216184 816.216517,173.166635 810.500313,173.166619 L730.826355,173.166395 C729.721785,173.166392 728.826357,172.270959 728.82636,171.16639 C728.826361,170.815322 728.918772,170.470439 729.094304,170.166404 L747.376647,138.500073 C750.23476,133.549615 755.516816,130.5 761.233095,130.5 L835.133827,130.5 Z" id="Vortex-Copy-9" transform="translate(825.895952, 258.500000) rotate(-360.000000) translate(-825.895952, -258.500000) "></path>
                <path d="M348.762365,226.49984 L307.193496,298.500101 C304.335423,303.450488 304.335427,309.549591 307.193507,314.499974 L347.030334,383.500007 C347.582615,384.456594 347.25486,385.679774 346.298273,386.232055 C345.994236,386.407589 345.64935,386.5 345.298279,386.5 L308.733189,386.5 C303.016939,386.5 297.734907,383.450417 294.876782,378.5 L257.926382,314.500029 C255.068261,309.549618 255.068257,303.450461 257.926371,298.500047 L296.031486,232.499854 C298.175077,228.787033 302.136606,226.49984 306.423798,226.49984 L348.762365,226.49984 Z M333.366366,263.832444 L374.93598,335.832261 C377.794108,340.782624 383.076096,343.832173 388.7923,343.832189 L468.466259,343.832413 C469.570828,343.832416 470.466256,344.727849 470.466253,345.832418 C470.466252,346.183486 470.373841,346.528369 470.198309,346.832404 L451.915967,378.498735 C449.057853,383.449193 443.775798,386.498808 438.059518,386.498808 L364.158787,386.498808 C358.442537,386.498808 353.160505,383.449225 350.30238,378.498808 L312.197266,312.498815 C310.053683,308.78602 310.053672,304.211671 312.197237,300.498866 L333.366366,263.832444 Z M497.563752,218.101863 C497.867785,218.277398 498.120257,218.529869 498.295792,218.833902 L516.578469,250.500041 C519.436634,255.450469 519.43665,261.54967 516.578511,266.500114 L479.628145,330.500024 C476.77002,335.450442 471.487988,338.500024 465.771739,338.500024 L389.561511,338.500024 C385.274345,338.500024 381.312836,336.212859 379.169235,332.500075 L357.999748,295.833861 L441.138225,295.833428 C446.854429,295.833398 452.13641,292.783836 454.994526,287.833466 L494.831699,218.833906 C495.383986,217.877322 496.607168,217.549576 497.563752,218.101863 Z M357.230393,178.499696 C361.517559,178.499696 365.479067,180.786861 367.622669,184.499645 L388.792156,221.165859 L305.653679,221.166293 C299.937475,221.166322 294.655494,224.215884 291.797378,229.166254 L251.960205,298.165814 C251.407917,299.122398 250.184736,299.450145 249.228152,298.897857 C248.924119,298.722322 248.671647,298.469851 248.496111,298.165818 L230.213435,266.49968 C227.355269,261.549251 227.355253,255.45005 230.213393,250.499607 L267.163759,186.499696 C270.021884,181.549279 275.303916,178.499696 281.020165,178.499696 L357.230393,178.499696 Z M438.05922,130.500205 C443.775469,130.500205 449.057501,133.549788 451.915626,138.500205 L488.866027,202.500176 C491.724148,207.450587 491.724152,213.549744 488.866037,218.500158 L450.760923,284.500351 C448.617331,288.213172 444.655803,290.500365 440.36861,290.500365 L398.030043,290.500365 L439.598912,218.500104 C442.456985,213.549717 442.456981,207.450614 439.598902,202.500231 L399.762074,133.500198 C399.209793,132.543611 399.537548,131.320431 400.494136,130.76815 C400.798173,130.592616 401.143058,130.500205 401.494129,130.500205 L438.05922,130.500205 Z M382.633827,130.5 C388.350076,130.5 393.632108,133.549583 396.490233,138.5 L434.595347,204.499993 C436.73893,208.212788 436.738941,212.787137 434.595376,216.499942 L413.426247,253.166364 L371.856633,181.166547 C368.998506,176.216184 363.716517,173.166635 358.000313,173.166619 L278.326355,173.166395 C277.221785,173.166392 276.326357,172.270959 276.32636,171.16639 C276.326361,170.815322 276.418772,170.470439 276.594304,170.166404 L294.876647,138.500073 C297.73476,133.549615 303.016816,130.5 308.733095,130.5 L382.633827,130.5 Z" id="Vortex-Copy-10" transform="translate(373.395952, 258.500000) rotate(-360.000000) translate(-373.395952, -258.500000) "></path>
                <path d="M1027.76237,95.9998403 L986.193496,168.000101 C983.335423,172.950488 983.335427,179.049591 986.193507,183.999974 L1026.03033,253.000007 C1026.58262,253.956594 1026.25486,255.179774 1025.29827,255.732055 C1024.99424,255.907589 1024.64935,256 1024.29828,256 L987.733189,256 C982.016939,256 976.734907,252.950417 973.876782,248 L936.926382,184.000029 C934.068261,179.049618 934.068257,172.950461 936.926371,168.000047 L975.031486,101.999854 C977.175077,98.2870333 981.136606,95.9998403 985.423798,95.9998403 L1027.76237,95.9998403 Z M1012.36637,133.332444 L1053.93598,205.332261 C1056.79411,210.282624 1062.0761,213.332173 1067.7923,213.332189 L1147.46626,213.332413 C1148.57083,213.332416 1149.46626,214.227849 1149.46625,215.332418 C1149.46625,215.683486 1149.37384,216.028369 1149.19831,216.332404 L1130.91597,247.998735 C1128.05785,252.949193 1122.7758,255.998808 1117.05952,255.998808 L1043.15879,255.998808 C1037.44254,255.998808 1032.1605,252.949225 1029.30238,247.998808 L991.197266,181.998815 C989.053683,178.28602 989.053672,173.711671 991.197237,169.998866 L1012.36637,133.332444 Z M1176.56375,87.601863 C1176.86778,87.7773978 1177.12026,88.0298691 1177.29579,88.3339019 L1195.57847,120.000041 C1198.43663,124.950469 1198.43665,131.04967 1195.57851,136.000114 L1158.62814,200.000024 C1155.77002,204.950442 1150.48799,208.000024 1144.77174,208.000024 L1068.56151,208.000024 C1064.27434,208.000024 1060.31284,205.712859 1058.16924,202.000075 L1036.99975,165.333861 L1120.13823,165.333428 C1125.85443,165.333398 1131.13641,162.283836 1133.99453,157.333466 L1173.8317,88.3339062 C1174.38399,87.3773225 1175.60717,87.0495756 1176.56375,87.601863 Z M1036.23039,47.9996958 C1040.51756,47.9996958 1044.47907,50.2868607 1046.62267,53.999645 L1067.79216,90.665859 L984.653679,90.6662926 C978.937475,90.6663224 973.655494,93.7158842 970.797378,98.6662537 L930.960205,167.665814 C930.407917,168.622398 929.184736,168.950145 928.228152,168.397857 C927.924119,168.222322 927.671647,167.969851 927.496111,167.665818 L909.213435,135.99968 C906.355269,131.049251 906.355253,124.95005 909.213393,119.999607 L946.163759,55.9996958 C949.021884,51.0492785 954.303916,47.9996958 960.020165,47.9996958 L1036.23039,47.9996958 Z M1117.05922,0.000204883322 C1122.77547,0.000204883322 1128.0575,3.04978766 1130.91563,8.00020488 L1167.86603,72.0001763 C1170.72415,76.9505871 1170.72415,83.0497438 1167.86604,88.0001583 L1129.76092,154.000351 C1127.61733,157.713172 1123.6558,160.000365 1119.36861,160.000365 L1077.03004,160.000365 L1118.59891,88.0001041 C1121.45699,83.0497171 1121.45698,76.9506138 1118.5989,72.0002305 L1078.76207,3.00019811 C1078.20979,2.0436107 1078.53755,0.820431172 1079.49414,0.268150164 C1079.79817,0.0926160165 1080.14306,0.000204883322 1080.49413,0.000204883322 L1117.05922,0.000204883322 Z M1061.63383,4.26325641e-14 C1067.35008,4.00581704e-14 1072.63211,3.04958277 1075.49023,8 L1113.59535,73.9999933 C1115.73893,77.7127881 1115.73894,82.2871372 1113.59538,85.9999425 L1092.42625,122.666364 L1050.85663,50.6665468 C1047.99851,45.7161842 1042.71652,42.6666351 1037.00031,42.6666191 L957.326355,42.6663952 C956.221785,42.6663921 955.326357,41.7709591 955.32636,40.6663896 C955.326361,40.3153217 955.418772,39.9704389 955.594304,39.6664043 L973.876647,8.000073 C976.73476,3.04961463 982.016816,4.72353413e-14 987.733095,4.26325641e-14 L1061.63383,4.26325641e-14 Z" id="Vortex-Copy-15" transform="translate(1052.395952, 128.000000) scale(-1, 1) rotate(-360.000000) translate(-1052.395952, -128.000000) "></path>
            </g>
            <path d="M1254.26237,226.49984 L1212.6935,298.500101 C1209.83542,303.450488 1209.83543,309.549591 1212.69351,314.499974 L1252.53033,383.500007 C1253.08262,384.456594 1252.75486,385.679774 1251.79827,386.232055 C1251.49424,386.407589 1251.14935,386.5 1250.79828,386.5 L1214.23319,386.5 C1208.51694,386.5 1203.23491,383.450417 1200.37678,378.5 L1163.42638,314.500029 C1160.56826,309.549618 1160.56826,303.450461 1163.42637,298.500047 L1201.53149,232.499854 C1203.67508,228.787033 1207.63661,226.49984 1211.9238,226.49984 L1254.26237,226.49984 Z M1238.86637,263.832444 L1280.43598,335.832261 C1283.29411,340.782624 1288.5761,343.832173 1294.2923,343.832189 L1373.96626,343.832413 C1375.07083,343.832416 1375.96626,344.727849 1375.96625,345.832418 C1375.96625,346.183486 1375.87384,346.528369 1375.69831,346.832404 L1357.41597,378.498735 C1354.55785,383.449193 1349.2758,386.498808 1343.55952,386.498808 L1269.65879,386.498808 C1263.94254,386.498808 1258.6605,383.449225 1255.80238,378.498808 L1217.69727,312.498815 C1215.55368,308.78602 1215.55367,304.211671 1217.69724,300.498866 L1238.86637,263.832444 Z M1403.06375,218.101863 C1403.36778,218.277398 1403.62026,218.529869 1403.79579,218.833902 L1422.07847,250.500041 C1424.93663,255.450469 1424.93665,261.54967 1422.07851,266.500114 L1385.12814,330.500024 C1382.27002,335.450442 1376.98799,338.500024 1371.27174,338.500024 L1295.06151,338.500024 C1290.77434,338.500024 1286.81284,336.212859 1284.66924,332.500075 L1263.49975,295.833861 L1346.63823,295.833428 C1352.35443,295.833398 1357.63641,292.783836 1360.49453,287.833466 L1400.3317,218.833906 C1400.88399,217.877322 1402.10717,217.549576 1403.06375,218.101863 Z M1262.73039,178.499696 C1267.01756,178.499696 1270.97907,180.786861 1273.12267,184.499645 L1294.29216,221.165859 L1211.15368,221.166293 C1205.43748,221.166322 1200.15549,224.215884 1197.29738,229.166254 L1157.4602,298.165814 C1156.90792,299.122398 1155.68474,299.450145 1154.72815,298.897857 C1154.42412,298.722322 1154.17165,298.469851 1153.99611,298.165818 L1135.71344,266.49968 C1132.85527,261.549251 1132.85525,255.45005 1135.71339,250.499607 L1172.66376,186.499696 C1175.52188,181.549279 1180.80392,178.499696 1186.52017,178.499696 L1262.73039,178.499696 Z M1343.55922,130.500205 C1349.27547,130.500205 1354.5575,133.549788 1357.41563,138.500205 L1394.36603,202.500176 C1397.22415,207.450587 1397.22415,213.549744 1394.36604,218.500158 L1356.26092,284.500351 C1354.11733,288.213172 1350.1558,290.500365 1345.86861,290.500365 L1303.53004,290.500365 L1345.09891,218.500104 C1347.95699,213.549717 1347.95698,207.450614 1345.0989,202.500231 L1305.26207,133.500198 C1304.70979,132.543611 1305.03755,131.320431 1305.99414,130.76815 C1306.29817,130.592616 1306.64306,130.500205 1306.99413,130.500205 L1343.55922,130.500205 Z M1288.13383,130.5 C1293.85008,130.5 1299.13211,133.549583 1301.99023,138.5 L1340.09535,204.499993 C1342.23893,208.212788 1342.23894,212.787137 1340.09538,216.499942 L1318.92625,253.166364 L1277.35663,181.166547 C1274.49851,176.216184 1269.21652,173.166635 1263.50031,173.166619 L1183.82635,173.166395 C1182.72179,173.166392 1181.82636,172.270959 1181.82636,171.16639 C1181.82636,170.815322 1181.91877,170.470439 1182.0943,170.166404 L1200.37665,138.500073 C1203.23476,133.549615 1208.51682,130.5 1214.2331,130.5 L1288.13383,130.5 Z" id="Vortex-Copy-11" transform="translate(1278.895952, 258.500000) rotate(-360.000000) translate(-1278.895952, -258.500000) "></path>
        </g>
    </g>
</svg>