<?xml version="1.0" encoding="UTF-8"?>
<svg width="2048px" height="512px" viewBox="0 0 2048 512" version="1.1" xmlns="http://www.w3.org/2000/svg" xmlns:xlink="http://www.w3.org/1999/xlink">
    <!-- Generator: Sketch 64 (93537) - https://sketch.com -->
    <title>Header</title>
    <desc>Created with Sketch.</desc>
    <g id="Header" stroke="none" stroke-width="1" fill="none" fill-rule="evenodd">
        <rect id="BG" stroke="#979797" fill="#003B6F" x="0" y="0" width="2048" height="512"></rect>
        <g id="Group" transform="translate(808.000000, 128.000000)" fill="#FFFFFF">
            <path d="M88.8944272,210.683282 C89.281482,210.876809 89.595327,211.190654 89.7888544,211.577709 L110.552786,253.105573 C111.046765,254.09353 110.646316,255.294876 109.658359,255.788854 C109.380648,255.92771 109.074422,256 108.763932,256 L67.236068,256 C66.1314985,256 65.236068,255.104569 65.236068,254 C65.236068,253.68951 65.3083582,253.383284 65.4472136,253.105573 L86.2111456,211.577709 C86.7051241,210.589752 87.9064702,210.189303 88.8944272,210.683282 Z M216.894427,82.6832816 C217.281482,82.876809 217.595327,83.190654 217.788854,83.5777088 L302.552786,253.105573 C303.046765,254.09353 302.646316,255.294876 301.658359,255.788854 C301.380648,255.92771 301.074422,256 300.763932,256 L260.944272,256 C257.914095,256 255.14399,254.287981 253.788854,251.577709 L193.788854,131.577709 C192.662744,129.325489 192.662744,126.674511 193.788854,124.422291 L214.211146,83.5777088 C214.705124,82.5897518 215.90647,82.1893031 216.894427,82.6832816 Z M184.894427,146.683282 C185.281482,146.876809 185.595327,147.190654 185.788854,147.577709 L238.552786,253.105573 C239.046765,254.09353 238.646316,255.294876 237.658359,255.788854 C237.380648,255.92771 237.074422,256 236.763932,256 L196.944272,256 C193.914095,256 191.14399,254.287981 189.788854,251.577709 L161.788854,195.577709 C160.662744,193.325489 160.662744,190.674511 161.788854,188.422291 L182.211146,147.577709 C182.705124,146.589752 183.90647,146.189303 184.894427,146.683282 Z M364.763932,0 C365.868502,0 366.763932,0.8954305 366.763932,2 C366.763932,2.31049019 366.691642,2.61671632 366.552786,2.89442719 L313.788854,108.422291 C313.294876,109.410248 312.09353,109.810697 311.105573,109.316718 C310.718518,109.123191 310.404673,108.809346 310.211146,108.422291 L289.788854,67.5777088 C288.662744,65.3254888 288.662744,62.6745112 289.788854,60.4222912 L317.788854,4.42229124 C319.14399,1.71201901 321.914095,0 324.944272,0 L364.763932,0 Z M300.763932,0 C301.868502,0 302.763932,0.8954305 302.763932,2 C302.763932,2.31049019 302.691642,2.61671632 302.552786,2.89442719 L281.788854,44.4222912 C281.294876,45.4102482 280.09353,45.8106969 279.105573,45.3167184 C278.718518,45.123191 278.404673,44.809346 278.211146,44.4222912 L257.447214,2.89442719 C256.953235,1.9064702 257.353684,0.705124115 258.341641,0.211145618 C258.619352,0.0722901835 258.925578,0 259.236068,0 L300.763932,0 Z" id="Aesthetic" opacity="0.25"></path>
            <path d="M235.055728,0 C238.085905,0 240.85601,1.71201901 242.211146,4.42229124 L366.552786,253.105573 C367.046765,254.09353 366.646316,255.294876 365.658359,255.788854 C365.380648,255.92771 365.074422,256 364.763932,256 L324.944272,256 C321.914095,256 319.14399,254.287981 317.788854,251.577709 L217.788854,51.5777088 C217.294876,50.5897518 216.09353,50.1893031 215.105573,50.6832816 C214.718518,50.876809 214.404673,51.190654 214.211146,51.5777088 L153.788854,172.422291 C153.294876,173.410248 152.09353,173.810697 151.105573,173.316718 C150.718518,173.123191 150.404673,172.809346 150.211146,172.422291 L129.788854,131.577709 C128.662744,129.325489 128.662744,126.674511 129.788854,124.422291 L189.788854,4.42229124 C191.14399,1.71201901 193.914095,0 196.944272,0 L235.055728,0 Z M4.85551601,0 L42.8722296,0 C44.6552671,0 45.3018396,0.185651222 45.9536914,0.534265408 C46.6055433,0.882879593 47.1171204,1.39445674 47.4657346,2.04630859 C47.8143488,2.69816044 48,3.34473292 48,5.1277704 L48,250.87223 C48,252.655267 47.8143488,253.30184 47.4657346,253.953691 C47.1171204,254.605543 46.6055433,255.11712 45.9536914,255.465735 C45.3018396,255.814349 44.6552671,256 42.8722296,256 L5.1277704,256 C3.34473292,256 2.69816044,255.814349 2.04630859,255.465735 C1.39445674,255.11712 0.882879593,254.605543 0.534265408,253.953691 C0.203999337,253.336148 0.0199936549,252.723342 0.00153950013,251.144484 L0,5.1277704 C0,3.34473292 0.185651222,2.69816044 0.534265408,2.04630859 C0.882879593,1.39445674 1.39445674,0.882879593 2.04630859,0.534265408 C2.66385245,0.203999337 3.27665804,0.0199936549 4.85551601,0 L4.85551601,0 Z M172.763932,0 C173.868502,0 174.76437,0.8954305 174.76437,2 C174.76437,2.31049019 174.691642,2.61671632 174.552786,2.89442719 L114.570948,122.858103 C113.531357,124.937287 113.262619,125.721613 113.085817,126.640085 C112.909016,127.558556 112.909016,128.441444 113.085817,129.359915 L113.134471,129.597413 C113.306579,130.385193 113.592844,131.1655 114.439665,132.877925 L174.552786,253.105573 C175.046765,254.09353 174.646316,255.294876 173.658359,255.788854 C173.380648,255.92771 173.074422,256 172.763932,256 L134.829652,256 C132.17047,256 131.213866,255.833627 130.184531,255.476964 C129.155196,255.120301 128.270207,254.573348 127.490866,253.812187 L127.299782,253.620567 C126.642468,252.942044 126.088347,252.147544 125.091208,250.180474 L66.5709485,133.141897 C65.5313566,131.062713 65.2626185,130.278387 65.0858172,129.359915 C64.9090158,128.441444 64.9090158,127.558556 65.0858172,126.640085 L65.1344712,126.402587 C65.306579,125.614807 65.592844,124.8345 66.4396653,123.122075 L124.945687,6.10862672 C126.134909,3.73018207 126.711524,2.9489731 127.490866,2.18781266 C128.270207,1.42665221 129.155196,0.879699049 130.184531,0.523035996 L130.441377,0.437820769 C131.342226,0.153345908 132.300659,0.0130359488 134.505994,0 L172.763932,0 Z M388.855516,0 L426.87223,0 C428.655267,0 429.30184,0.185651222 429.953691,0.534265408 C430.605543,0.882879593 431.11712,1.39445674 431.465735,2.04630859 C431.814349,2.69816044 432,3.34473292 432,5.1277704 L432,250.87223 C432,252.655267 431.814349,253.30184 431.465735,253.953691 C431.11712,254.605543 430.605543,255.11712 429.953691,255.465735 C429.30184,255.814349 428.655267,256 426.87223,256 L389.12777,256 C387.344733,256 386.69816,255.814349 386.046309,255.465735 C385.394457,255.11712 384.88288,254.605543 384.534265,253.953691 C384.203999,253.336148 384.019994,252.723342 384.00154,251.144484 L384,5.1277704 C384,3.34473292 384.185651,2.69816044 384.534265,2.04630859 C384.88288,1.39445674 385.394457,0.882879593 386.046309,0.534265408 C386.663852,0.203999337 387.276658,0.0199936549 388.855516,0 L388.855516,0 Z" id="KAI"></path>
        </g>
        <path d="M379.262365,223.99984 L337.693496,296.000101 C334.835423,300.950488 334.835427,307.049591 337.693507,311.999974 L377.530334,381.000007 C378.082615,381.956594 377.75486,383.179774 376.798273,383.732055 C376.494236,383.907589 376.14935,384 375.798279,384 L339.233189,384 C333.516939,384 328.234907,380.950417 325.376782,376 L288.426382,312.000029 C285.568261,307.049618 285.568257,300.950461 288.426371,296.000047 L326.531486,229.999854 C328.675077,226.287033 332.636606,223.99984 336.923798,223.99984 L379.262365,223.99984 Z M363.866366,261.332444 L405.43598,333.332261 C408.294108,338.282624 413.576096,341.332173 419.2923,341.332189 L498.966259,341.332413 C500.070828,341.332416 500.966256,342.227849 500.966253,343.332418 C500.966252,343.683486 500.873841,344.028369 500.698309,344.332404 L482.415967,375.998735 C479.557853,380.949193 474.275798,383.998808 468.559518,383.998808 L394.658787,383.998808 C388.942537,383.998808 383.660505,380.949225 380.80238,375.998808 L342.697266,309.998815 C340.553683,306.28602 340.553672,301.711671 342.697237,297.998866 L363.866366,261.332444 Z M528.063752,215.601863 C528.367785,215.777398 528.620257,216.029869 528.795792,216.333902 L547.078469,248.000041 C549.936634,252.950469 549.93665,259.04967 547.078511,264.000114 L510.128145,328.000024 C507.27002,332.950442 501.987988,336.000024 496.271739,336.000024 L420.061511,336.000024 C415.774345,336.000024 411.812836,333.712859 409.669235,330.000075 L388.499748,293.333861 L471.638225,293.333428 C477.354429,293.333398 482.63641,290.283836 485.494526,285.333466 L525.331699,216.333906 C525.883986,215.377322 527.107168,215.049576 528.063752,215.601863 Z M387.730393,175.999696 C392.017559,175.999696 395.979067,178.286861 398.122669,181.999645 L419.292156,218.665859 L336.153679,218.666293 C330.437475,218.666322 325.155494,221.715884 322.297378,226.666254 L282.460205,295.665814 C281.907917,296.622398 280.684736,296.950145 279.728152,296.397857 C279.424119,296.222322 279.171647,295.969851 278.996111,295.665818 L260.713435,263.99968 C257.855269,259.049251 257.855253,252.95005 260.713393,247.999607 L297.663759,183.999696 C300.521884,179.049279 305.803916,175.999696 311.520165,175.999696 L387.730393,175.999696 Z M468.55922,128.000205 C474.275469,128.000205 479.557501,131.049788 482.415626,136.000205 L519.366027,200.000176 C522.224148,204.950587 522.224152,211.049744 519.366037,216.000158 L481.260923,282.000351 C479.117331,285.713172 475.155803,288.000365 470.86861,288.000365 L428.530043,288.000365 L470.098912,216.000104 C472.956985,211.049717 472.956981,204.950614 470.098902,200.000231 L430.262074,131.000198 C429.709793,130.043611 430.037548,128.820431 430.994136,128.26815 C431.298173,128.092616 431.643058,128.000205 431.994129,128.000205 L468.55922,128.000205 Z M413.133827,128 C418.850076,128 424.132108,131.049583 426.990233,136 L465.095347,201.999993 C467.23893,205.712788 467.238941,210.287137 465.095376,213.999942 L443.926247,250.666364 L402.356633,178.666547 C399.498506,173.716184 394.216517,170.666635 388.500313,170.666619 L308.826355,170.666395 C307.721785,170.666392 306.826357,169.770959 306.82636,168.66639 C306.826361,168.315322 306.918772,167.970439 307.094304,167.666404 L325.376647,136.000073 C328.23476,131.049615 333.516816,128 339.233095,128 L413.133827,128 Z" id="Vortex" fill="#002F59" transform="translate(403.895952, 256.000000) rotate(-360.000000) translate(-403.895952, -256.000000) "></path>
        <path d="M1619.26237,223.99984 L1577.6935,296.000101 C1574.83542,300.950488 1574.83543,307.049591 1577.69351,311.999974 L1617.53033,381.000007 C1618.08262,381.956594 1617.75486,383.179774 1616.79827,383.732055 C1616.49424,383.907589 1616.14935,384 1615.79828,384 L1579.23319,384 C1573.51694,384 1568.23491,380.950417 1565.37678,376 L1528.42638,312.000029 C1525.56826,307.049618 1525.56826,300.950461 1528.42637,296.000047 L1566.53149,229.999854 C1568.67508,226.287033 1572.63661,223.99984 1576.9238,223.99984 L1619.26237,223.99984 Z M1603.86637,261.332444 L1645.43598,333.332261 C1648.29411,338.282624 1653.5761,341.332173 1659.2923,341.332189 L1738.96626,341.332413 C1740.07083,341.332416 1740.96626,342.227849 1740.96625,343.332418 C1740.96625,343.683486 1740.87384,344.028369 1740.69831,344.332404 L1722.41597,375.998735 C1719.55785,380.949193 1714.2758,383.998808 1708.55952,383.998808 L1634.65879,383.998808 C1628.94254,383.998808 1623.6605,380.949225 1620.80238,375.998808 L1582.69727,309.998815 C1580.55368,306.28602 1580.55367,301.711671 1582.69724,297.998866 L1603.86637,261.332444 Z M1768.06375,215.601863 C1768.36778,215.777398 1768.62026,216.029869 1768.79579,216.333902 L1787.07847,248.000041 C1789.93663,252.950469 1789.93665,259.04967 1787.07851,264.000114 L1750.12814,328.000024 C1747.27002,332.950442 1741.98799,336.000024 1736.27174,336.000024 L1660.06151,336.000024 C1655.77434,336.000024 1651.81284,333.712859 1649.66924,330.000075 L1628.49975,293.333861 L1711.63823,293.333428 C1717.35443,293.333398 1722.63641,290.283836 1725.49453,285.333466 L1765.3317,216.333906 C1765.88399,215.377322 1767.10717,215.049576 1768.06375,215.601863 Z M1627.73039,175.999696 C1632.01756,175.999696 1635.97907,178.286861 1638.12267,181.999645 L1659.29216,218.665859 L1576.15368,218.666293 C1570.43748,218.666322 1565.15549,221.715884 1562.29738,226.666254 L1522.4602,295.665814 C1521.90792,296.622398 1520.68474,296.950145 1519.72815,296.397857 C1519.42412,296.222322 1519.17165,295.969851 1518.99611,295.665818 L1500.71344,263.99968 C1497.85527,259.049251 1497.85525,252.95005 1500.71339,247.999607 L1537.66376,183.999696 C1540.52188,179.049279 1545.80392,175.999696 1551.52017,175.999696 L1627.73039,175.999696 Z M1708.55922,128.000205 C1714.27547,128.000205 1719.5575,131.049788 1722.41563,136.000205 L1759.36603,200.000176 C1762.22415,204.950587 1762.22415,211.049744 1759.36604,216.000158 L1721.26092,282.000351 C1719.11733,285.713172 1715.1558,288.000365 1710.86861,288.000365 L1668.53004,288.000365 L1710.09891,216.000104 C1712.95699,211.049717 1712.95698,204.950614 1710.0989,200.000231 L1670.26207,131.000198 C1669.70979,130.043611 1670.03755,128.820431 1670.99414,128.26815 C1671.29817,128.092616 1671.64306,128.000205 1671.99413,128.000205 L1708.55922,128.000205 Z M1653.13383,128 C1658.85008,128 1664.13211,131.049583 1666.99023,136 L1705.09535,201.999993 C1707.23893,205.712788 1707.23894,210.287137 1705.09538,213.999942 L1683.92625,250.666364 L1642.35663,178.666547 C1639.49851,173.716184 1634.21652,170.666635 1628.50031,170.666619 L1548.82635,170.666395 C1547.72179,170.666392 1546.82636,169.770959 1546.82636,168.66639 C1546.82636,168.315322 1546.91877,167.970439 1547.0943,167.666404 L1565.37665,136.000073 C1568.23476,131.049615 1573.51682,128 1579.2331,128 L1653.13383,128 Z" id="Vortex-Copy" fill="#002F59" transform="translate(1643.895952, 256.000000) rotate(-360.000000) translate(-1643.895952, -256.000000) "></path>
    </g>
</svg>