<?xml version="1.0" encoding="UTF-8"?>
<svg width="2048px" height="512px" viewBox="0 0 2048 512" version="1.1" xmlns="http://www.w3.org/2000/svg" xmlns:xlink="http://www.w3.org/1999/xlink">
    <title>1.1 – Banner</title>
    <defs>
        <linearGradient x1="100%" y1="46.875%" x2="0%" y2="53.125%" id="linearGradient-1">
            <stop stop-color="#313537" offset="0%"></stop>
            <stop stop-color="#0A1013" offset="100%"></stop>
        </linearGradient>
    </defs>
    <g id="1.1-–-Banner" stroke="none" stroke-width="1" fill="none" fill-rule="evenodd">
        <g id="Swirls-Left" transform="translate(-150.250000, -64.000000)" fill="#0A1013">
            <g id="Row" transform="translate(0.000000, 192.000000)">
                <g id="Vortex" transform="translate(443.400000, 0.000000)">
                    <path d="M78.997353,120.171879 C79.0850725,120.323867 79.1312517,120.496262 79.1312517,120.671747 L79.1312517,187.371707 C79.1312517,191.658942 81.4184894,195.620503 85.1313678,197.764079 L141.430427,230.267518 C142.387018,230.819792 142.714782,232.042969 142.162508,232.99956 C141.986896,233.303737 141.734277,233.556304 141.430063,233.731852 L118.845784,246.764229 C113.895906,249.620583 107.798353,249.619955 102.849063,246.762583 L51.5714115,217.158468 C47.8585085,215.014898 45.5712517,211.053324 45.5712517,206.766071 L45.5712517,142.928694 C45.5712517,140.070135 47.0965022,137.428787 49.5723036,135.999884 L77.6313832,119.805646 C78.1097177,119.529576 78.7212832,119.693544 78.997353,120.171879 Z M88.1449504,151.672225 C88.3204356,151.672251 88.492824,151.718457 88.6447986,151.806199 L146.408659,185.15618 C150.121513,187.299797 154.695944,187.299771 158.408775,185.156112 L214.707108,152.651416 C215.663687,152.099121 216.886871,152.426857 217.439167,153.383437 C217.614786,153.687609 217.707205,154.032667 217.707127,154.383898 L217.701358,180.458646 C217.700093,186.173543 214.650773,191.453865 209.701571,194.31139 L158.42483,223.917081 C154.711993,226.060765 150.13754,226.0608 146.42467,223.917174 L91.1398799,191.998485 C88.6642955,190.569206 87.139446,187.927626 87.13988,185.069068 L87.1447986,152.672073 C87.1448825,152.119788 87.5926657,151.672141 88.1449504,151.672225 Z M73.2836753,78.930816 L101.337836,95.1335729 C101.816087,95.4097879 101.979869,96.0214032 101.703654,96.4996539 C101.615889,96.6516152 101.489679,96.7778052 101.337705,96.8655478 L43.5738448,130.215528 C39.8609904,132.359145 37.5737969,136.320732 37.5738448,140.607967 L37.574571,205.616102 C37.5745833,206.720671 36.6791628,207.616112 35.5745933,207.616124 C35.2233624,207.616128 34.8783239,207.523636 34.5741878,207.347953 L11.9956783,194.305583 C7.04706479,191.44704 3.99883175,186.16609 3.99874388,180.451193 L3.99783347,121.241386 C3.99776755,116.954133 6.28496346,112.992524 9.99783347,110.848897 L65.2826235,78.9302086 C67.7582079,77.5009293 70.8083079,77.5011608 73.2836753,78.930816 Z M186.12791,48.3838761 C186.479141,48.3838722 186.82418,48.4763638 187.128316,48.6520466 L209.706825,61.6944168 C214.655439,64.5529602 217.703672,69.8339101 217.703759,75.5488069 L217.70467,134.758614 C217.704736,139.045867 215.41754,143.007476 211.70467,145.151103 L156.41988,177.069791 C153.944295,178.499071 150.894195,178.498839 148.418828,177.069184 L120.364667,160.866427 C119.886416,160.590212 119.722634,159.978597 119.998849,159.500346 C120.086615,159.348385 120.212824,159.222195 120.364799,159.134452 L178.128659,125.784472 C181.841513,123.640855 184.128706,119.679268 184.128659,115.392033 L184.127932,50.3838984 C184.12792,49.2793289 185.023341,48.3838884 186.12791,48.3838761 Z M118.85344,9.23741723 L170.131092,38.8415322 C173.843995,40.9851016 176.131252,44.9466763 176.131252,49.2339293 L176.131252,113.071306 C176.131252,115.929865 174.606001,118.571213 172.1302,120.000116 L144.07112,136.194354 C143.592786,136.470424 142.98122,136.306456 142.70515,135.828121 C142.617431,135.676133 142.571252,135.503738 142.571252,135.328253 L142.571252,68.6282926 C142.571252,64.3410576 140.284014,60.3794967 136.571136,58.2359207 L80.2720763,25.7324822 C79.3154849,25.1802082 78.987721,23.957031 79.539995,23.0004396 C79.7156071,22.6962627 79.9682265,22.4436964 80.2724403,22.2681482 L102.856719,9.23577053 C107.806597,6.37941724 113.90415,6.38004492 118.85344,9.23741723 Z M75.2778335,32.0828263 L130.562623,64.0015147 C133.038208,65.430794 134.563057,68.0723739 134.562623,70.9309325 L134.557705,103.327927 C134.557621,103.880212 134.109838,104.327859 133.557553,104.327775 C133.382068,104.327749 133.209679,104.281543 133.057705,104.193801 L75.2938448,70.8438205 C71.5809904,68.700203 67.0065592,68.7002286 63.2937287,70.8438875 L6.99539565,103.348584 C6.03881657,103.900879 4.8156321,103.573143 4.26333666,102.616563 C4.08771778,102.312391 3.99529864,101.967333 3.99537635,101.616102 L4.00114554,75.5413537 C4.00240999,69.826457 7.05173021,64.5461348 12.0009321,61.6886103 L63.2776737,32.0829185 C66.9905107,29.9392349 71.5649635,29.9391998 75.2778335,32.0828263 Z"></path>
                </g>
                <g id="Group" transform="translate(221.700000, 0.000000)">
                    <g id="Logo/0-–-Vortex" transform="translate(110.851252, 128.000000) scale(-1, 1) translate(-110.851252, -128.000000) ">
                        <path d="M78.997353,120.171879 C79.0850725,120.323867 79.1312517,120.496262 79.1312517,120.671747 L79.1312517,187.371707 C79.1312517,191.658942 81.4184894,195.620503 85.1313678,197.764079 L141.430427,230.267518 C142.387018,230.819792 142.714782,232.042969 142.162508,232.99956 C141.986896,233.303737 141.734277,233.556304 141.430063,233.731852 L118.845784,246.764229 C113.895906,249.620583 107.798353,249.619955 102.849063,246.762583 L51.5714115,217.158468 C47.8585085,215.014898 45.5712517,211.053324 45.5712517,206.766071 L45.5712517,142.928694 C45.5712517,140.070135 47.0965022,137.428787 49.5723036,135.999884 L77.6313832,119.805646 C78.1097177,119.529576 78.7212832,119.693544 78.997353,120.171879 Z M88.1449504,151.672225 C88.3204356,151.672251 88.492824,151.718457 88.6447986,151.806199 L146.408659,185.15618 C150.121513,187.299797 154.695944,187.299771 158.408775,185.156112 L214.707108,152.651416 C215.663687,152.099121 216.886871,152.426857 217.439167,153.383437 C217.614786,153.687609 217.707205,154.032667 217.707127,154.383898 L217.701358,180.458646 C217.700093,186.173543 214.650773,191.453865 209.701571,194.31139 L158.42483,223.917081 C154.711993,226.060765 150.13754,226.0608 146.42467,223.917174 L91.1398799,191.998485 C88.6642955,190.569206 87.139446,187.927626 87.13988,185.069068 L87.1447986,152.672073 C87.1448825,152.119788 87.5926657,151.672141 88.1449504,151.672225 Z M73.2836753,78.930816 L101.337836,95.1335729 C101.816087,95.4097879 101.979869,96.0214032 101.703654,96.4996539 C101.615889,96.6516152 101.489679,96.7778052 101.337705,96.8655478 L43.5738448,130.215528 C39.8609904,132.359145 37.5737969,136.320732 37.5738448,140.607967 L37.574571,205.616102 C37.5745833,206.720671 36.6791628,207.616112 35.5745933,207.616124 C35.2233624,207.616128 34.8783239,207.523636 34.5741878,207.347953 L11.9956783,194.305583 C7.04706479,191.44704 3.99883175,186.16609 3.99874388,180.451193 L3.99783347,121.241386 C3.99776755,116.954133 6.28496346,112.992524 9.99783347,110.848897 L65.2826235,78.9302086 C67.7582079,77.5009293 70.8083079,77.5011608 73.2836753,78.930816 Z M186.12791,48.3838761 C186.479141,48.3838722 186.82418,48.4763638 187.128316,48.6520466 L209.706825,61.6944168 C214.655439,64.5529602 217.703672,69.8339101 217.703759,75.5488069 L217.70467,134.758614 C217.704736,139.045867 215.41754,143.007476 211.70467,145.151103 L156.41988,177.069791 C153.944295,178.499071 150.894195,178.498839 148.418828,177.069184 L120.364667,160.866427 C119.886416,160.590212 119.722634,159.978597 119.998849,159.500346 C120.086615,159.348385 120.212824,159.222195 120.364799,159.134452 L178.128659,125.784472 C181.841513,123.640855 184.128706,119.679268 184.128659,115.392033 L184.127932,50.3838984 C184.12792,49.2793289 185.023341,48.3838884 186.12791,48.3838761 Z M118.85344,9.23741723 L170.131092,38.8415322 C173.843995,40.9851016 176.131252,44.9466763 176.131252,49.2339293 L176.131252,113.071306 C176.131252,115.929865 174.606001,118.571213 172.1302,120.000116 L144.07112,136.194354 C143.592786,136.470424 142.98122,136.306456 142.70515,135.828121 C142.617431,135.676133 142.571252,135.503738 142.571252,135.328253 L142.571252,68.6282926 C142.571252,64.3410576 140.284014,60.3794967 136.571136,58.2359207 L80.2720763,25.7324822 C79.3154849,25.1802082 78.987721,23.957031 79.539995,23.0004396 C79.7156071,22.6962627 79.9682265,22.4436964 80.2724403,22.2681482 L102.856719,9.23577053 C107.806597,6.37941724 113.90415,6.38004492 118.85344,9.23741723 Z M75.2778335,32.0828263 L130.562623,64.0015147 C133.038208,65.430794 134.563057,68.0723739 134.562623,70.9309325 L134.557705,103.327927 C134.557621,103.880212 134.109838,104.327859 133.557553,104.327775 C133.382068,104.327749 133.209679,104.281543 133.057705,104.193801 L75.2938448,70.8438205 C71.5809904,68.700203 67.0065592,68.7002286 63.2937287,70.8438875 L6.99539565,103.348584 C6.03881657,103.900879 4.8156321,103.573143 4.26333666,102.616563 C4.08771778,102.312391 3.99529864,101.967333 3.99537635,101.616102 L4.00114554,75.5413537 C4.00240999,69.826457 7.05173021,64.5461348 12.0009321,61.6886103 L63.2776737,32.0829185 C66.9905107,29.9392349 71.5649635,29.9391998 75.2778335,32.0828263 Z" id="Vortex"></path>
                    </g>
                </g>
                <g id="Logo/0-–-Vortex" transform="translate(110.851252, 128.000000) scale(-1, 1) translate(-110.851252, -128.000000) ">
                    <path d="M78.997353,120.171879 C79.0850725,120.323867 79.1312517,120.496262 79.1312517,120.671747 L79.1312517,187.371707 C79.1312517,191.658942 81.4184894,195.620503 85.1313678,197.764079 L141.430427,230.267518 C142.387018,230.819792 142.714782,232.042969 142.162508,232.99956 C141.986896,233.303737 141.734277,233.556304 141.430063,233.731852 L118.845784,246.764229 C113.895906,249.620583 107.798353,249.619955 102.849063,246.762583 L51.5714115,217.158468 C47.8585085,215.014898 45.5712517,211.053324 45.5712517,206.766071 L45.5712517,142.928694 C45.5712517,140.070135 47.0965022,137.428787 49.5723036,135.999884 L77.6313832,119.805646 C78.1097177,119.529576 78.7212832,119.693544 78.997353,120.171879 Z M88.1449504,151.672225 C88.3204356,151.672251 88.492824,151.718457 88.6447986,151.806199 L146.408659,185.15618 C150.121513,187.299797 154.695944,187.299771 158.408775,185.156112 L214.707108,152.651416 C215.663687,152.099121 216.886871,152.426857 217.439167,153.383437 C217.614786,153.687609 217.707205,154.032667 217.707127,154.383898 L217.701358,180.458646 C217.700093,186.173543 214.650773,191.453865 209.701571,194.31139 L158.42483,223.917081 C154.711993,226.060765 150.13754,226.0608 146.42467,223.917174 L91.1398799,191.998485 C88.6642955,190.569206 87.139446,187.927626 87.13988,185.069068 L87.1447986,152.672073 C87.1448825,152.119788 87.5926657,151.672141 88.1449504,151.672225 Z M73.2836753,78.930816 L101.337836,95.1335729 C101.816087,95.4097879 101.979869,96.0214032 101.703654,96.4996539 C101.615889,96.6516152 101.489679,96.7778052 101.337705,96.8655478 L43.5738448,130.215528 C39.8609904,132.359145 37.5737969,136.320732 37.5738448,140.607967 L37.574571,205.616102 C37.5745833,206.720671 36.6791628,207.616112 35.5745933,207.616124 C35.2233624,207.616128 34.8783239,207.523636 34.5741878,207.347953 L11.9956783,194.305583 C7.04706479,191.44704 3.99883175,186.16609 3.99874388,180.451193 L3.99783347,121.241386 C3.99776755,116.954133 6.28496346,112.992524 9.99783347,110.848897 L65.2826235,78.9302086 C67.7582079,77.5009293 70.8083079,77.5011608 73.2836753,78.930816 Z M186.12791,48.3838761 C186.479141,48.3838722 186.82418,48.4763638 187.128316,48.6520466 L209.706825,61.6944168 C214.655439,64.5529602 217.703672,69.8339101 217.703759,75.5488069 L217.70467,134.758614 C217.704736,139.045867 215.41754,143.007476 211.70467,145.151103 L156.41988,177.069791 C153.944295,178.499071 150.894195,178.498839 148.418828,177.069184 L120.364667,160.866427 C119.886416,160.590212 119.722634,159.978597 119.998849,159.500346 C120.086615,159.348385 120.212824,159.222195 120.364799,159.134452 L178.128659,125.784472 C181.841513,123.640855 184.128706,119.679268 184.128659,115.392033 L184.127932,50.3838984 C184.12792,49.2793289 185.023341,48.3838884 186.12791,48.3838761 Z M118.85344,9.23741723 L170.131092,38.8415322 C173.843995,40.9851016 176.131252,44.9466763 176.131252,49.2339293 L176.131252,113.071306 C176.131252,115.929865 174.606001,118.571213 172.1302,120.000116 L144.07112,136.194354 C143.592786,136.470424 142.98122,136.306456 142.70515,135.828121 C142.617431,135.676133 142.571252,135.503738 142.571252,135.328253 L142.571252,68.6282926 C142.571252,64.3410576 140.284014,60.3794967 136.571136,58.2359207 L80.2720763,25.7324822 C79.3154849,25.1802082 78.987721,23.957031 79.539995,23.0004396 C79.7156071,22.6962627 79.9682265,22.4436964 80.2724403,22.2681482 L102.856719,9.23577053 C107.806597,6.37941724 113.90415,6.38004492 118.85344,9.23741723 Z M75.2778335,32.0828263 L130.562623,64.0015147 C133.038208,65.430794 134.563057,68.0723739 134.562623,70.9309325 L134.557705,103.327927 C134.557621,103.880212 134.109838,104.327859 133.557553,104.327775 C133.382068,104.327749 133.209679,104.281543 133.057705,104.193801 L75.2938448,70.8438205 C71.5809904,68.700203 67.0065592,68.7002286 63.2937287,70.8438875 L6.99539565,103.348584 C6.03881657,103.900879 4.8156321,103.573143 4.26333666,102.616563 C4.08771778,102.312391 3.99529864,101.967333 3.99537635,101.616102 L4.00114554,75.5413537 C4.00240999,69.826457 7.05173021,64.5461348 12.0009321,61.6886103 L63.2776737,32.0829185 C66.9905107,29.9392349 71.5649635,29.9391998 75.2778335,32.0828263 Z" id="Vortex"></path>
                </g>
            </g>
            <g id="Row" transform="translate(110.850000, 0.000000)">
                <g id="Group" transform="translate(443.400000, 0.000000)">
                    <g id="Logo/0-–-Vortex" transform="translate(110.851252, 128.000000) scale(-1, 1) translate(-110.851252, -128.000000) ">
                        <path d="M78.997353,120.171879 C79.0850725,120.323867 79.1312517,120.496262 79.1312517,120.671747 L79.1312517,187.371707 C79.1312517,191.658942 81.4184894,195.620503 85.1313678,197.764079 L141.430427,230.267518 C142.387018,230.819792 142.714782,232.042969 142.162508,232.99956 C141.986896,233.303737 141.734277,233.556304 141.430063,233.731852 L118.845784,246.764229 C113.895906,249.620583 107.798353,249.619955 102.849063,246.762583 L51.5714115,217.158468 C47.8585085,215.014898 45.5712517,211.053324 45.5712517,206.766071 L45.5712517,142.928694 C45.5712517,140.070135 47.0965022,137.428787 49.5723036,135.999884 L77.6313832,119.805646 C78.1097177,119.529576 78.7212832,119.693544 78.997353,120.171879 Z M88.1449504,151.672225 C88.3204356,151.672251 88.492824,151.718457 88.6447986,151.806199 L146.408659,185.15618 C150.121513,187.299797 154.695944,187.299771 158.408775,185.156112 L214.707108,152.651416 C215.663687,152.099121 216.886871,152.426857 217.439167,153.383437 C217.614786,153.687609 217.707205,154.032667 217.707127,154.383898 L217.701358,180.458646 C217.700093,186.173543 214.650773,191.453865 209.701571,194.31139 L158.42483,223.917081 C154.711993,226.060765 150.13754,226.0608 146.42467,223.917174 L91.1398799,191.998485 C88.6642955,190.569206 87.139446,187.927626 87.13988,185.069068 L87.1447986,152.672073 C87.1448825,152.119788 87.5926657,151.672141 88.1449504,151.672225 Z M73.2836753,78.930816 L101.337836,95.1335729 C101.816087,95.4097879 101.979869,96.0214032 101.703654,96.4996539 C101.615889,96.6516152 101.489679,96.7778052 101.337705,96.8655478 L43.5738448,130.215528 C39.8609904,132.359145 37.5737969,136.320732 37.5738448,140.607967 L37.574571,205.616102 C37.5745833,206.720671 36.6791628,207.616112 35.5745933,207.616124 C35.2233624,207.616128 34.8783239,207.523636 34.5741878,207.347953 L11.9956783,194.305583 C7.04706479,191.44704 3.99883175,186.16609 3.99874388,180.451193 L3.99783347,121.241386 C3.99776755,116.954133 6.28496346,112.992524 9.99783347,110.848897 L65.2826235,78.9302086 C67.7582079,77.5009293 70.8083079,77.5011608 73.2836753,78.930816 Z M186.12791,48.3838761 C186.479141,48.3838722 186.82418,48.4763638 187.128316,48.6520466 L209.706825,61.6944168 C214.655439,64.5529602 217.703672,69.8339101 217.703759,75.5488069 L217.70467,134.758614 C217.704736,139.045867 215.41754,143.007476 211.70467,145.151103 L156.41988,177.069791 C153.944295,178.499071 150.894195,178.498839 148.418828,177.069184 L120.364667,160.866427 C119.886416,160.590212 119.722634,159.978597 119.998849,159.500346 C120.086615,159.348385 120.212824,159.222195 120.364799,159.134452 L178.128659,125.784472 C181.841513,123.640855 184.128706,119.679268 184.128659,115.392033 L184.127932,50.3838984 C184.12792,49.2793289 185.023341,48.3838884 186.12791,48.3838761 Z M118.85344,9.23741723 L170.131092,38.8415322 C173.843995,40.9851016 176.131252,44.9466763 176.131252,49.2339293 L176.131252,113.071306 C176.131252,115.929865 174.606001,118.571213 172.1302,120.000116 L144.07112,136.194354 C143.592786,136.470424 142.98122,136.306456 142.70515,135.828121 C142.617431,135.676133 142.571252,135.503738 142.571252,135.328253 L142.571252,68.6282926 C142.571252,64.3410576 140.284014,60.3794967 136.571136,58.2359207 L80.2720763,25.7324822 C79.3154849,25.1802082 78.987721,23.957031 79.539995,23.0004396 C79.7156071,22.6962627 79.9682265,22.4436964 80.2724403,22.2681482 L102.856719,9.23577053 C107.806597,6.37941724 113.90415,6.38004492 118.85344,9.23741723 Z M75.2778335,32.0828263 L130.562623,64.0015147 C133.038208,65.430794 134.563057,68.0723739 134.562623,70.9309325 L134.557705,103.327927 C134.557621,103.880212 134.109838,104.327859 133.557553,104.327775 C133.382068,104.327749 133.209679,104.281543 133.057705,104.193801 L75.2938448,70.8438205 C71.5809904,68.700203 67.0065592,68.7002286 63.2937287,70.8438875 L6.99539565,103.348584 C6.03881657,103.900879 4.8156321,103.573143 4.26333666,102.616563 C4.08771778,102.312391 3.99529864,101.967333 3.99537635,101.616102 L4.00114554,75.5413537 C4.00240999,69.826457 7.05173021,64.5461348 12.0009321,61.6886103 L63.2776737,32.0829185 C66.9905107,29.9392349 71.5649635,29.9391998 75.2778335,32.0828263 Z" id="Vortex"></path>
                    </g>
                </g>
                <g id="Group" transform="translate(221.700000, 0.000000)">
                    <g id="Logo/0-–-Vortex" transform="translate(110.851252, 128.000000) scale(-1, 1) translate(-110.851252, -128.000000) ">
                        <path d="M78.997353,120.171879 C79.0850725,120.323867 79.1312517,120.496262 79.1312517,120.671747 L79.1312517,187.371707 C79.1312517,191.658942 81.4184894,195.620503 85.1313678,197.764079 L141.430427,230.267518 C142.387018,230.819792 142.714782,232.042969 142.162508,232.99956 C141.986896,233.303737 141.734277,233.556304 141.430063,233.731852 L118.845784,246.764229 C113.895906,249.620583 107.798353,249.619955 102.849063,246.762583 L51.5714115,217.158468 C47.8585085,215.014898 45.5712517,211.053324 45.5712517,206.766071 L45.5712517,142.928694 C45.5712517,140.070135 47.0965022,137.428787 49.5723036,135.999884 L77.6313832,119.805646 C78.1097177,119.529576 78.7212832,119.693544 78.997353,120.171879 Z M88.1449504,151.672225 C88.3204356,151.672251 88.492824,151.718457 88.6447986,151.806199 L146.408659,185.15618 C150.121513,187.299797 154.695944,187.299771 158.408775,185.156112 L214.707108,152.651416 C215.663687,152.099121 216.886871,152.426857 217.439167,153.383437 C217.614786,153.687609 217.707205,154.032667 217.707127,154.383898 L217.701358,180.458646 C217.700093,186.173543 214.650773,191.453865 209.701571,194.31139 L158.42483,223.917081 C154.711993,226.060765 150.13754,226.0608 146.42467,223.917174 L91.1398799,191.998485 C88.6642955,190.569206 87.139446,187.927626 87.13988,185.069068 L87.1447986,152.672073 C87.1448825,152.119788 87.5926657,151.672141 88.1449504,151.672225 Z M73.2836753,78.930816 L101.337836,95.1335729 C101.816087,95.4097879 101.979869,96.0214032 101.703654,96.4996539 C101.615889,96.6516152 101.489679,96.7778052 101.337705,96.8655478 L43.5738448,130.215528 C39.8609904,132.359145 37.5737969,136.320732 37.5738448,140.607967 L37.574571,205.616102 C37.5745833,206.720671 36.6791628,207.616112 35.5745933,207.616124 C35.2233624,207.616128 34.8783239,207.523636 34.5741878,207.347953 L11.9956783,194.305583 C7.04706479,191.44704 3.99883175,186.16609 3.99874388,180.451193 L3.99783347,121.241386 C3.99776755,116.954133 6.28496346,112.992524 9.99783347,110.848897 L65.2826235,78.9302086 C67.7582079,77.5009293 70.8083079,77.5011608 73.2836753,78.930816 Z M186.12791,48.3838761 C186.479141,48.3838722 186.82418,48.4763638 187.128316,48.6520466 L209.706825,61.6944168 C214.655439,64.5529602 217.703672,69.8339101 217.703759,75.5488069 L217.70467,134.758614 C217.704736,139.045867 215.41754,143.007476 211.70467,145.151103 L156.41988,177.069791 C153.944295,178.499071 150.894195,178.498839 148.418828,177.069184 L120.364667,160.866427 C119.886416,160.590212 119.722634,159.978597 119.998849,159.500346 C120.086615,159.348385 120.212824,159.222195 120.364799,159.134452 L178.128659,125.784472 C181.841513,123.640855 184.128706,119.679268 184.128659,115.392033 L184.127932,50.3838984 C184.12792,49.2793289 185.023341,48.3838884 186.12791,48.3838761 Z M118.85344,9.23741723 L170.131092,38.8415322 C173.843995,40.9851016 176.131252,44.9466763 176.131252,49.2339293 L176.131252,113.071306 C176.131252,115.929865 174.606001,118.571213 172.1302,120.000116 L144.07112,136.194354 C143.592786,136.470424 142.98122,136.306456 142.70515,135.828121 C142.617431,135.676133 142.571252,135.503738 142.571252,135.328253 L142.571252,68.6282926 C142.571252,64.3410576 140.284014,60.3794967 136.571136,58.2359207 L80.2720763,25.7324822 C79.3154849,25.1802082 78.987721,23.957031 79.539995,23.0004396 C79.7156071,22.6962627 79.9682265,22.4436964 80.2724403,22.2681482 L102.856719,9.23577053 C107.806597,6.37941724 113.90415,6.38004492 118.85344,9.23741723 Z M75.2778335,32.0828263 L130.562623,64.0015147 C133.038208,65.430794 134.563057,68.0723739 134.562623,70.9309325 L134.557705,103.327927 C134.557621,103.880212 134.109838,104.327859 133.557553,104.327775 C133.382068,104.327749 133.209679,104.281543 133.057705,104.193801 L75.2938448,70.8438205 C71.5809904,68.700203 67.0065592,68.7002286 63.2937287,70.8438875 L6.99539565,103.348584 C6.03881657,103.900879 4.8156321,103.573143 4.26333666,102.616563 C4.08771778,102.312391 3.99529864,101.967333 3.99537635,101.616102 L4.00114554,75.5413537 C4.00240999,69.826457 7.05173021,64.5461348 12.0009321,61.6886103 L63.2776737,32.0829185 C66.9905107,29.9392349 71.5649635,29.9391998 75.2778335,32.0828263 Z" id="Vortex"></path>
                    </g>
                </g>
                <g id="Vortex">
                    <path d="M78.997353,120.171879 C79.0850725,120.323867 79.1312517,120.496262 79.1312517,120.671747 L79.1312517,187.371707 C79.1312517,191.658942 81.4184894,195.620503 85.1313678,197.764079 L141.430427,230.267518 C142.387018,230.819792 142.714782,232.042969 142.162508,232.99956 C141.986896,233.303737 141.734277,233.556304 141.430063,233.731852 L118.845784,246.764229 C113.895906,249.620583 107.798353,249.619955 102.849063,246.762583 L51.5714115,217.158468 C47.8585085,215.014898 45.5712517,211.053324 45.5712517,206.766071 L45.5712517,142.928694 C45.5712517,140.070135 47.0965022,137.428787 49.5723036,135.999884 L77.6313832,119.805646 C78.1097177,119.529576 78.7212832,119.693544 78.997353,120.171879 Z M88.1449504,151.672225 C88.3204356,151.672251 88.492824,151.718457 88.6447986,151.806199 L146.408659,185.15618 C150.121513,187.299797 154.695944,187.299771 158.408775,185.156112 L214.707108,152.651416 C215.663687,152.099121 216.886871,152.426857 217.439167,153.383437 C217.614786,153.687609 217.707205,154.032667 217.707127,154.383898 L217.701358,180.458646 C217.700093,186.173543 214.650773,191.453865 209.701571,194.31139 L158.42483,223.917081 C154.711993,226.060765 150.13754,226.0608 146.42467,223.917174 L91.1398799,191.998485 C88.6642955,190.569206 87.139446,187.927626 87.13988,185.069068 L87.1447986,152.672073 C87.1448825,152.119788 87.5926657,151.672141 88.1449504,151.672225 Z M73.2836753,78.930816 L101.337836,95.1335729 C101.816087,95.4097879 101.979869,96.0214032 101.703654,96.4996539 C101.615889,96.6516152 101.489679,96.7778052 101.337705,96.8655478 L43.5738448,130.215528 C39.8609904,132.359145 37.5737969,136.320732 37.5738448,140.607967 L37.574571,205.616102 C37.5745833,206.720671 36.6791628,207.616112 35.5745933,207.616124 C35.2233624,207.616128 34.8783239,207.523636 34.5741878,207.347953 L11.9956783,194.305583 C7.04706479,191.44704 3.99883175,186.16609 3.99874388,180.451193 L3.99783347,121.241386 C3.99776755,116.954133 6.28496346,112.992524 9.99783347,110.848897 L65.2826235,78.9302086 C67.7582079,77.5009293 70.8083079,77.5011608 73.2836753,78.930816 Z M186.12791,48.3838761 C186.479141,48.3838722 186.82418,48.4763638 187.128316,48.6520466 L209.706825,61.6944168 C214.655439,64.5529602 217.703672,69.8339101 217.703759,75.5488069 L217.70467,134.758614 C217.704736,139.045867 215.41754,143.007476 211.70467,145.151103 L156.41988,177.069791 C153.944295,178.499071 150.894195,178.498839 148.418828,177.069184 L120.364667,160.866427 C119.886416,160.590212 119.722634,159.978597 119.998849,159.500346 C120.086615,159.348385 120.212824,159.222195 120.364799,159.134452 L178.128659,125.784472 C181.841513,123.640855 184.128706,119.679268 184.128659,115.392033 L184.127932,50.3838984 C184.12792,49.2793289 185.023341,48.3838884 186.12791,48.3838761 Z M118.85344,9.23741723 L170.131092,38.8415322 C173.843995,40.9851016 176.131252,44.9466763 176.131252,49.2339293 L176.131252,113.071306 C176.131252,115.929865 174.606001,118.571213 172.1302,120.000116 L144.07112,136.194354 C143.592786,136.470424 142.98122,136.306456 142.70515,135.828121 C142.617431,135.676133 142.571252,135.503738 142.571252,135.328253 L142.571252,68.6282926 C142.571252,64.3410576 140.284014,60.3794967 136.571136,58.2359207 L80.2720763,25.7324822 C79.3154849,25.1802082 78.987721,23.957031 79.539995,23.0004396 C79.7156071,22.6962627 79.9682265,22.4436964 80.2724403,22.2681482 L102.856719,9.23577053 C107.806597,6.37941724 113.90415,6.38004492 118.85344,9.23741723 Z M75.2778335,32.0828263 L130.562623,64.0015147 C133.038208,65.430794 134.563057,68.0723739 134.562623,70.9309325 L134.557705,103.327927 C134.557621,103.880212 134.109838,104.327859 133.557553,104.327775 C133.382068,104.327749 133.209679,104.281543 133.057705,104.193801 L75.2938448,70.8438205 C71.5809904,68.700203 67.0065592,68.7002286 63.2937287,70.8438875 L6.99539565,103.348584 C6.03881657,103.900879 4.8156321,103.573143 4.26333666,102.616563 C4.08771778,102.312391 3.99529864,101.967333 3.99537635,101.616102 L4.00114554,75.5413537 C4.00240999,69.826457 7.05173021,64.5461348 12.0009321,61.6886103 L63.2776737,32.0829185 C66.9905107,29.9392349 71.5649635,29.9391998 75.2778335,32.0828263 Z"></path>
                </g>
            </g>
            <g id="Row" transform="translate(110.850000, 384.000000)">
                <g id="Group" transform="translate(443.400000, 0.000000)">
                    <g id="Logo/0-–-Vortex" transform="translate(110.851252, 128.000000) scale(-1, 1) translate(-110.851252, -128.000000) ">
                        <path d="M78.997353,120.171879 C79.0850725,120.323867 79.1312517,120.496262 79.1312517,120.671747 L79.1312517,187.371707 C79.1312517,191.658942 81.4184894,195.620503 85.1313678,197.764079 L141.430427,230.267518 C142.387018,230.819792 142.714782,232.042969 142.162508,232.99956 C141.986896,233.303737 141.734277,233.556304 141.430063,233.731852 L118.845784,246.764229 C113.895906,249.620583 107.798353,249.619955 102.849063,246.762583 L51.5714115,217.158468 C47.8585085,215.014898 45.5712517,211.053324 45.5712517,206.766071 L45.5712517,142.928694 C45.5712517,140.070135 47.0965022,137.428787 49.5723036,135.999884 L77.6313832,119.805646 C78.1097177,119.529576 78.7212832,119.693544 78.997353,120.171879 Z M88.1449504,151.672225 C88.3204356,151.672251 88.492824,151.718457 88.6447986,151.806199 L146.408659,185.15618 C150.121513,187.299797 154.695944,187.299771 158.408775,185.156112 L214.707108,152.651416 C215.663687,152.099121 216.886871,152.426857 217.439167,153.383437 C217.614786,153.687609 217.707205,154.032667 217.707127,154.383898 L217.701358,180.458646 C217.700093,186.173543 214.650773,191.453865 209.701571,194.31139 L158.42483,223.917081 C154.711993,226.060765 150.13754,226.0608 146.42467,223.917174 L91.1398799,191.998485 C88.6642955,190.569206 87.139446,187.927626 87.13988,185.069068 L87.1447986,152.672073 C87.1448825,152.119788 87.5926657,151.672141 88.1449504,151.672225 Z M73.2836753,78.930816 L101.337836,95.1335729 C101.816087,95.4097879 101.979869,96.0214032 101.703654,96.4996539 C101.615889,96.6516152 101.489679,96.7778052 101.337705,96.8655478 L43.5738448,130.215528 C39.8609904,132.359145 37.5737969,136.320732 37.5738448,140.607967 L37.574571,205.616102 C37.5745833,206.720671 36.6791628,207.616112 35.5745933,207.616124 C35.2233624,207.616128 34.8783239,207.523636 34.5741878,207.347953 L11.9956783,194.305583 C7.04706479,191.44704 3.99883175,186.16609 3.99874388,180.451193 L3.99783347,121.241386 C3.99776755,116.954133 6.28496346,112.992524 9.99783347,110.848897 L65.2826235,78.9302086 C67.7582079,77.5009293 70.8083079,77.5011608 73.2836753,78.930816 Z M186.12791,48.3838761 C186.479141,48.3838722 186.82418,48.4763638 187.128316,48.6520466 L209.706825,61.6944168 C214.655439,64.5529602 217.703672,69.8339101 217.703759,75.5488069 L217.70467,134.758614 C217.704736,139.045867 215.41754,143.007476 211.70467,145.151103 L156.41988,177.069791 C153.944295,178.499071 150.894195,178.498839 148.418828,177.069184 L120.364667,160.866427 C119.886416,160.590212 119.722634,159.978597 119.998849,159.500346 C120.086615,159.348385 120.212824,159.222195 120.364799,159.134452 L178.128659,125.784472 C181.841513,123.640855 184.128706,119.679268 184.128659,115.392033 L184.127932,50.3838984 C184.12792,49.2793289 185.023341,48.3838884 186.12791,48.3838761 Z M118.85344,9.23741723 L170.131092,38.8415322 C173.843995,40.9851016 176.131252,44.9466763 176.131252,49.2339293 L176.131252,113.071306 C176.131252,115.929865 174.606001,118.571213 172.1302,120.000116 L144.07112,136.194354 C143.592786,136.470424 142.98122,136.306456 142.70515,135.828121 C142.617431,135.676133 142.571252,135.503738 142.571252,135.328253 L142.571252,68.6282926 C142.571252,64.3410576 140.284014,60.3794967 136.571136,58.2359207 L80.2720763,25.7324822 C79.3154849,25.1802082 78.987721,23.957031 79.539995,23.0004396 C79.7156071,22.6962627 79.9682265,22.4436964 80.2724403,22.2681482 L102.856719,9.23577053 C107.806597,6.37941724 113.90415,6.38004492 118.85344,9.23741723 Z M75.2778335,32.0828263 L130.562623,64.0015147 C133.038208,65.430794 134.563057,68.0723739 134.562623,70.9309325 L134.557705,103.327927 C134.557621,103.880212 134.109838,104.327859 133.557553,104.327775 C133.382068,104.327749 133.209679,104.281543 133.057705,104.193801 L75.2938448,70.8438205 C71.5809904,68.700203 67.0065592,68.7002286 63.2937287,70.8438875 L6.99539565,103.348584 C6.03881657,103.900879 4.8156321,103.573143 4.26333666,102.616563 C4.08771778,102.312391 3.99529864,101.967333 3.99537635,101.616102 L4.00114554,75.5413537 C4.00240999,69.826457 7.05173021,64.5461348 12.0009321,61.6886103 L63.2776737,32.0829185 C66.9905107,29.9392349 71.5649635,29.9391998 75.2778335,32.0828263 Z" id="Vortex"></path>
                    </g>
                </g>
                <g id="Group" transform="translate(221.700000, 0.000000)">
                    <g id="Logo/0-–-Vortex" transform="translate(110.851252, 128.000000) scale(-1, 1) translate(-110.851252, -128.000000) ">
                        <path d="M78.997353,120.171879 C79.0850725,120.323867 79.1312517,120.496262 79.1312517,120.671747 L79.1312517,187.371707 C79.1312517,191.658942 81.4184894,195.620503 85.1313678,197.764079 L141.430427,230.267518 C142.387018,230.819792 142.714782,232.042969 142.162508,232.99956 C141.986896,233.303737 141.734277,233.556304 141.430063,233.731852 L118.845784,246.764229 C113.895906,249.620583 107.798353,249.619955 102.849063,246.762583 L51.5714115,217.158468 C47.8585085,215.014898 45.5712517,211.053324 45.5712517,206.766071 L45.5712517,142.928694 C45.5712517,140.070135 47.0965022,137.428787 49.5723036,135.999884 L77.6313832,119.805646 C78.1097177,119.529576 78.7212832,119.693544 78.997353,120.171879 Z M88.1449504,151.672225 C88.3204356,151.672251 88.492824,151.718457 88.6447986,151.806199 L146.408659,185.15618 C150.121513,187.299797 154.695944,187.299771 158.408775,185.156112 L214.707108,152.651416 C215.663687,152.099121 216.886871,152.426857 217.439167,153.383437 C217.614786,153.687609 217.707205,154.032667 217.707127,154.383898 L217.701358,180.458646 C217.700093,186.173543 214.650773,191.453865 209.701571,194.31139 L158.42483,223.917081 C154.711993,226.060765 150.13754,226.0608 146.42467,223.917174 L91.1398799,191.998485 C88.6642955,190.569206 87.139446,187.927626 87.13988,185.069068 L87.1447986,152.672073 C87.1448825,152.119788 87.5926657,151.672141 88.1449504,151.672225 Z M73.2836753,78.930816 L101.337836,95.1335729 C101.816087,95.4097879 101.979869,96.0214032 101.703654,96.4996539 C101.615889,96.6516152 101.489679,96.7778052 101.337705,96.8655478 L43.5738448,130.215528 C39.8609904,132.359145 37.5737969,136.320732 37.5738448,140.607967 L37.574571,205.616102 C37.5745833,206.720671 36.6791628,207.616112 35.5745933,207.616124 C35.2233624,207.616128 34.8783239,207.523636 34.5741878,207.347953 L11.9956783,194.305583 C7.04706479,191.44704 3.99883175,186.16609 3.99874388,180.451193 L3.99783347,121.241386 C3.99776755,116.954133 6.28496346,112.992524 9.99783347,110.848897 L65.2826235,78.9302086 C67.7582079,77.5009293 70.8083079,77.5011608 73.2836753,78.930816 Z M186.12791,48.3838761 C186.479141,48.3838722 186.82418,48.4763638 187.128316,48.6520466 L209.706825,61.6944168 C214.655439,64.5529602 217.703672,69.8339101 217.703759,75.5488069 L217.70467,134.758614 C217.704736,139.045867 215.41754,143.007476 211.70467,145.151103 L156.41988,177.069791 C153.944295,178.499071 150.894195,178.498839 148.418828,177.069184 L120.364667,160.866427 C119.886416,160.590212 119.722634,159.978597 119.998849,159.500346 C120.086615,159.348385 120.212824,159.222195 120.364799,159.134452 L178.128659,125.784472 C181.841513,123.640855 184.128706,119.679268 184.128659,115.392033 L184.127932,50.3838984 C184.12792,49.2793289 185.023341,48.3838884 186.12791,48.3838761 Z M118.85344,9.23741723 L170.131092,38.8415322 C173.843995,40.9851016 176.131252,44.9466763 176.131252,49.2339293 L176.131252,113.071306 C176.131252,115.929865 174.606001,118.571213 172.1302,120.000116 L144.07112,136.194354 C143.592786,136.470424 142.98122,136.306456 142.70515,135.828121 C142.617431,135.676133 142.571252,135.503738 142.571252,135.328253 L142.571252,68.6282926 C142.571252,64.3410576 140.284014,60.3794967 136.571136,58.2359207 L80.2720763,25.7324822 C79.3154849,25.1802082 78.987721,23.957031 79.539995,23.0004396 C79.7156071,22.6962627 79.9682265,22.4436964 80.2724403,22.2681482 L102.856719,9.23577053 C107.806597,6.37941724 113.90415,6.38004492 118.85344,9.23741723 Z M75.2778335,32.0828263 L130.562623,64.0015147 C133.038208,65.430794 134.563057,68.0723739 134.562623,70.9309325 L134.557705,103.327927 C134.557621,103.880212 134.109838,104.327859 133.557553,104.327775 C133.382068,104.327749 133.209679,104.281543 133.057705,104.193801 L75.2938448,70.8438205 C71.5809904,68.700203 67.0065592,68.7002286 63.2937287,70.8438875 L6.99539565,103.348584 C6.03881657,103.900879 4.8156321,103.573143 4.26333666,102.616563 C4.08771778,102.312391 3.99529864,101.967333 3.99537635,101.616102 L4.00114554,75.5413537 C4.00240999,69.826457 7.05173021,64.5461348 12.0009321,61.6886103 L63.2776737,32.0829185 C66.9905107,29.9392349 71.5649635,29.9391998 75.2778335,32.0828263 Z" id="Vortex"></path>
                    </g>
                </g>
                <g id="Vortex">
                    <path d="M78.997353,120.171879 C79.0850725,120.323867 79.1312517,120.496262 79.1312517,120.671747 L79.1312517,187.371707 C79.1312517,191.658942 81.4184894,195.620503 85.1313678,197.764079 L141.430427,230.267518 C142.387018,230.819792 142.714782,232.042969 142.162508,232.99956 C141.986896,233.303737 141.734277,233.556304 141.430063,233.731852 L118.845784,246.764229 C113.895906,249.620583 107.798353,249.619955 102.849063,246.762583 L51.5714115,217.158468 C47.8585085,215.014898 45.5712517,211.053324 45.5712517,206.766071 L45.5712517,142.928694 C45.5712517,140.070135 47.0965022,137.428787 49.5723036,135.999884 L77.6313832,119.805646 C78.1097177,119.529576 78.7212832,119.693544 78.997353,120.171879 Z M88.1449504,151.672225 C88.3204356,151.672251 88.492824,151.718457 88.6447986,151.806199 L146.408659,185.15618 C150.121513,187.299797 154.695944,187.299771 158.408775,185.156112 L214.707108,152.651416 C215.663687,152.099121 216.886871,152.426857 217.439167,153.383437 C217.614786,153.687609 217.707205,154.032667 217.707127,154.383898 L217.701358,180.458646 C217.700093,186.173543 214.650773,191.453865 209.701571,194.31139 L158.42483,223.917081 C154.711993,226.060765 150.13754,226.0608 146.42467,223.917174 L91.1398799,191.998485 C88.6642955,190.569206 87.139446,187.927626 87.13988,185.069068 L87.1447986,152.672073 C87.1448825,152.119788 87.5926657,151.672141 88.1449504,151.672225 Z M73.2836753,78.930816 L101.337836,95.1335729 C101.816087,95.4097879 101.979869,96.0214032 101.703654,96.4996539 C101.615889,96.6516152 101.489679,96.7778052 101.337705,96.8655478 L43.5738448,130.215528 C39.8609904,132.359145 37.5737969,136.320732 37.5738448,140.607967 L37.574571,205.616102 C37.5745833,206.720671 36.6791628,207.616112 35.5745933,207.616124 C35.2233624,207.616128 34.8783239,207.523636 34.5741878,207.347953 L11.9956783,194.305583 C7.04706479,191.44704 3.99883175,186.16609 3.99874388,180.451193 L3.99783347,121.241386 C3.99776755,116.954133 6.28496346,112.992524 9.99783347,110.848897 L65.2826235,78.9302086 C67.7582079,77.5009293 70.8083079,77.5011608 73.2836753,78.930816 Z M186.12791,48.3838761 C186.479141,48.3838722 186.82418,48.4763638 187.128316,48.6520466 L209.706825,61.6944168 C214.655439,64.5529602 217.703672,69.8339101 217.703759,75.5488069 L217.70467,134.758614 C217.704736,139.045867 215.41754,143.007476 211.70467,145.151103 L156.41988,177.069791 C153.944295,178.499071 150.894195,178.498839 148.418828,177.069184 L120.364667,160.866427 C119.886416,160.590212 119.722634,159.978597 119.998849,159.500346 C120.086615,159.348385 120.212824,159.222195 120.364799,159.134452 L178.128659,125.784472 C181.841513,123.640855 184.128706,119.679268 184.128659,115.392033 L184.127932,50.3838984 C184.12792,49.2793289 185.023341,48.3838884 186.12791,48.3838761 Z M118.85344,9.23741723 L170.131092,38.8415322 C173.843995,40.9851016 176.131252,44.9466763 176.131252,49.2339293 L176.131252,113.071306 C176.131252,115.929865 174.606001,118.571213 172.1302,120.000116 L144.07112,136.194354 C143.592786,136.470424 142.98122,136.306456 142.70515,135.828121 C142.617431,135.676133 142.571252,135.503738 142.571252,135.328253 L142.571252,68.6282926 C142.571252,64.3410576 140.284014,60.3794967 136.571136,58.2359207 L80.2720763,25.7324822 C79.3154849,25.1802082 78.987721,23.957031 79.539995,23.0004396 C79.7156071,22.6962627 79.9682265,22.4436964 80.2724403,22.2681482 L102.856719,9.23577053 C107.806597,6.37941724 113.90415,6.38004492 118.85344,9.23741723 Z M75.2778335,32.0828263 L130.562623,64.0015147 C133.038208,65.430794 134.563057,68.0723739 134.562623,70.9309325 L134.557705,103.327927 C134.557621,103.880212 134.109838,104.327859 133.557553,104.327775 C133.382068,104.327749 133.209679,104.281543 133.057705,104.193801 L75.2938448,70.8438205 C71.5809904,68.700203 67.0065592,68.7002286 63.2937287,70.8438875 L6.99539565,103.348584 C6.03881657,103.900879 4.8156321,103.573143 4.26333666,102.616563 C4.08771778,102.312391 3.99529864,101.967333 3.99537635,101.616102 L4.00114554,75.5413537 C4.00240999,69.826457 7.05173021,64.5461348 12.0009321,61.6886103 L63.2776737,32.0829185 C66.9905107,29.9392349 71.5649635,29.9391998 75.2778335,32.0828263 Z"></path>
                </g>
            </g>
        </g>
        <g id="Swirls-Right" transform="translate(1422.600000, -64.000000)" fill="#0A1013">
            <g id="Row" transform="translate(110.850000, 192.000000)">
                <g id="Group" transform="translate(443.400000, 0.000000)">
                    <g id="Logo/0-–-Vortex" transform="translate(110.851252, 128.000000) scale(-1, 1) translate(-110.851252, -128.000000) ">
                        <path d="M78.997353,120.171879 C79.0850725,120.323867 79.1312517,120.496262 79.1312517,120.671747 L79.1312517,187.371707 C79.1312517,191.658942 81.4184894,195.620503 85.1313678,197.764079 L141.430427,230.267518 C142.387018,230.819792 142.714782,232.042969 142.162508,232.99956 C141.986896,233.303737 141.734277,233.556304 141.430063,233.731852 L118.845784,246.764229 C113.895906,249.620583 107.798353,249.619955 102.849063,246.762583 L51.5714115,217.158468 C47.8585085,215.014898 45.5712517,211.053324 45.5712517,206.766071 L45.5712517,142.928694 C45.5712517,140.070135 47.0965022,137.428787 49.5723036,135.999884 L77.6313832,119.805646 C78.1097177,119.529576 78.7212832,119.693544 78.997353,120.171879 Z M88.1449504,151.672225 C88.3204356,151.672251 88.492824,151.718457 88.6447986,151.806199 L146.408659,185.15618 C150.121513,187.299797 154.695944,187.299771 158.408775,185.156112 L214.707108,152.651416 C215.663687,152.099121 216.886871,152.426857 217.439167,153.383437 C217.614786,153.687609 217.707205,154.032667 217.707127,154.383898 L217.701358,180.458646 C217.700093,186.173543 214.650773,191.453865 209.701571,194.31139 L158.42483,223.917081 C154.711993,226.060765 150.13754,226.0608 146.42467,223.917174 L91.1398799,191.998485 C88.6642955,190.569206 87.139446,187.927626 87.13988,185.069068 L87.1447986,152.672073 C87.1448825,152.119788 87.5926657,151.672141 88.1449504,151.672225 Z M73.2836753,78.930816 L101.337836,95.1335729 C101.816087,95.4097879 101.979869,96.0214032 101.703654,96.4996539 C101.615889,96.6516152 101.489679,96.7778052 101.337705,96.8655478 L43.5738448,130.215528 C39.8609904,132.359145 37.5737969,136.320732 37.5738448,140.607967 L37.574571,205.616102 C37.5745833,206.720671 36.6791628,207.616112 35.5745933,207.616124 C35.2233624,207.616128 34.8783239,207.523636 34.5741878,207.347953 L11.9956783,194.305583 C7.04706479,191.44704 3.99883175,186.16609 3.99874388,180.451193 L3.99783347,121.241386 C3.99776755,116.954133 6.28496346,112.992524 9.99783347,110.848897 L65.2826235,78.9302086 C67.7582079,77.5009293 70.8083079,77.5011608 73.2836753,78.930816 Z M186.12791,48.3838761 C186.479141,48.3838722 186.82418,48.4763638 187.128316,48.6520466 L209.706825,61.6944168 C214.655439,64.5529602 217.703672,69.8339101 217.703759,75.5488069 L217.70467,134.758614 C217.704736,139.045867 215.41754,143.007476 211.70467,145.151103 L156.41988,177.069791 C153.944295,178.499071 150.894195,178.498839 148.418828,177.069184 L120.364667,160.866427 C119.886416,160.590212 119.722634,159.978597 119.998849,159.500346 C120.086615,159.348385 120.212824,159.222195 120.364799,159.134452 L178.128659,125.784472 C181.841513,123.640855 184.128706,119.679268 184.128659,115.392033 L184.127932,50.3838984 C184.12792,49.2793289 185.023341,48.3838884 186.12791,48.3838761 Z M118.85344,9.23741723 L170.131092,38.8415322 C173.843995,40.9851016 176.131252,44.9466763 176.131252,49.2339293 L176.131252,113.071306 C176.131252,115.929865 174.606001,118.571213 172.1302,120.000116 L144.07112,136.194354 C143.592786,136.470424 142.98122,136.306456 142.70515,135.828121 C142.617431,135.676133 142.571252,135.503738 142.571252,135.328253 L142.571252,68.6282926 C142.571252,64.3410576 140.284014,60.3794967 136.571136,58.2359207 L80.2720763,25.7324822 C79.3154849,25.1802082 78.987721,23.957031 79.539995,23.0004396 C79.7156071,22.6962627 79.9682265,22.4436964 80.2724403,22.2681482 L102.856719,9.23577053 C107.806597,6.37941724 113.90415,6.38004492 118.85344,9.23741723 Z M75.2778335,32.0828263 L130.562623,64.0015147 C133.038208,65.430794 134.563057,68.0723739 134.562623,70.9309325 L134.557705,103.327927 C134.557621,103.880212 134.109838,104.327859 133.557553,104.327775 C133.382068,104.327749 133.209679,104.281543 133.057705,104.193801 L75.2938448,70.8438205 C71.5809904,68.700203 67.0065592,68.7002286 63.2937287,70.8438875 L6.99539565,103.348584 C6.03881657,103.900879 4.8156321,103.573143 4.26333666,102.616563 C4.08771778,102.312391 3.99529864,101.967333 3.99537635,101.616102 L4.00114554,75.5413537 C4.00240999,69.826457 7.05173021,64.5461348 12.0009321,61.6886103 L63.2776737,32.0829185 C66.9905107,29.9392349 71.5649635,29.9391998 75.2778335,32.0828263 Z" id="Vortex"></path>
                    </g>
                </g>
                <g id="Group" transform="translate(221.700000, 0.000000)">
                    <g id="Logo/0-–-Vortex" transform="translate(110.851252, 128.000000) scale(-1, 1) translate(-110.851252, -128.000000) ">
                        <path d="M78.997353,120.171879 C79.0850725,120.323867 79.1312517,120.496262 79.1312517,120.671747 L79.1312517,187.371707 C79.1312517,191.658942 81.4184894,195.620503 85.1313678,197.764079 L141.430427,230.267518 C142.387018,230.819792 142.714782,232.042969 142.162508,232.99956 C141.986896,233.303737 141.734277,233.556304 141.430063,233.731852 L118.845784,246.764229 C113.895906,249.620583 107.798353,249.619955 102.849063,246.762583 L51.5714115,217.158468 C47.8585085,215.014898 45.5712517,211.053324 45.5712517,206.766071 L45.5712517,142.928694 C45.5712517,140.070135 47.0965022,137.428787 49.5723036,135.999884 L77.6313832,119.805646 C78.1097177,119.529576 78.7212832,119.693544 78.997353,120.171879 Z M88.1449504,151.672225 C88.3204356,151.672251 88.492824,151.718457 88.6447986,151.806199 L146.408659,185.15618 C150.121513,187.299797 154.695944,187.299771 158.408775,185.156112 L214.707108,152.651416 C215.663687,152.099121 216.886871,152.426857 217.439167,153.383437 C217.614786,153.687609 217.707205,154.032667 217.707127,154.383898 L217.701358,180.458646 C217.700093,186.173543 214.650773,191.453865 209.701571,194.31139 L158.42483,223.917081 C154.711993,226.060765 150.13754,226.0608 146.42467,223.917174 L91.1398799,191.998485 C88.6642955,190.569206 87.139446,187.927626 87.13988,185.069068 L87.1447986,152.672073 C87.1448825,152.119788 87.5926657,151.672141 88.1449504,151.672225 Z M73.2836753,78.930816 L101.337836,95.1335729 C101.816087,95.4097879 101.979869,96.0214032 101.703654,96.4996539 C101.615889,96.6516152 101.489679,96.7778052 101.337705,96.8655478 L43.5738448,130.215528 C39.8609904,132.359145 37.5737969,136.320732 37.5738448,140.607967 L37.574571,205.616102 C37.5745833,206.720671 36.6791628,207.616112 35.5745933,207.616124 C35.2233624,207.616128 34.8783239,207.523636 34.5741878,207.347953 L11.9956783,194.305583 C7.04706479,191.44704 3.99883175,186.16609 3.99874388,180.451193 L3.99783347,121.241386 C3.99776755,116.954133 6.28496346,112.992524 9.99783347,110.848897 L65.2826235,78.9302086 C67.7582079,77.5009293 70.8083079,77.5011608 73.2836753,78.930816 Z M186.12791,48.3838761 C186.479141,48.3838722 186.82418,48.4763638 187.128316,48.6520466 L209.706825,61.6944168 C214.655439,64.5529602 217.703672,69.8339101 217.703759,75.5488069 L217.70467,134.758614 C217.704736,139.045867 215.41754,143.007476 211.70467,145.151103 L156.41988,177.069791 C153.944295,178.499071 150.894195,178.498839 148.418828,177.069184 L120.364667,160.866427 C119.886416,160.590212 119.722634,159.978597 119.998849,159.500346 C120.086615,159.348385 120.212824,159.222195 120.364799,159.134452 L178.128659,125.784472 C181.841513,123.640855 184.128706,119.679268 184.128659,115.392033 L184.127932,50.3838984 C184.12792,49.2793289 185.023341,48.3838884 186.12791,48.3838761 Z M118.85344,9.23741723 L170.131092,38.8415322 C173.843995,40.9851016 176.131252,44.9466763 176.131252,49.2339293 L176.131252,113.071306 C176.131252,115.929865 174.606001,118.571213 172.1302,120.000116 L144.07112,136.194354 C143.592786,136.470424 142.98122,136.306456 142.70515,135.828121 C142.617431,135.676133 142.571252,135.503738 142.571252,135.328253 L142.571252,68.6282926 C142.571252,64.3410576 140.284014,60.3794967 136.571136,58.2359207 L80.2720763,25.7324822 C79.3154849,25.1802082 78.987721,23.957031 79.539995,23.0004396 C79.7156071,22.6962627 79.9682265,22.4436964 80.2724403,22.2681482 L102.856719,9.23577053 C107.806597,6.37941724 113.90415,6.38004492 118.85344,9.23741723 Z M75.2778335,32.0828263 L130.562623,64.0015147 C133.038208,65.430794 134.563057,68.0723739 134.562623,70.9309325 L134.557705,103.327927 C134.557621,103.880212 134.109838,104.327859 133.557553,104.327775 C133.382068,104.327749 133.209679,104.281543 133.057705,104.193801 L75.2938448,70.8438205 C71.5809904,68.700203 67.0065592,68.7002286 63.2937287,70.8438875 L6.99539565,103.348584 C6.03881657,103.900879 4.8156321,103.573143 4.26333666,102.616563 C4.08771778,102.312391 3.99529864,101.967333 3.99537635,101.616102 L4.00114554,75.5413537 C4.00240999,69.826457 7.05173021,64.5461348 12.0009321,61.6886103 L63.2776737,32.0829185 C66.9905107,29.9392349 71.5649635,29.9391998 75.2778335,32.0828263 Z" id="Vortex"></path>
                    </g>
                </g>
                <g id="Vortex">
                    <path d="M78.997353,120.171879 C79.0850725,120.323867 79.1312517,120.496262 79.1312517,120.671747 L79.1312517,187.371707 C79.1312517,191.658942 81.4184894,195.620503 85.1313678,197.764079 L141.430427,230.267518 C142.387018,230.819792 142.714782,232.042969 142.162508,232.99956 C141.986896,233.303737 141.734277,233.556304 141.430063,233.731852 L118.845784,246.764229 C113.895906,249.620583 107.798353,249.619955 102.849063,246.762583 L51.5714115,217.158468 C47.8585085,215.014898 45.5712517,211.053324 45.5712517,206.766071 L45.5712517,142.928694 C45.5712517,140.070135 47.0965022,137.428787 49.5723036,135.999884 L77.6313832,119.805646 C78.1097177,119.529576 78.7212832,119.693544 78.997353,120.171879 Z M88.1449504,151.672225 C88.3204356,151.672251 88.492824,151.718457 88.6447986,151.806199 L146.408659,185.15618 C150.121513,187.299797 154.695944,187.299771 158.408775,185.156112 L214.707108,152.651416 C215.663687,152.099121 216.886871,152.426857 217.439167,153.383437 C217.614786,153.687609 217.707205,154.032667 217.707127,154.383898 L217.701358,180.458646 C217.700093,186.173543 214.650773,191.453865 209.701571,194.31139 L158.42483,223.917081 C154.711993,226.060765 150.13754,226.0608 146.42467,223.917174 L91.1398799,191.998485 C88.6642955,190.569206 87.139446,187.927626 87.13988,185.069068 L87.1447986,152.672073 C87.1448825,152.119788 87.5926657,151.672141 88.1449504,151.672225 Z M73.2836753,78.930816 L101.337836,95.1335729 C101.816087,95.4097879 101.979869,96.0214032 101.703654,96.4996539 C101.615889,96.6516152 101.489679,96.7778052 101.337705,96.8655478 L43.5738448,130.215528 C39.8609904,132.359145 37.5737969,136.320732 37.5738448,140.607967 L37.574571,205.616102 C37.5745833,206.720671 36.6791628,207.616112 35.5745933,207.616124 C35.2233624,207.616128 34.8783239,207.523636 34.5741878,207.347953 L11.9956783,194.305583 C7.04706479,191.44704 3.99883175,186.16609 3.99874388,180.451193 L3.99783347,121.241386 C3.99776755,116.954133 6.28496346,112.992524 9.99783347,110.848897 L65.2826235,78.9302086 C67.7582079,77.5009293 70.8083079,77.5011608 73.2836753,78.930816 Z M186.12791,48.3838761 C186.479141,48.3838722 186.82418,48.4763638 187.128316,48.6520466 L209.706825,61.6944168 C214.655439,64.5529602 217.703672,69.8339101 217.703759,75.5488069 L217.70467,134.758614 C217.704736,139.045867 215.41754,143.007476 211.70467,145.151103 L156.41988,177.069791 C153.944295,178.499071 150.894195,178.498839 148.418828,177.069184 L120.364667,160.866427 C119.886416,160.590212 119.722634,159.978597 119.998849,159.500346 C120.086615,159.348385 120.212824,159.222195 120.364799,159.134452 L178.128659,125.784472 C181.841513,123.640855 184.128706,119.679268 184.128659,115.392033 L184.127932,50.3838984 C184.12792,49.2793289 185.023341,48.3838884 186.12791,48.3838761 Z M118.85344,9.23741723 L170.131092,38.8415322 C173.843995,40.9851016 176.131252,44.9466763 176.131252,49.2339293 L176.131252,113.071306 C176.131252,115.929865 174.606001,118.571213 172.1302,120.000116 L144.07112,136.194354 C143.592786,136.470424 142.98122,136.306456 142.70515,135.828121 C142.617431,135.676133 142.571252,135.503738 142.571252,135.328253 L142.571252,68.6282926 C142.571252,64.3410576 140.284014,60.3794967 136.571136,58.2359207 L80.2720763,25.7324822 C79.3154849,25.1802082 78.987721,23.957031 79.539995,23.0004396 C79.7156071,22.6962627 79.9682265,22.4436964 80.2724403,22.2681482 L102.856719,9.23577053 C107.806597,6.37941724 113.90415,6.38004492 118.85344,9.23741723 Z M75.2778335,32.0828263 L130.562623,64.0015147 C133.038208,65.430794 134.563057,68.0723739 134.562623,70.9309325 L134.557705,103.327927 C134.557621,103.880212 134.109838,104.327859 133.557553,104.327775 C133.382068,104.327749 133.209679,104.281543 133.057705,104.193801 L75.2938448,70.8438205 C71.5809904,68.700203 67.0065592,68.7002286 63.2937287,70.8438875 L6.99539565,103.348584 C6.03881657,103.900879 4.8156321,103.573143 4.26333666,102.616563 C4.08771778,102.312391 3.99529864,101.967333 3.99537635,101.616102 L4.00114554,75.5413537 C4.00240999,69.826457 7.05173021,64.5461348 12.0009321,61.6886103 L63.2776737,32.0829185 C66.9905107,29.9392349 71.5649635,29.9391998 75.2778335,32.0828263 Z"></path>
                </g>
            </g>
            <g id="Row" transform="translate(-0.000000, 0.000000)">
                <g id="Vortex" transform="translate(443.400000, 0.000000)">
                    <path d="M78.997353,120.171879 C79.0850725,120.323867 79.1312517,120.496262 79.1312517,120.671747 L79.1312517,187.371707 C79.1312517,191.658942 81.4184894,195.620503 85.1313678,197.764079 L141.430427,230.267518 C142.387018,230.819792 142.714782,232.042969 142.162508,232.99956 C141.986896,233.303737 141.734277,233.556304 141.430063,233.731852 L118.845784,246.764229 C113.895906,249.620583 107.798353,249.619955 102.849063,246.762583 L51.5714115,217.158468 C47.8585085,215.014898 45.5712517,211.053324 45.5712517,206.766071 L45.5712517,142.928694 C45.5712517,140.070135 47.0965022,137.428787 49.5723036,135.999884 L77.6313832,119.805646 C78.1097177,119.529576 78.7212832,119.693544 78.997353,120.171879 Z M88.1449504,151.672225 C88.3204356,151.672251 88.492824,151.718457 88.6447986,151.806199 L146.408659,185.15618 C150.121513,187.299797 154.695944,187.299771 158.408775,185.156112 L214.707108,152.651416 C215.663687,152.099121 216.886871,152.426857 217.439167,153.383437 C217.614786,153.687609 217.707205,154.032667 217.707127,154.383898 L217.701358,180.458646 C217.700093,186.173543 214.650773,191.453865 209.701571,194.31139 L158.42483,223.917081 C154.711993,226.060765 150.13754,226.0608 146.42467,223.917174 L91.1398799,191.998485 C88.6642955,190.569206 87.139446,187.927626 87.13988,185.069068 L87.1447986,152.672073 C87.1448825,152.119788 87.5926657,151.672141 88.1449504,151.672225 Z M73.2836753,78.930816 L101.337836,95.1335729 C101.816087,95.4097879 101.979869,96.0214032 101.703654,96.4996539 C101.615889,96.6516152 101.489679,96.7778052 101.337705,96.8655478 L43.5738448,130.215528 C39.8609904,132.359145 37.5737969,136.320732 37.5738448,140.607967 L37.574571,205.616102 C37.5745833,206.720671 36.6791628,207.616112 35.5745933,207.616124 C35.2233624,207.616128 34.8783239,207.523636 34.5741878,207.347953 L11.9956783,194.305583 C7.04706479,191.44704 3.99883175,186.16609 3.99874388,180.451193 L3.99783347,121.241386 C3.99776755,116.954133 6.28496346,112.992524 9.99783347,110.848897 L65.2826235,78.9302086 C67.7582079,77.5009293 70.8083079,77.5011608 73.2836753,78.930816 Z M186.12791,48.3838761 C186.479141,48.3838722 186.82418,48.4763638 187.128316,48.6520466 L209.706825,61.6944168 C214.655439,64.5529602 217.703672,69.8339101 217.703759,75.5488069 L217.70467,134.758614 C217.704736,139.045867 215.41754,143.007476 211.70467,145.151103 L156.41988,177.069791 C153.944295,178.499071 150.894195,178.498839 148.418828,177.069184 L120.364667,160.866427 C119.886416,160.590212 119.722634,159.978597 119.998849,159.500346 C120.086615,159.348385 120.212824,159.222195 120.364799,159.134452 L178.128659,125.784472 C181.841513,123.640855 184.128706,119.679268 184.128659,115.392033 L184.127932,50.3838984 C184.12792,49.2793289 185.023341,48.3838884 186.12791,48.3838761 Z M118.85344,9.23741723 L170.131092,38.8415322 C173.843995,40.9851016 176.131252,44.9466763 176.131252,49.2339293 L176.131252,113.071306 C176.131252,115.929865 174.606001,118.571213 172.1302,120.000116 L144.07112,136.194354 C143.592786,136.470424 142.98122,136.306456 142.70515,135.828121 C142.617431,135.676133 142.571252,135.503738 142.571252,135.328253 L142.571252,68.6282926 C142.571252,64.3410576 140.284014,60.3794967 136.571136,58.2359207 L80.2720763,25.7324822 C79.3154849,25.1802082 78.987721,23.957031 79.539995,23.0004396 C79.7156071,22.6962627 79.9682265,22.4436964 80.2724403,22.2681482 L102.856719,9.23577053 C107.806597,6.37941724 113.90415,6.38004492 118.85344,9.23741723 Z M75.2778335,32.0828263 L130.562623,64.0015147 C133.038208,65.430794 134.563057,68.0723739 134.562623,70.9309325 L134.557705,103.327927 C134.557621,103.880212 134.109838,104.327859 133.557553,104.327775 C133.382068,104.327749 133.209679,104.281543 133.057705,104.193801 L75.2938448,70.8438205 C71.5809904,68.700203 67.0065592,68.7002286 63.2937287,70.8438875 L6.99539565,103.348584 C6.03881657,103.900879 4.8156321,103.573143 4.26333666,102.616563 C4.08771778,102.312391 3.99529864,101.967333 3.99537635,101.616102 L4.00114554,75.5413537 C4.00240999,69.826457 7.05173021,64.5461348 12.0009321,61.6886103 L63.2776737,32.0829185 C66.9905107,29.9392349 71.5649635,29.9391998 75.2778335,32.0828263 Z"></path>
                </g>
                <g id="Group" transform="translate(221.700000, 0.000000)">
                    <g id="Logo/0-–-Vortex" transform="translate(110.851252, 128.000000) scale(-1, 1) translate(-110.851252, -128.000000) ">
                        <path d="M78.997353,120.171879 C79.0850725,120.323867 79.1312517,120.496262 79.1312517,120.671747 L79.1312517,187.371707 C79.1312517,191.658942 81.4184894,195.620503 85.1313678,197.764079 L141.430427,230.267518 C142.387018,230.819792 142.714782,232.042969 142.162508,232.99956 C141.986896,233.303737 141.734277,233.556304 141.430063,233.731852 L118.845784,246.764229 C113.895906,249.620583 107.798353,249.619955 102.849063,246.762583 L51.5714115,217.158468 C47.8585085,215.014898 45.5712517,211.053324 45.5712517,206.766071 L45.5712517,142.928694 C45.5712517,140.070135 47.0965022,137.428787 49.5723036,135.999884 L77.6313832,119.805646 C78.1097177,119.529576 78.7212832,119.693544 78.997353,120.171879 Z M88.1449504,151.672225 C88.3204356,151.672251 88.492824,151.718457 88.6447986,151.806199 L146.408659,185.15618 C150.121513,187.299797 154.695944,187.299771 158.408775,185.156112 L214.707108,152.651416 C215.663687,152.099121 216.886871,152.426857 217.439167,153.383437 C217.614786,153.687609 217.707205,154.032667 217.707127,154.383898 L217.701358,180.458646 C217.700093,186.173543 214.650773,191.453865 209.701571,194.31139 L158.42483,223.917081 C154.711993,226.060765 150.13754,226.0608 146.42467,223.917174 L91.1398799,191.998485 C88.6642955,190.569206 87.139446,187.927626 87.13988,185.069068 L87.1447986,152.672073 C87.1448825,152.119788 87.5926657,151.672141 88.1449504,151.672225 Z M73.2836753,78.930816 L101.337836,95.1335729 C101.816087,95.4097879 101.979869,96.0214032 101.703654,96.4996539 C101.615889,96.6516152 101.489679,96.7778052 101.337705,96.8655478 L43.5738448,130.215528 C39.8609904,132.359145 37.5737969,136.320732 37.5738448,140.607967 L37.574571,205.616102 C37.5745833,206.720671 36.6791628,207.616112 35.5745933,207.616124 C35.2233624,207.616128 34.8783239,207.523636 34.5741878,207.347953 L11.9956783,194.305583 C7.04706479,191.44704 3.99883175,186.16609 3.99874388,180.451193 L3.99783347,121.241386 C3.99776755,116.954133 6.28496346,112.992524 9.99783347,110.848897 L65.2826235,78.9302086 C67.7582079,77.5009293 70.8083079,77.5011608 73.2836753,78.930816 Z M186.12791,48.3838761 C186.479141,48.3838722 186.82418,48.4763638 187.128316,48.6520466 L209.706825,61.6944168 C214.655439,64.5529602 217.703672,69.8339101 217.703759,75.5488069 L217.70467,134.758614 C217.704736,139.045867 215.41754,143.007476 211.70467,145.151103 L156.41988,177.069791 C153.944295,178.499071 150.894195,178.498839 148.418828,177.069184 L120.364667,160.866427 C119.886416,160.590212 119.722634,159.978597 119.998849,159.500346 C120.086615,159.348385 120.212824,159.222195 120.364799,159.134452 L178.128659,125.784472 C181.841513,123.640855 184.128706,119.679268 184.128659,115.392033 L184.127932,50.3838984 C184.12792,49.2793289 185.023341,48.3838884 186.12791,48.3838761 Z M118.85344,9.23741723 L170.131092,38.8415322 C173.843995,40.9851016 176.131252,44.9466763 176.131252,49.2339293 L176.131252,113.071306 C176.131252,115.929865 174.606001,118.571213 172.1302,120.000116 L144.07112,136.194354 C143.592786,136.470424 142.98122,136.306456 142.70515,135.828121 C142.617431,135.676133 142.571252,135.503738 142.571252,135.328253 L142.571252,68.6282926 C142.571252,64.3410576 140.284014,60.3794967 136.571136,58.2359207 L80.2720763,25.7324822 C79.3154849,25.1802082 78.987721,23.957031 79.539995,23.0004396 C79.7156071,22.6962627 79.9682265,22.4436964 80.2724403,22.2681482 L102.856719,9.23577053 C107.806597,6.37941724 113.90415,6.38004492 118.85344,9.23741723 Z M75.2778335,32.0828263 L130.562623,64.0015147 C133.038208,65.430794 134.563057,68.0723739 134.562623,70.9309325 L134.557705,103.327927 C134.557621,103.880212 134.109838,104.327859 133.557553,104.327775 C133.382068,104.327749 133.209679,104.281543 133.057705,104.193801 L75.2938448,70.8438205 C71.5809904,68.700203 67.0065592,68.7002286 63.2937287,70.8438875 L6.99539565,103.348584 C6.03881657,103.900879 4.8156321,103.573143 4.26333666,102.616563 C4.08771778,102.312391 3.99529864,101.967333 3.99537635,101.616102 L4.00114554,75.5413537 C4.00240999,69.826457 7.05173021,64.5461348 12.0009321,61.6886103 L63.2776737,32.0829185 C66.9905107,29.9392349 71.5649635,29.9391998 75.2778335,32.0828263 Z" id="Vortex"></path>
                    </g>
                </g>
                <g id="Logo/0-–-Vortex" transform="translate(110.851252, 128.000000) scale(-1, 1) translate(-110.851252, -128.000000) ">
                    <path d="M78.997353,120.171879 C79.0850725,120.323867 79.1312517,120.496262 79.1312517,120.671747 L79.1312517,187.371707 C79.1312517,191.658942 81.4184894,195.620503 85.1313678,197.764079 L141.430427,230.267518 C142.387018,230.819792 142.714782,232.042969 142.162508,232.99956 C141.986896,233.303737 141.734277,233.556304 141.430063,233.731852 L118.845784,246.764229 C113.895906,249.620583 107.798353,249.619955 102.849063,246.762583 L51.5714115,217.158468 C47.8585085,215.014898 45.5712517,211.053324 45.5712517,206.766071 L45.5712517,142.928694 C45.5712517,140.070135 47.0965022,137.428787 49.5723036,135.999884 L77.6313832,119.805646 C78.1097177,119.529576 78.7212832,119.693544 78.997353,120.171879 Z M88.1449504,151.672225 C88.3204356,151.672251 88.492824,151.718457 88.6447986,151.806199 L146.408659,185.15618 C150.121513,187.299797 154.695944,187.299771 158.408775,185.156112 L214.707108,152.651416 C215.663687,152.099121 216.886871,152.426857 217.439167,153.383437 C217.614786,153.687609 217.707205,154.032667 217.707127,154.383898 L217.701358,180.458646 C217.700093,186.173543 214.650773,191.453865 209.701571,194.31139 L158.42483,223.917081 C154.711993,226.060765 150.13754,226.0608 146.42467,223.917174 L91.1398799,191.998485 C88.6642955,190.569206 87.139446,187.927626 87.13988,185.069068 L87.1447986,152.672073 C87.1448825,152.119788 87.5926657,151.672141 88.1449504,151.672225 Z M73.2836753,78.930816 L101.337836,95.1335729 C101.816087,95.4097879 101.979869,96.0214032 101.703654,96.4996539 C101.615889,96.6516152 101.489679,96.7778052 101.337705,96.8655478 L43.5738448,130.215528 C39.8609904,132.359145 37.5737969,136.320732 37.5738448,140.607967 L37.574571,205.616102 C37.5745833,206.720671 36.6791628,207.616112 35.5745933,207.616124 C35.2233624,207.616128 34.8783239,207.523636 34.5741878,207.347953 L11.9956783,194.305583 C7.04706479,191.44704 3.99883175,186.16609 3.99874388,180.451193 L3.99783347,121.241386 C3.99776755,116.954133 6.28496346,112.992524 9.99783347,110.848897 L65.2826235,78.9302086 C67.7582079,77.5009293 70.8083079,77.5011608 73.2836753,78.930816 Z M186.12791,48.3838761 C186.479141,48.3838722 186.82418,48.4763638 187.128316,48.6520466 L209.706825,61.6944168 C214.655439,64.5529602 217.703672,69.8339101 217.703759,75.5488069 L217.70467,134.758614 C217.704736,139.045867 215.41754,143.007476 211.70467,145.151103 L156.41988,177.069791 C153.944295,178.499071 150.894195,178.498839 148.418828,177.069184 L120.364667,160.866427 C119.886416,160.590212 119.722634,159.978597 119.998849,159.500346 C120.086615,159.348385 120.212824,159.222195 120.364799,159.134452 L178.128659,125.784472 C181.841513,123.640855 184.128706,119.679268 184.128659,115.392033 L184.127932,50.3838984 C184.12792,49.2793289 185.023341,48.3838884 186.12791,48.3838761 Z M118.85344,9.23741723 L170.131092,38.8415322 C173.843995,40.9851016 176.131252,44.9466763 176.131252,49.2339293 L176.131252,113.071306 C176.131252,115.929865 174.606001,118.571213 172.1302,120.000116 L144.07112,136.194354 C143.592786,136.470424 142.98122,136.306456 142.70515,135.828121 C142.617431,135.676133 142.571252,135.503738 142.571252,135.328253 L142.571252,68.6282926 C142.571252,64.3410576 140.284014,60.3794967 136.571136,58.2359207 L80.2720763,25.7324822 C79.3154849,25.1802082 78.987721,23.957031 79.539995,23.0004396 C79.7156071,22.6962627 79.9682265,22.4436964 80.2724403,22.2681482 L102.856719,9.23577053 C107.806597,6.37941724 113.90415,6.38004492 118.85344,9.23741723 Z M75.2778335,32.0828263 L130.562623,64.0015147 C133.038208,65.430794 134.563057,68.0723739 134.562623,70.9309325 L134.557705,103.327927 C134.557621,103.880212 134.109838,104.327859 133.557553,104.327775 C133.382068,104.327749 133.209679,104.281543 133.057705,104.193801 L75.2938448,70.8438205 C71.5809904,68.700203 67.0065592,68.7002286 63.2937287,70.8438875 L6.99539565,103.348584 C6.03881657,103.900879 4.8156321,103.573143 4.26333666,102.616563 C4.08771778,102.312391 3.99529864,101.967333 3.99537635,101.616102 L4.00114554,75.5413537 C4.00240999,69.826457 7.05173021,64.5461348 12.0009321,61.6886103 L63.2776737,32.0829185 C66.9905107,29.9392349 71.5649635,29.9391998 75.2778335,32.0828263 Z" id="Vortex"></path>
                </g>
            </g>
            <g id="Row" transform="translate(-0.000000, 384.000000)">
                <g id="Vortex" transform="translate(443.400000, 0.000000)">
                    <path d="M78.997353,120.171879 C79.0850725,120.323867 79.1312517,120.496262 79.1312517,120.671747 L79.1312517,187.371707 C79.1312517,191.658942 81.4184894,195.620503 85.1313678,197.764079 L141.430427,230.267518 C142.387018,230.819792 142.714782,232.042969 142.162508,232.99956 C141.986896,233.303737 141.734277,233.556304 141.430063,233.731852 L118.845784,246.764229 C113.895906,249.620583 107.798353,249.619955 102.849063,246.762583 L51.5714115,217.158468 C47.8585085,215.014898 45.5712517,211.053324 45.5712517,206.766071 L45.5712517,142.928694 C45.5712517,140.070135 47.0965022,137.428787 49.5723036,135.999884 L77.6313832,119.805646 C78.1097177,119.529576 78.7212832,119.693544 78.997353,120.171879 Z M88.1449504,151.672225 C88.3204356,151.672251 88.492824,151.718457 88.6447986,151.806199 L146.408659,185.15618 C150.121513,187.299797 154.695944,187.299771 158.408775,185.156112 L214.707108,152.651416 C215.663687,152.099121 216.886871,152.426857 217.439167,153.383437 C217.614786,153.687609 217.707205,154.032667 217.707127,154.383898 L217.701358,180.458646 C217.700093,186.173543 214.650773,191.453865 209.701571,194.31139 L158.42483,223.917081 C154.711993,226.060765 150.13754,226.0608 146.42467,223.917174 L91.1398799,191.998485 C88.6642955,190.569206 87.139446,187.927626 87.13988,185.069068 L87.1447986,152.672073 C87.1448825,152.119788 87.5926657,151.672141 88.1449504,151.672225 Z M73.2836753,78.930816 L101.337836,95.1335729 C101.816087,95.4097879 101.979869,96.0214032 101.703654,96.4996539 C101.615889,96.6516152 101.489679,96.7778052 101.337705,96.8655478 L43.5738448,130.215528 C39.8609904,132.359145 37.5737969,136.320732 37.5738448,140.607967 L37.574571,205.616102 C37.5745833,206.720671 36.6791628,207.616112 35.5745933,207.616124 C35.2233624,207.616128 34.8783239,207.523636 34.5741878,207.347953 L11.9956783,194.305583 C7.04706479,191.44704 3.99883175,186.16609 3.99874388,180.451193 L3.99783347,121.241386 C3.99776755,116.954133 6.28496346,112.992524 9.99783347,110.848897 L65.2826235,78.9302086 C67.7582079,77.5009293 70.8083079,77.5011608 73.2836753,78.930816 Z M186.12791,48.3838761 C186.479141,48.3838722 186.82418,48.4763638 187.128316,48.6520466 L209.706825,61.6944168 C214.655439,64.5529602 217.703672,69.8339101 217.703759,75.5488069 L217.70467,134.758614 C217.704736,139.045867 215.41754,143.007476 211.70467,145.151103 L156.41988,177.069791 C153.944295,178.499071 150.894195,178.498839 148.418828,177.069184 L120.364667,160.866427 C119.886416,160.590212 119.722634,159.978597 119.998849,159.500346 C120.086615,159.348385 120.212824,159.222195 120.364799,159.134452 L178.128659,125.784472 C181.841513,123.640855 184.128706,119.679268 184.128659,115.392033 L184.127932,50.3838984 C184.12792,49.2793289 185.023341,48.3838884 186.12791,48.3838761 Z M118.85344,9.23741723 L170.131092,38.8415322 C173.843995,40.9851016 176.131252,44.9466763 176.131252,49.2339293 L176.131252,113.071306 C176.131252,115.929865 174.606001,118.571213 172.1302,120.000116 L144.07112,136.194354 C143.592786,136.470424 142.98122,136.306456 142.70515,135.828121 C142.617431,135.676133 142.571252,135.503738 142.571252,135.328253 L142.571252,68.6282926 C142.571252,64.3410576 140.284014,60.3794967 136.571136,58.2359207 L80.2720763,25.7324822 C79.3154849,25.1802082 78.987721,23.957031 79.539995,23.0004396 C79.7156071,22.6962627 79.9682265,22.4436964 80.2724403,22.2681482 L102.856719,9.23577053 C107.806597,6.37941724 113.90415,6.38004492 118.85344,9.23741723 Z M75.2778335,32.0828263 L130.562623,64.0015147 C133.038208,65.430794 134.563057,68.0723739 134.562623,70.9309325 L134.557705,103.327927 C134.557621,103.880212 134.109838,104.327859 133.557553,104.327775 C133.382068,104.327749 133.209679,104.281543 133.057705,104.193801 L75.2938448,70.8438205 C71.5809904,68.700203 67.0065592,68.7002286 63.2937287,70.8438875 L6.99539565,103.348584 C6.03881657,103.900879 4.8156321,103.573143 4.26333666,102.616563 C4.08771778,102.312391 3.99529864,101.967333 3.99537635,101.616102 L4.00114554,75.5413537 C4.00240999,69.826457 7.05173021,64.5461348 12.0009321,61.6886103 L63.2776737,32.0829185 C66.9905107,29.9392349 71.5649635,29.9391998 75.2778335,32.0828263 Z"></path>
                </g>
                <g id="Group" transform="translate(221.700000, 0.000000)">
                    <g id="Logo/0-–-Vortex" transform="translate(110.851252, 128.000000) scale(-1, 1) translate(-110.851252, -128.000000) ">
                        <path d="M78.997353,120.171879 C79.0850725,120.323867 79.1312517,120.496262 79.1312517,120.671747 L79.1312517,187.371707 C79.1312517,191.658942 81.4184894,195.620503 85.1313678,197.764079 L141.430427,230.267518 C142.387018,230.819792 142.714782,232.042969 142.162508,232.99956 C141.986896,233.303737 141.734277,233.556304 141.430063,233.731852 L118.845784,246.764229 C113.895906,249.620583 107.798353,249.619955 102.849063,246.762583 L51.5714115,217.158468 C47.8585085,215.014898 45.5712517,211.053324 45.5712517,206.766071 L45.5712517,142.928694 C45.5712517,140.070135 47.0965022,137.428787 49.5723036,135.999884 L77.6313832,119.805646 C78.1097177,119.529576 78.7212832,119.693544 78.997353,120.171879 Z M88.1449504,151.672225 C88.3204356,151.672251 88.492824,151.718457 88.6447986,151.806199 L146.408659,185.15618 C150.121513,187.299797 154.695944,187.299771 158.408775,185.156112 L214.707108,152.651416 C215.663687,152.099121 216.886871,152.426857 217.439167,153.383437 C217.614786,153.687609 217.707205,154.032667 217.707127,154.383898 L217.701358,180.458646 C217.700093,186.173543 214.650773,191.453865 209.701571,194.31139 L158.42483,223.917081 C154.711993,226.060765 150.13754,226.0608 146.42467,223.917174 L91.1398799,191.998485 C88.6642955,190.569206 87.139446,187.927626 87.13988,185.069068 L87.1447986,152.672073 C87.1448825,152.119788 87.5926657,151.672141 88.1449504,151.672225 Z M73.2836753,78.930816 L101.337836,95.1335729 C101.816087,95.4097879 101.979869,96.0214032 101.703654,96.4996539 C101.615889,96.6516152 101.489679,96.7778052 101.337705,96.8655478 L43.5738448,130.215528 C39.8609904,132.359145 37.5737969,136.320732 37.5738448,140.607967 L37.574571,205.616102 C37.5745833,206.720671 36.6791628,207.616112 35.5745933,207.616124 C35.2233624,207.616128 34.8783239,207.523636 34.5741878,207.347953 L11.9956783,194.305583 C7.04706479,191.44704 3.99883175,186.16609 3.99874388,180.451193 L3.99783347,121.241386 C3.99776755,116.954133 6.28496346,112.992524 9.99783347,110.848897 L65.2826235,78.9302086 C67.7582079,77.5009293 70.8083079,77.5011608 73.2836753,78.930816 Z M186.12791,48.3838761 C186.479141,48.3838722 186.82418,48.4763638 187.128316,48.6520466 L209.706825,61.6944168 C214.655439,64.5529602 217.703672,69.8339101 217.703759,75.5488069 L217.70467,134.758614 C217.704736,139.045867 215.41754,143.007476 211.70467,145.151103 L156.41988,177.069791 C153.944295,178.499071 150.894195,178.498839 148.418828,177.069184 L120.364667,160.866427 C119.886416,160.590212 119.722634,159.978597 119.998849,159.500346 C120.086615,159.348385 120.212824,159.222195 120.364799,159.134452 L178.128659,125.784472 C181.841513,123.640855 184.128706,119.679268 184.128659,115.392033 L184.127932,50.3838984 C184.12792,49.2793289 185.023341,48.3838884 186.12791,48.3838761 Z M118.85344,9.23741723 L170.131092,38.8415322 C173.843995,40.9851016 176.131252,44.9466763 176.131252,49.2339293 L176.131252,113.071306 C176.131252,115.929865 174.606001,118.571213 172.1302,120.000116 L144.07112,136.194354 C143.592786,136.470424 142.98122,136.306456 142.70515,135.828121 C142.617431,135.676133 142.571252,135.503738 142.571252,135.328253 L142.571252,68.6282926 C142.571252,64.3410576 140.284014,60.3794967 136.571136,58.2359207 L80.2720763,25.7324822 C79.3154849,25.1802082 78.987721,23.957031 79.539995,23.0004396 C79.7156071,22.6962627 79.9682265,22.4436964 80.2724403,22.2681482 L102.856719,9.23577053 C107.806597,6.37941724 113.90415,6.38004492 118.85344,9.23741723 Z M75.2778335,32.0828263 L130.562623,64.0015147 C133.038208,65.430794 134.563057,68.0723739 134.562623,70.9309325 L134.557705,103.327927 C134.557621,103.880212 134.109838,104.327859 133.557553,104.327775 C133.382068,104.327749 133.209679,104.281543 133.057705,104.193801 L75.2938448,70.8438205 C71.5809904,68.700203 67.0065592,68.7002286 63.2937287,70.8438875 L6.99539565,103.348584 C6.03881657,103.900879 4.8156321,103.573143 4.26333666,102.616563 C4.08771778,102.312391 3.99529864,101.967333 3.99537635,101.616102 L4.00114554,75.5413537 C4.00240999,69.826457 7.05173021,64.5461348 12.0009321,61.6886103 L63.2776737,32.0829185 C66.9905107,29.9392349 71.5649635,29.9391998 75.2778335,32.0828263 Z" id="Vortex"></path>
                    </g>
                </g>
                <g id="Logo/0-–-Vortex" transform="translate(110.851252, 128.000000) scale(-1, 1) translate(-110.851252, -128.000000) ">
                    <path d="M78.997353,120.171879 C79.0850725,120.323867 79.1312517,120.496262 79.1312517,120.671747 L79.1312517,187.371707 C79.1312517,191.658942 81.4184894,195.620503 85.1313678,197.764079 L141.430427,230.267518 C142.387018,230.819792 142.714782,232.042969 142.162508,232.99956 C141.986896,233.303737 141.734277,233.556304 141.430063,233.731852 L118.845784,246.764229 C113.895906,249.620583 107.798353,249.619955 102.849063,246.762583 L51.5714115,217.158468 C47.8585085,215.014898 45.5712517,211.053324 45.5712517,206.766071 L45.5712517,142.928694 C45.5712517,140.070135 47.0965022,137.428787 49.5723036,135.999884 L77.6313832,119.805646 C78.1097177,119.529576 78.7212832,119.693544 78.997353,120.171879 Z M88.1449504,151.672225 C88.3204356,151.672251 88.492824,151.718457 88.6447986,151.806199 L146.408659,185.15618 C150.121513,187.299797 154.695944,187.299771 158.408775,185.156112 L214.707108,152.651416 C215.663687,152.099121 216.886871,152.426857 217.439167,153.383437 C217.614786,153.687609 217.707205,154.032667 217.707127,154.383898 L217.701358,180.458646 C217.700093,186.173543 214.650773,191.453865 209.701571,194.31139 L158.42483,223.917081 C154.711993,226.060765 150.13754,226.0608 146.42467,223.917174 L91.1398799,191.998485 C88.6642955,190.569206 87.139446,187.927626 87.13988,185.069068 L87.1447986,152.672073 C87.1448825,152.119788 87.5926657,151.672141 88.1449504,151.672225 Z M73.2836753,78.930816 L101.337836,95.1335729 C101.816087,95.4097879 101.979869,96.0214032 101.703654,96.4996539 C101.615889,96.6516152 101.489679,96.7778052 101.337705,96.8655478 L43.5738448,130.215528 C39.8609904,132.359145 37.5737969,136.320732 37.5738448,140.607967 L37.574571,205.616102 C37.5745833,206.720671 36.6791628,207.616112 35.5745933,207.616124 C35.2233624,207.616128 34.8783239,207.523636 34.5741878,207.347953 L11.9956783,194.305583 C7.04706479,191.44704 3.99883175,186.16609 3.99874388,180.451193 L3.99783347,121.241386 C3.99776755,116.954133 6.28496346,112.992524 9.99783347,110.848897 L65.2826235,78.9302086 C67.7582079,77.5009293 70.8083079,77.5011608 73.2836753,78.930816 Z M186.12791,48.3838761 C186.479141,48.3838722 186.82418,48.4763638 187.128316,48.6520466 L209.706825,61.6944168 C214.655439,64.5529602 217.703672,69.8339101 217.703759,75.5488069 L217.70467,134.758614 C217.704736,139.045867 215.41754,143.007476 211.70467,145.151103 L156.41988,177.069791 C153.944295,178.499071 150.894195,178.498839 148.418828,177.069184 L120.364667,160.866427 C119.886416,160.590212 119.722634,159.978597 119.998849,159.500346 C120.086615,159.348385 120.212824,159.222195 120.364799,159.134452 L178.128659,125.784472 C181.841513,123.640855 184.128706,119.679268 184.128659,115.392033 L184.127932,50.3838984 C184.12792,49.2793289 185.023341,48.3838884 186.12791,48.3838761 Z M118.85344,9.23741723 L170.131092,38.8415322 C173.843995,40.9851016 176.131252,44.9466763 176.131252,49.2339293 L176.131252,113.071306 C176.131252,115.929865 174.606001,118.571213 172.1302,120.000116 L144.07112,136.194354 C143.592786,136.470424 142.98122,136.306456 142.70515,135.828121 C142.617431,135.676133 142.571252,135.503738 142.571252,135.328253 L142.571252,68.6282926 C142.571252,64.3410576 140.284014,60.3794967 136.571136,58.2359207 L80.2720763,25.7324822 C79.3154849,25.1802082 78.987721,23.957031 79.539995,23.0004396 C79.7156071,22.6962627 79.9682265,22.4436964 80.2724403,22.2681482 L102.856719,9.23577053 C107.806597,6.37941724 113.90415,6.38004492 118.85344,9.23741723 Z M75.2778335,32.0828263 L130.562623,64.0015147 C133.038208,65.430794 134.563057,68.0723739 134.562623,70.9309325 L134.557705,103.327927 C134.557621,103.880212 134.109838,104.327859 133.557553,104.327775 C133.382068,104.327749 133.209679,104.281543 133.057705,104.193801 L75.2938448,70.8438205 C71.5809904,68.700203 67.0065592,68.7002286 63.2937287,70.8438875 L6.99539565,103.348584 C6.03881657,103.900879 4.8156321,103.573143 4.26333666,102.616563 C4.08771778,102.312391 3.99529864,101.967333 3.99537635,101.616102 L4.00114554,75.5413537 C4.00240999,69.826457 7.05173021,64.5461348 12.0009321,61.6886103 L63.2776737,32.0829185 C66.9905107,29.9392349 71.5649635,29.9391998 75.2778335,32.0828263 Z" id="Vortex"></path>
                </g>
            </g>
        </g>
        <rect id="BG" fill="url(#linearGradient-1)" opacity="0.97" x="0" y="0" width="2048" height="512"></rect>
        <g id="Group" transform="translate(808.000000, 128.000000)">
            <path d="M344.894427,82.6832816 C345.281482,82.876809 345.595327,83.190654 345.788854,83.5777088 L360.844582,113.689165 C365.349022,122.698045 365.349022,133.301955 360.844582,142.310835 L306.211146,251.577709 C304.85601,254.287981 302.085905,256 299.055728,256 L260.854102,256 C259.197248,256 257.854102,254.656854 257.854102,253 C257.854102,252.534265 257.962537,252.074926 258.17082,251.658359 L342.211146,83.5777088 C342.705124,82.5897518 343.90647,82.1893031 344.894427,82.6832816 Z M235.055728,0 C238.085905,8.32514981e-15 240.85601,1.71201901 242.211146,4.42229124 L302.211146,124.422291 C303.337256,126.674511 303.337256,129.325489 302.211146,131.577709 L242.211146,251.577709 C240.85601,254.287981 238.085905,256 235.055728,256 L196.944272,256 C193.914095,256 191.14399,254.287981 189.788854,251.577709 L161.788854,195.577709 C160.662744,193.325489 160.662744,190.674511 161.788854,188.422291 L183.105573,145.788854 C183.352562,145.294876 183.953235,145.094652 184.447214,145.341641 C184.640741,145.438404 184.797663,145.595327 184.894427,145.788854 L214.211146,204.422291 C214.705124,205.410248 215.90647,205.810697 216.894427,205.316718 C217.281482,205.123191 217.595327,204.809346 217.788854,204.422291 L254.211146,131.577709 C255.337256,129.325489 255.337256,126.674511 254.211146,124.422291 L217.788854,51.5777088 C217.294876,50.5897518 216.09353,50.1893031 215.105573,50.6832816 C214.718518,50.876809 214.404673,51.190654 214.211146,51.5777088 L152.894427,174.211146 C152.647438,174.705124 152.046765,174.905348 151.552786,174.658359 C151.359259,174.561596 151.202337,174.404673 151.105573,174.211146 L129.788854,131.577709 C128.662744,129.325489 128.662744,126.674511 129.788854,124.422291 L189.788854,4.42229124 C191.14399,1.71201901 193.914095,5.56634387e-16 196.944272,0 L235.055728,0 Z M216.447214,81.3416408 C216.640741,81.4384045 216.797663,81.595327 216.894427,81.7888544 L238.211146,124.422291 C239.337256,126.674511 239.337256,129.325489 238.211146,131.577709 L216.894427,174.211146 C216.647438,174.705124 216.046765,174.905348 215.552786,174.658359 C215.359259,174.561596 215.202337,174.404673 215.105573,174.211146 L193.788854,131.577709 C192.662744,129.325489 192.662744,126.674511 193.788854,124.422291 L215.105573,81.7888544 C215.352562,81.2948759 215.953235,81.0946515 216.447214,81.3416408 Z M299.055728,0 C302.085905,3.9110598e-15 304.85601,1.71201901 306.211146,4.42229124 L334.211146,60.4222912 C335.337256,62.6745112 335.337256,65.3254888 334.211146,67.5777088 L312.894427,110.211146 C312.647438,110.705124 312.046765,110.905348 311.552786,110.658359 C311.359259,110.561596 311.202337,110.404673 311.105573,110.211146 L258.17082,4.34164079 C257.429853,2.85970529 258.030526,1.05768617 259.512461,0.316718427 C259.929027,0.108435275 260.388367,-8.02624236e-16 260.854102,0 L299.055728,0 Z" id="Shadow" fill="#585A5B" opacity="0.35"></path>
            <path d="M216.447214,81.3416408 C216.640741,81.4384045 216.797663,81.595327 216.894427,81.7888544 L301.82918,251.658359 C302.570147,253.140295 301.969474,254.942314 300.487539,255.683282 C300.070973,255.891565 299.611633,256 299.145898,256 L260.944272,256 C257.914095,256 255.14399,254.287981 253.788854,251.577709 L193.788854,131.577709 C192.662744,129.325489 192.662744,126.674511 193.788854,124.422291 L215.105573,81.7888544 C215.352562,81.2948759 215.953235,81.0946515 216.447214,81.3416408 Z M184.447214,145.341641 C184.640741,145.438404 184.797663,145.595327 184.894427,145.788854 L237.82918,251.658359 C238.570147,253.140295 237.969474,254.942314 236.487539,255.683282 C236.070973,255.891565 235.611633,256 235.145898,256 L196.944272,256 C193.914095,256 191.14399,254.287981 189.788854,251.577709 L161.788854,195.577709 C160.662744,193.325489 160.662744,190.674511 161.788854,188.422291 L183.105573,145.788854 C183.352562,145.294876 183.953235,145.094652 184.447214,145.341641 Z M88.8944272,210.683282 C89.281482,210.876809 89.595327,211.190654 89.7888544,211.577709 L109.82918,251.658359 C110.570147,253.140295 109.969474,254.942314 108.487539,255.683282 C108.070973,255.891565 107.611633,256 107.145898,256 L68.854102,256 C67.1972477,256 65.854102,254.656854 65.854102,253 C65.854102,252.534265 65.9625372,252.074926 66.1708204,251.658359 L86.2111456,211.577709 C86.7051241,210.589752 87.9064702,210.189303 88.8944272,210.683282 Z M344.894427,82.6832816 C345.281482,82.876809 345.595327,83.190654 345.788854,83.5777088 L360.844582,113.689165 C365.349022,122.698045 365.349022,133.301955 360.844582,142.310835 L345.788854,172.422291 C345.294876,173.410248 344.09353,173.810697 343.105573,173.316718 C342.718518,173.123191 342.404673,172.809346 342.211146,172.422291 L321.788854,131.577709 C320.662744,129.325489 320.662744,126.674511 321.788854,124.422291 L342.211146,83.5777088 C342.705124,82.5897518 343.90647,82.1893031 344.894427,82.6832816 Z M363.145898,0 C364.802752,-2.96889445e-15 366.145898,1.34314575 366.145898,3 C366.145898,3.46573529 366.037463,3.92507448 365.82918,4.34164079 L312.894427,110.211146 C312.647438,110.705124 312.046765,110.905348 311.552786,110.658359 C311.359259,110.561596 311.202337,110.404673 311.105573,110.211146 L289.788854,67.5777088 C288.662744,65.3254888 288.662744,62.6745112 289.788854,60.4222912 L317.788854,4.42229124 C319.14399,1.71201901 321.914095,5.56634387e-16 324.944272,0 L363.145898,0 Z M299.145898,0 C300.802752,-3.04359188e-16 302.145898,1.34314575 302.145898,3 C302.145898,3.46573529 302.037463,3.92507448 301.82918,4.34164079 L280.894427,46.2111456 C280.647438,46.7051241 280.046765,46.9053485 279.552786,46.6583592 C279.359259,46.5615955 279.202337,46.404673 279.105573,46.2111456 L258.17082,4.34164079 C257.429853,2.85970529 258.030526,1.05768617 259.512461,0.316718427 C259.929027,0.108435275 260.388367,9.73732604e-16 260.854102,0 L299.145898,0 Z M107.145898,0 C108.802752,-3.04359188e-16 110.145898,1.34314575 110.145898,3 C110.145898,3.46573529 110.037463,3.92507448 109.82918,4.34164079 L89.7888544,44.4222912 C89.2948759,45.4102482 88.0935298,45.8106969 87.1055728,45.3167184 C86.718518,45.123191 86.404673,44.809346 86.2111456,44.4222912 L66.1708204,4.34164079 C65.4298526,2.85970529 66.0305257,1.05768617 67.5124612,0.316718427 C67.9290275,0.108435275 68.3883667,9.73732604e-16 68.854102,0 L107.145898,0 Z" id="Fill" fill="#585A5B"></path>
            <path d="M416,0 C424.836556,-1.623249e-15 432,7.163444 432,16 L432,240 C432,248.836556 424.836556,256 416,256 L388,256 C385.790861,256 384,254.209139 384,252 L384,4 C384,1.790861 385.790861,4.05812251e-16 388,0 L416,0 Z M235.055728,0 C238.085905,8.32514981e-15 240.85601,1.71201901 242.211146,4.42229124 L365.82918,251.658359 C366.570147,253.140295 365.969474,254.942314 364.487539,255.683282 C364.070973,255.891565 363.611633,256 363.145898,256 L324.944272,256 C321.914095,256 319.14399,254.287981 317.788854,251.577709 L217.788854,51.5777088 C217.294876,50.5897518 216.09353,50.1893031 215.105573,50.6832816 C214.718518,50.876809 214.404673,51.190654 214.211146,51.5777088 L152.894427,174.211146 C152.647438,174.705124 152.046765,174.905348 151.552786,174.658359 C151.359259,174.561596 151.202337,174.404673 151.105573,174.211146 L129.788854,131.577709 C128.662744,129.325489 128.662744,126.674511 129.788854,124.422291 L189.788854,4.42229124 C191.14399,1.71201901 193.914095,5.56634387e-16 196.944272,0 L235.055728,0 Z M171.145898,0 C172.802752,-3.04359188e-16 174.145898,1.34314575 174.145898,3 C174.145898,3.46573529 174.037463,3.92507448 173.82918,4.34164079 L114.683282,122.633437 C112.994117,126.011767 112.994117,129.988233 114.683282,133.366563 L173.82918,251.658359 C174.570147,253.140295 173.969474,254.942314 172.487539,255.683282 C172.070973,255.891565 171.611633,256 171.145898,256 L132.944272,256 C129.914095,256 127.14399,254.287981 125.788854,251.577709 L71.1554175,142.310835 C66.6509777,133.301955 66.6509777,122.698045 71.1554175,113.689165 L125.788854,4.42229124 C127.14399,1.71201901 129.914095,5.56634387e-16 132.944272,0 L171.145898,0 Z M44,0 C46.209139,-4.05812251e-16 48,1.790861 48,4 L48,252 C48,254.209139 46.209139,256 44,256 L16,256 C7.163444,256 1.082166e-15,248.836556 0,240 L0,16 C-1.082166e-15,7.163444 7.163444,1.623249e-15 16,0 L44,0 Z" id="Main" fill="#FFFFFF"></path>
        </g>
    </g>
</svg>