<?xml version="1.0" encoding="UTF-8"?>
<svg width="2048px" height="512px" viewBox="0 0 2048 512" version="1.1" xmlns="http://www.w3.org/2000/svg" xmlns:xlink="http://www.w3.org/1999/xlink">
    <!-- Generator: Sketch 64 (93537) - https://sketch.com -->
    <title>Banner</title>
    <desc>Created with Sketch.</desc>
    <g id="Banner" stroke="none" stroke-width="1" fill="none" fill-rule="evenodd">
        <rect id="BG" fill="#003B6F" x="0" y="0" width="2048" height="512"></rect>
        <g id="Logo" transform="translate(808.000000, 128.000000)" fill="#FFFFFF">
            <path d="M88.8944272,210.683282 C89.281482,210.876809 89.595327,211.190654 89.7888544,211.577709 L110.552786,253.105573 C111.046765,254.09353 110.646316,255.294876 109.658359,255.788854 C109.380648,255.92771 109.074422,256 108.763932,256 L67.236068,256 C66.1314985,256 65.236068,255.104569 65.236068,254 C65.236068,253.68951 65.3083582,253.383284 65.4472136,253.105573 L86.2111456,211.577709 C86.7051241,210.589752 87.9064702,210.189303 88.8944272,210.683282 Z M216.894427,82.6832816 C217.281482,82.876809 217.595327,83.190654 217.788854,83.5777088 L302.552786,253.105573 C303.046765,254.09353 302.646316,255.294876 301.658359,255.788854 C301.380648,255.92771 301.074422,256 300.763932,256 L260.944272,256 C257.914095,256 255.14399,254.287981 253.788854,251.577709 L193.788854,131.577709 C192.662744,129.325489 192.662744,126.674511 193.788854,124.422291 L214.211146,83.5777088 C214.705124,82.5897518 215.90647,82.1893031 216.894427,82.6832816 Z M184.894427,146.683282 C185.281482,146.876809 185.595327,147.190654 185.788854,147.577709 L238.552786,253.105573 C239.046765,254.09353 238.646316,255.294876 237.658359,255.788854 C237.380648,255.92771 237.074422,256 236.763932,256 L196.944272,256 C193.914095,256 191.14399,254.287981 189.788854,251.577709 L161.788854,195.577709 C160.662744,193.325489 160.662744,190.674511 161.788854,188.422291 L182.211146,147.577709 C182.705124,146.589752 183.90647,146.189303 184.894427,146.683282 Z M364.763932,0 C365.868502,0 366.763932,0.8954305 366.763932,2 C366.763932,2.31049019 366.691642,2.61671632 366.552786,2.89442719 L313.788854,108.422291 C313.294876,109.410248 312.09353,109.810697 311.105573,109.316718 C310.718518,109.123191 310.404673,108.809346 310.211146,108.422291 L289.788854,67.5777088 C288.662744,65.3254888 288.662744,62.6745112 289.788854,60.4222912 L317.788854,4.42229124 C319.14399,1.71201901 321.914095,0 324.944272,0 L364.763932,0 Z M300.763932,0 C301.868502,0 302.763932,0.8954305 302.763932,2 C302.763932,2.31049019 302.691642,2.61671632 302.552786,2.89442719 L281.788854,44.4222912 C281.294876,45.4102482 280.09353,45.8106969 279.105573,45.3167184 C278.718518,45.123191 278.404673,44.809346 278.211146,44.4222912 L257.447214,2.89442719 C256.953235,1.9064702 257.353684,0.705124115 258.341641,0.211145618 C258.619352,0.0722901835 258.925578,0 259.236068,0 L300.763932,0 Z" id="Aesthetic" opacity="0.25"></path>
            <path d="M235.055728,0 C238.085905,0 240.85601,1.71201901 242.211146,4.42229124 L366.552786,253.105573 C367.046765,254.09353 366.646316,255.294876 365.658359,255.788854 C365.380648,255.92771 365.074422,256 364.763932,256 L324.944272,256 C321.914095,256 319.14399,254.287981 317.788854,251.577709 L217.788854,51.5777088 C217.294876,50.5897518 216.09353,50.1893031 215.105573,50.6832816 C214.718518,50.876809 214.404673,51.190654 214.211146,51.5777088 L153.788854,172.422291 C153.294876,173.410248 152.09353,173.810697 151.105573,173.316718 C150.718518,173.123191 150.404673,172.809346 150.211146,172.422291 L129.788854,131.577709 C128.662744,129.325489 128.662744,126.674511 129.788854,124.422291 L189.788854,4.42229124 C191.14399,1.71201901 193.914095,0 196.944272,0 L235.055728,0 Z M4.85551601,0 L42.8722296,0 C44.6552671,0 45.3018396,0.185651222 45.9536914,0.534265408 C46.6055433,0.882879593 47.1171204,1.39445674 47.4657346,2.04630859 C47.8143488,2.69816044 48,3.34473292 48,5.1277704 L48,250.87223 C48,252.655267 47.8143488,253.30184 47.4657346,253.953691 C47.1171204,254.605543 46.6055433,255.11712 45.9536914,255.465735 C45.3018396,255.814349 44.6552671,256 42.8722296,256 L5.1277704,256 C3.34473292,256 2.69816044,255.814349 2.04630859,255.465735 C1.39445674,255.11712 0.882879593,254.605543 0.534265408,253.953691 C0.203999337,253.336148 0.0199936549,252.723342 0.00153950013,251.144484 L0,5.1277704 C0,3.34473292 0.185651222,2.69816044 0.534265408,2.04630859 C0.882879593,1.39445674 1.39445674,0.882879593 2.04630859,0.534265408 C2.66385245,0.203999337 3.27665804,0.0199936549 4.85551601,0 L4.85551601,0 Z M172.763932,0 C173.868502,0 174.76437,0.8954305 174.76437,2 C174.76437,2.31049019 174.691642,2.61671632 174.552786,2.89442719 L114.570948,122.858103 C113.531357,124.937287 113.262619,125.721613 113.085817,126.640085 C112.909016,127.558556 112.909016,128.441444 113.085817,129.359915 L113.134471,129.597413 C113.306579,130.385193 113.592844,131.1655 114.439665,132.877925 L174.552786,253.105573 C175.046765,254.09353 174.646316,255.294876 173.658359,255.788854 C173.380648,255.92771 173.074422,256 172.763932,256 L134.829652,256 C132.17047,256 131.213866,255.833627 130.184531,255.476964 C129.155196,255.120301 128.270207,254.573348 127.490866,253.812187 L127.299782,253.620567 C126.642468,252.942044 126.088347,252.147544 125.091208,250.180474 L66.5709485,133.141897 C65.5313566,131.062713 65.2626185,130.278387 65.0858172,129.359915 C64.9090158,128.441444 64.9090158,127.558556 65.0858172,126.640085 L65.1344712,126.402587 C65.306579,125.614807 65.592844,124.8345 66.4396653,123.122075 L124.945687,6.10862672 C126.134909,3.73018207 126.711524,2.9489731 127.490866,2.18781266 C128.270207,1.42665221 129.155196,0.879699049 130.184531,0.523035996 L130.441377,0.437820769 C131.342226,0.153345908 132.300659,0.0130359488 134.505994,0 L172.763932,0 Z M388.855516,0 L426.87223,0 C428.655267,0 429.30184,0.185651222 429.953691,0.534265408 C430.605543,0.882879593 431.11712,1.39445674 431.465735,2.04630859 C431.814349,2.69816044 432,3.34473292 432,5.1277704 L432,250.87223 C432,252.655267 431.814349,253.30184 431.465735,253.953691 C431.11712,254.605543 430.605543,255.11712 429.953691,255.465735 C429.30184,255.814349 428.655267,256 426.87223,256 L389.12777,256 C387.344733,256 386.69816,255.814349 386.046309,255.465735 C385.394457,255.11712 384.88288,254.605543 384.534265,253.953691 C384.203999,253.336148 384.019994,252.723342 384.00154,251.144484 L384,5.1277704 C384,3.34473292 384.185651,2.69816044 384.534265,2.04630859 C384.88288,1.39445674 385.394457,0.882879593 386.046309,0.534265408 C386.663852,0.203999337 387.276658,0.0199936549 388.855516,0 L388.855516,0 Z" id="KAI"></path>
        </g>
        <g id="Aesthetic" transform="translate(-194.500000, -133.000000)" fill="#002F59">
            <g id="LHS">
                <path d="M573.762365,356.99984 L532.193496,429.000101 C529.335423,433.950488 529.335427,440.049591 532.193507,444.999974 L572.030334,514.000007 C572.582615,514.956594 572.25486,516.179774 571.298273,516.732055 C570.994236,516.907589 570.64935,517 570.298279,517 L533.733189,517 C528.016939,517 522.734907,513.950417 519.876782,509 L482.926382,445.000029 C480.068261,440.049618 480.068257,433.950461 482.926371,429.000047 L521.031486,362.999854 C523.175077,359.287033 527.136606,356.99984 531.423798,356.99984 L573.762365,356.99984 Z M558.366366,394.332444 L599.93598,466.332261 C602.794108,471.282624 608.076096,474.332173 613.7923,474.332189 L693.466259,474.332413 C694.570828,474.332416 695.466256,475.227849 695.466253,476.332418 C695.466252,476.683486 695.373841,477.028369 695.198309,477.332404 L676.915967,508.998735 C674.057853,513.949193 668.775798,516.998808 663.059518,516.998808 L589.158787,516.998808 C583.442537,516.998808 578.160505,513.949225 575.30238,508.998808 L537.197266,442.998815 C535.053683,439.28602 535.053672,434.711671 537.197237,430.998866 L558.366366,394.332444 Z M722.563752,348.601863 C722.867785,348.777398 723.120257,349.029869 723.295792,349.333902 L741.578469,381.000041 C744.436634,385.950469 744.43665,392.04967 741.578511,397.000114 L704.628145,461.000024 C701.77002,465.950442 696.487988,469.000024 690.771739,469.000024 L614.561511,469.000024 C610.274345,469.000024 606.312836,466.712859 604.169235,463.000075 L582.999748,426.333861 L666.138225,426.333428 C671.854429,426.333398 677.13641,423.283836 679.994526,418.333466 L719.831699,349.333906 C720.383986,348.377322 721.607168,348.049576 722.563752,348.601863 Z M582.230393,308.999696 C586.517559,308.999696 590.479067,311.286861 592.622669,314.999645 L613.792156,351.665859 L530.653679,351.666293 C524.937475,351.666322 519.655494,354.715884 516.797378,359.666254 L476.960205,428.665814 C476.407917,429.622398 475.184736,429.950145 474.228152,429.397857 C473.924119,429.222322 473.671647,428.969851 473.496111,428.665818 L455.213435,396.99968 C452.355269,392.049251 452.355253,385.95005 455.213393,380.999607 L492.163759,316.999696 C495.021884,312.049279 500.303916,308.999696 506.020165,308.999696 L582.230393,308.999696 Z M663.05922,261.000205 C668.775469,261.000205 674.057501,264.049788 676.915626,269.000205 L713.866027,333.000176 C716.724148,337.950587 716.724152,344.049744 713.866037,349.000158 L675.760923,415.000351 C673.617331,418.713172 669.655803,421.000365 665.36861,421.000365 L623.030043,421.000365 L664.598912,349.000104 C667.456985,344.049717 667.456981,337.950614 664.598902,333.000231 L624.762074,264.000198 C624.209793,263.043611 624.537548,261.820431 625.494136,261.26815 C625.798173,261.092616 626.143058,261.000205 626.494129,261.000205 L663.05922,261.000205 Z M607.633827,261 C613.350076,261 618.632108,264.049583 621.490233,269 L659.595347,334.999993 C661.73893,338.712788 661.738941,343.287137 659.595376,346.999942 L638.426247,383.666364 L596.856633,311.666547 C593.998506,306.716184 588.716517,303.666635 583.000313,303.666619 L503.326355,303.666395 C502.221785,303.666392 501.326357,302.770959 501.32636,301.66639 C501.326361,301.315322 501.418772,300.970439 501.594304,300.666404 L519.876647,269.000073 C522.73476,264.049615 528.016816,261 533.733095,261 L607.633827,261 Z" id="Vortex" transform="translate(598.395952, 389.000000) rotate(-360.000000) translate(-598.395952, -389.000000) "></path>
                <path d="M573.762365,95.9998403 L532.193496,168.000101 C529.335423,172.950488 529.335427,179.049591 532.193507,183.999974 L572.030334,253.000007 C572.582615,253.956594 572.25486,255.179774 571.298273,255.732055 C570.994236,255.907589 570.64935,256 570.298279,256 L533.733189,256 C528.016939,256 522.734907,252.950417 519.876782,248 L482.926382,184.000029 C480.068261,179.049618 480.068257,172.950461 482.926371,168.000047 L521.031486,101.999854 C523.175077,98.2870333 527.136606,95.9998403 531.423798,95.9998403 L573.762365,95.9998403 Z M558.366366,133.332444 L599.93598,205.332261 C602.794108,210.282624 608.076096,213.332173 613.7923,213.332189 L693.466259,213.332413 C694.570828,213.332416 695.466256,214.227849 695.466253,215.332418 C695.466252,215.683486 695.373841,216.028369 695.198309,216.332404 L676.915967,247.998735 C674.057853,252.949193 668.775798,255.998808 663.059518,255.998808 L589.158787,255.998808 C583.442537,255.998808 578.160505,252.949225 575.30238,247.998808 L537.197266,181.998815 C535.053683,178.28602 535.053672,173.711671 537.197237,169.998866 L558.366366,133.332444 Z M722.563752,87.601863 C722.867785,87.7773978 723.120257,88.0298691 723.295792,88.3339019 L741.578469,120.000041 C744.436634,124.950469 744.43665,131.04967 741.578511,136.000114 L704.628145,200.000024 C701.77002,204.950442 696.487988,208.000024 690.771739,208.000024 L614.561511,208.000024 C610.274345,208.000024 606.312836,205.712859 604.169235,202.000075 L582.999748,165.333861 L666.138225,165.333428 C671.854429,165.333398 677.13641,162.283836 679.994526,157.333466 L719.831699,88.3339062 C720.383986,87.3773225 721.607168,87.0495756 722.563752,87.601863 Z M582.230393,47.9996958 C586.517559,47.9996958 590.479067,50.2868607 592.622669,53.999645 L613.792156,90.665859 L530.653679,90.6662926 C524.937475,90.6663224 519.655494,93.7158842 516.797378,98.6662537 L476.960205,167.665814 C476.407917,168.622398 475.184736,168.950145 474.228152,168.397857 C473.924119,168.222322 473.671647,167.969851 473.496111,167.665818 L455.213435,135.99968 C452.355269,131.049251 452.355253,124.95005 455.213393,119.999607 L492.163759,55.9996958 C495.021884,51.0492785 500.303916,47.9996958 506.020165,47.9996958 L582.230393,47.9996958 Z M663.05922,0.000204883322 C668.775469,0.000204883322 674.057501,3.04978766 676.915626,8.00020488 L713.866027,72.0001763 C716.724148,76.9505871 716.724152,83.0497438 713.866037,88.0001583 L675.760923,154.000351 C673.617331,157.713172 669.655803,160.000365 665.36861,160.000365 L623.030043,160.000365 L664.598912,88.0001041 C667.456985,83.0497171 667.456981,76.9506138 664.598902,72.0002305 L624.762074,3.00019811 C624.209793,2.0436107 624.537548,0.820431172 625.494136,0.268150164 C625.798173,0.0926160165 626.143058,0.000204883322 626.494129,0.000204883322 L663.05922,0.000204883322 Z M607.633827,4.26325641e-14 C613.350076,4.00581704e-14 618.632108,3.04958277 621.490233,8 L659.595347,73.9999933 C661.73893,77.7127881 661.738941,82.2871372 659.595376,85.9999425 L638.426247,122.666364 L596.856633,50.6665468 C593.998506,45.7161842 588.716517,42.6666351 583.000313,42.6666191 L503.326355,42.6663952 C502.221785,42.6663921 501.326357,41.7709591 501.32636,40.6663896 C501.326361,40.3153217 501.418772,39.9704389 501.594304,39.6664043 L519.876647,8.000073 C522.73476,3.04961463 528.016816,4.72353413e-14 533.733095,4.26325641e-14 L607.633827,4.26325641e-14 Z" id="Vortex-Copy-4" transform="translate(598.395952, 128.000000) rotate(-360.000000) translate(-598.395952, -128.000000) "></path>
                <path d="M573.762365,617.99984 L532.193496,690.000101 C529.335423,694.950488 529.335427,701.049591 532.193507,705.999974 L572.030334,775.000007 C572.582615,775.956594 572.25486,777.179774 571.298273,777.732055 C570.994236,777.907589 570.64935,778 570.298279,778 L533.733189,778 C528.016939,778 522.734907,774.950417 519.876782,770 L482.926382,706.000029 C480.068261,701.049618 480.068257,694.950461 482.926371,690.000047 L521.031486,623.999854 C523.175077,620.287033 527.136606,617.99984 531.423798,617.99984 L573.762365,617.99984 Z M558.366366,655.332444 L599.93598,727.332261 C602.794108,732.282624 608.076096,735.332173 613.7923,735.332189 L693.466259,735.332413 C694.570828,735.332416 695.466256,736.227849 695.466253,737.332418 C695.466252,737.683486 695.373841,738.028369 695.198309,738.332404 L676.915967,769.998735 C674.057853,774.949193 668.775798,777.998808 663.059518,777.998808 L589.158787,777.998808 C583.442537,777.998808 578.160505,774.949225 575.30238,769.998808 L537.197266,703.998815 C535.053683,700.28602 535.053672,695.711671 537.197237,691.998866 L558.366366,655.332444 Z M722.563752,609.601863 C722.867785,609.777398 723.120257,610.029869 723.295792,610.333902 L741.578469,642.000041 C744.436634,646.950469 744.43665,653.04967 741.578511,658.000114 L704.628145,722.000024 C701.77002,726.950442 696.487988,730.000024 690.771739,730.000024 L614.561511,730.000024 C610.274345,730.000024 606.312836,727.712859 604.169235,724.000075 L582.999748,687.333861 L666.138225,687.333428 C671.854429,687.333398 677.13641,684.283836 679.994526,679.333466 L719.831699,610.333906 C720.383986,609.377322 721.607168,609.049576 722.563752,609.601863 Z M582.230393,569.999696 C586.517559,569.999696 590.479067,572.286861 592.622669,575.999645 L613.792156,612.665859 L530.653679,612.666293 C524.937475,612.666322 519.655494,615.715884 516.797378,620.666254 L476.960205,689.665814 C476.407917,690.622398 475.184736,690.950145 474.228152,690.397857 C473.924119,690.222322 473.671647,689.969851 473.496111,689.665818 L455.213435,657.99968 C452.355269,653.049251 452.355253,646.95005 455.213393,641.999607 L492.163759,577.999696 C495.021884,573.049279 500.303916,569.999696 506.020165,569.999696 L582.230393,569.999696 Z M663.05922,522.000205 C668.775469,522.000205 674.057501,525.049788 676.915626,530.000205 L713.866027,594.000176 C716.724148,598.950587 716.724152,605.049744 713.866037,610.000158 L675.760923,676.000351 C673.617331,679.713172 669.655803,682.000365 665.36861,682.000365 L623.030043,682.000365 L664.598912,610.000104 C667.456985,605.049717 667.456981,598.950614 664.598902,594.000231 L624.762074,525.000198 C624.209793,524.043611 624.537548,522.820431 625.494136,522.26815 C625.798173,522.092616 626.143058,522.000205 626.494129,522.000205 L663.05922,522.000205 Z M607.633827,522 C613.350076,522 618.632108,525.049583 621.490233,530 L659.595347,595.999993 C661.73893,599.712788 661.738941,604.287137 659.595376,607.999942 L638.426247,644.666364 L596.856633,572.666547 C593.998506,567.716184 588.716517,564.666635 583.000313,564.666619 L503.326355,564.666395 C502.221785,564.666392 501.326357,563.770959 501.32636,562.66639 C501.326361,562.315322 501.418772,561.970439 501.594304,561.666404 L519.876647,530.000073 C522.73476,525.049615 528.016816,522 533.733095,522 L607.633827,522 Z" id="Vortex-Copy-5" transform="translate(598.395952, 650.000000) scale(1, -1) rotate(-360.000000) translate(-598.395952, -650.000000) "></path>
                <path d="M121.262365,356.99984 L79.6934962,429.000101 C76.8354234,433.950488 76.8354274,440.049591 79.6935066,444.999974 L119.530334,514.000007 C120.082615,514.956594 119.75486,516.179774 118.798273,516.732055 C118.494236,516.907589 118.14935,517 117.798279,517 L81.2331889,517 C75.5169395,517 70.2349072,513.950417 67.3767824,509 L30.4263817,445.000029 C27.5682607,440.049618 27.5682567,433.950461 30.4263713,429.000047 L68.5314856,362.999854 C70.6750771,359.287033 74.6366056,356.99984 78.9237982,356.99984 L121.262365,356.99984 Z M105.866366,394.332444 L147.43598,466.332261 C150.294108,471.282624 155.576096,474.332173 161.2923,474.332189 L240.966259,474.332413 C242.070828,474.332416 242.966256,475.227849 242.966253,476.332418 C242.966252,476.683486 242.873841,477.028369 242.698309,477.332404 L224.415967,508.998735 C221.557853,513.949193 216.275798,516.998808 210.559518,516.998808 L136.658787,516.998808 C130.942537,516.998808 125.660505,513.949225 122.80238,508.998808 L84.6972663,442.998815 C82.5536832,439.28602 82.553672,434.711671 84.6972369,430.998866 L105.866366,394.332444 Z M270.063752,348.601863 C270.367785,348.777398 270.620257,349.029869 270.795792,349.333902 L289.078469,381.000041 C291.936634,385.950469 291.93665,392.04967 289.078511,397.000114 L252.128145,461.000024 C249.27002,465.950442 243.987988,469.000024 238.271739,469.000024 L162.061511,469.000024 C157.774345,469.000024 153.812836,466.712859 151.669235,463.000075 L130.499748,426.333861 L213.638225,426.333428 C219.354429,426.333398 224.63641,423.283836 227.494526,418.333466 L267.331699,349.333906 C267.883986,348.377322 269.107168,348.049576 270.063752,348.601863 Z M129.730393,308.999696 C134.017559,308.999696 137.979067,311.286861 140.122669,314.999645 L161.292156,351.665859 L78.1536787,351.666293 C72.4374751,351.666322 67.1554938,354.715884 64.2973781,359.666254 L24.4602049,428.665814 C23.9079175,429.622398 22.6847358,429.950145 21.7281521,429.397857 C21.4241189,429.222322 21.1716469,428.969851 20.9961114,428.665818 L2.71343525,396.99968 C-0.144730602,392.049251 -0.144746667,385.95005 2.71339311,380.999607 L39.6637588,316.999696 C42.5218835,312.049279 47.8039158,308.999696 53.5201653,308.999696 L129.730393,308.999696 Z M210.55922,261.000205 C216.275469,261.000205 221.557501,264.049788 224.415626,269.000205 L261.366027,333.000176 C264.224148,337.950587 264.224152,344.049744 261.366037,349.000158 L223.260923,415.000351 C221.117331,418.713172 217.155803,421.000365 212.86861,421.000365 L170.530043,421.000365 L212.098912,349.000104 C214.956985,344.049717 214.956981,337.950614 212.098902,333.000231 L172.262074,264.000198 C171.709793,263.043611 172.037548,261.820431 172.994136,261.26815 C173.298173,261.092616 173.643058,261.000205 173.994129,261.000205 L210.55922,261.000205 Z M155.133827,261 C160.850076,261 166.132108,264.049583 168.990233,269 L207.095347,334.999993 C209.23893,338.712788 209.238941,343.287137 207.095376,346.999942 L185.926247,383.666364 L144.356633,311.666547 C141.498506,306.716184 136.216517,303.666635 130.500313,303.666619 L50.8263547,303.666395 C49.7217852,303.666392 48.8263572,302.770959 48.8263603,301.66639 C48.8263613,301.315322 48.9187719,300.970439 49.0943042,300.666404 L67.3766467,269.000073 C70.2347604,264.049615 75.5168158,261 81.2330953,261 L155.133827,261 Z" id="Vortex-Copy-8" transform="translate(145.895952, 389.000000) rotate(-360.000000) translate(-145.895952, -389.000000) "></path>
                <path d="M121.262365,95.9998403 L79.6934962,168.000101 C76.8354234,172.950488 76.8354274,179.049591 79.6935066,183.999974 L119.530334,253.000007 C120.082615,253.956594 119.75486,255.179774 118.798273,255.732055 C118.494236,255.907589 118.14935,256 117.798279,256 L81.2331889,256 C75.5169395,256 70.2349072,252.950417 67.3767824,248 L30.4263817,184.000029 C27.5682607,179.049618 27.5682567,172.950461 30.4263713,168.000047 L68.5314856,101.999854 C70.6750771,98.2870333 74.6366056,95.9998403 78.9237982,95.9998403 L121.262365,95.9998403 Z M105.866366,133.332444 L147.43598,205.332261 C150.294108,210.282624 155.576096,213.332173 161.2923,213.332189 L240.966259,213.332413 C242.070828,213.332416 242.966256,214.227849 242.966253,215.332418 C242.966252,215.683486 242.873841,216.028369 242.698309,216.332404 L224.415967,247.998735 C221.557853,252.949193 216.275798,255.998808 210.559518,255.998808 L136.658787,255.998808 C130.942537,255.998808 125.660505,252.949225 122.80238,247.998808 L84.6972663,181.998815 C82.5536832,178.28602 82.553672,173.711671 84.6972369,169.998866 L105.866366,133.332444 Z M270.063752,87.601863 C270.367785,87.7773978 270.620257,88.0298691 270.795792,88.3339019 L289.078469,120.000041 C291.936634,124.950469 291.93665,131.04967 289.078511,136.000114 L252.128145,200.000024 C249.27002,204.950442 243.987988,208.000024 238.271739,208.000024 L162.061511,208.000024 C157.774345,208.000024 153.812836,205.712859 151.669235,202.000075 L130.499748,165.333861 L213.638225,165.333428 C219.354429,165.333398 224.63641,162.283836 227.494526,157.333466 L267.331699,88.3339062 C267.883986,87.3773225 269.107168,87.0495756 270.063752,87.601863 Z M129.730393,47.9996958 C134.017559,47.9996958 137.979067,50.2868607 140.122669,53.999645 L161.292156,90.665859 L78.1536787,90.6662926 C72.4374751,90.6663224 67.1554938,93.7158842 64.2973781,98.6662537 L24.4602049,167.665814 C23.9079175,168.622398 22.6847358,168.950145 21.7281521,168.397857 C21.4241189,168.222322 21.1716469,167.969851 20.9961114,167.665818 L2.71343525,135.99968 C-0.144730602,131.049251 -0.144746667,124.95005 2.71339311,119.999607 L39.6637588,55.9996958 C42.5218835,51.0492785 47.8039158,47.9996958 53.5201653,47.9996958 L129.730393,47.9996958 Z M210.55922,0.000204883322 C216.275469,0.000204883322 221.557501,3.04978766 224.415626,8.00020488 L261.366027,72.0001763 C264.224148,76.9505871 264.224152,83.0497438 261.366037,88.0001583 L223.260923,154.000351 C221.117331,157.713172 217.155803,160.000365 212.86861,160.000365 L170.530043,160.000365 L212.098912,88.0001041 C214.956985,83.0497171 214.956981,76.9506138 212.098902,72.0002305 L172.262074,3.00019811 C171.709793,2.0436107 172.037548,0.820431172 172.994136,0.268150164 C173.298173,0.0926160165 173.643058,0.000204883322 173.994129,0.000204883322 L210.55922,0.000204883322 Z M155.133827,4.26325641e-14 C160.850076,4.00581704e-14 166.132108,3.04958277 168.990233,8 L207.095347,73.9999933 C209.23893,77.7127881 209.238941,82.2871372 207.095376,85.9999425 L185.926247,122.666364 L144.356633,50.6665468 C141.498506,45.7161842 136.216517,42.6666351 130.500313,42.6666191 L50.8263547,42.6663952 C49.7217852,42.6663921 48.8263572,41.7709591 48.8263603,40.6663896 C48.8263613,40.3153217 48.9187719,39.9704389 49.0943042,39.6664043 L67.3766467,8.000073 C70.2347604,3.04961463 75.5168158,4.72353413e-14 81.2330953,4.26325641e-14 L155.133827,4.26325641e-14 Z" id="Vortex-Copy-7" transform="translate(145.895952, 128.000000) rotate(-360.000000) translate(-145.895952, -128.000000) "></path>
                <path d="M121.262365,617.99984 L79.6934962,690.000101 C76.8354234,694.950488 76.8354274,701.049591 79.6935066,705.999974 L119.530334,775.000007 C120.082615,775.956594 119.75486,777.179774 118.798273,777.732055 C118.494236,777.907589 118.14935,778 117.798279,778 L81.2331889,778 C75.5169395,778 70.2349072,774.950417 67.3767824,770 L30.4263817,706.000029 C27.5682607,701.049618 27.5682567,694.950461 30.4263713,690.000047 L68.5314856,623.999854 C70.6750771,620.287033 74.6366056,617.99984 78.9237982,617.99984 L121.262365,617.99984 Z M105.866366,655.332444 L147.43598,727.332261 C150.294108,732.282624 155.576096,735.332173 161.2923,735.332189 L240.966259,735.332413 C242.070828,735.332416 242.966256,736.227849 242.966253,737.332418 C242.966252,737.683486 242.873841,738.028369 242.698309,738.332404 L224.415967,769.998735 C221.557853,774.949193 216.275798,777.998808 210.559518,777.998808 L136.658787,777.998808 C130.942537,777.998808 125.660505,774.949225 122.80238,769.998808 L84.6972663,703.998815 C82.5536832,700.28602 82.553672,695.711671 84.6972369,691.998866 L105.866366,655.332444 Z M270.063752,609.601863 C270.367785,609.777398 270.620257,610.029869 270.795792,610.333902 L289.078469,642.000041 C291.936634,646.950469 291.93665,653.04967 289.078511,658.000114 L252.128145,722.000024 C249.27002,726.950442 243.987988,730.000024 238.271739,730.000024 L162.061511,730.000024 C157.774345,730.000024 153.812836,727.712859 151.669235,724.000075 L130.499748,687.333861 L213.638225,687.333428 C219.354429,687.333398 224.63641,684.283836 227.494526,679.333466 L267.331699,610.333906 C267.883986,609.377322 269.107168,609.049576 270.063752,609.601863 Z M129.730393,569.999696 C134.017559,569.999696 137.979067,572.286861 140.122669,575.999645 L161.292156,612.665859 L78.1536787,612.666293 C72.4374751,612.666322 67.1554938,615.715884 64.2973781,620.666254 L24.4602049,689.665814 C23.9079175,690.622398 22.6847358,690.950145 21.7281521,690.397857 C21.4241189,690.222322 21.1716469,689.969851 20.9961114,689.665818 L2.71343525,657.99968 C-0.144730602,653.049251 -0.144746667,646.95005 2.71339311,641.999607 L39.6637588,577.999696 C42.5218835,573.049279 47.8039158,569.999696 53.5201653,569.999696 L129.730393,569.999696 Z M210.55922,522.000205 C216.275469,522.000205 221.557501,525.049788 224.415626,530.000205 L261.366027,594.000176 C264.224148,598.950587 264.224152,605.049744 261.366037,610.000158 L223.260923,676.000351 C221.117331,679.713172 217.155803,682.000365 212.86861,682.000365 L170.530043,682.000365 L212.098912,610.000104 C214.956985,605.049717 214.956981,598.950614 212.098902,594.000231 L172.262074,525.000198 C171.709793,524.043611 172.037548,522.820431 172.994136,522.26815 C173.298173,522.092616 173.643058,522.000205 173.994129,522.000205 L210.55922,522.000205 Z M155.133827,522 C160.850076,522 166.132108,525.049583 168.990233,530 L207.095347,595.999993 C209.23893,599.712788 209.238941,604.287137 207.095376,607.999942 L185.926247,644.666364 L144.356633,572.666547 C141.498506,567.716184 136.216517,564.666635 130.500313,564.666619 L50.8263547,564.666395 C49.7217852,564.666392 48.8263572,563.770959 48.8263603,562.66639 C48.8263613,562.315322 48.9187719,561.970439 49.0943042,561.666404 L67.3766467,530.000073 C70.2347604,525.049615 75.5168158,522 81.2330953,522 L155.133827,522 Z" id="Vortex-Copy-6" transform="translate(145.895952, 650.000000) scale(1, -1) rotate(-360.000000) translate(-145.895952, -650.000000) "></path>
                <path d="M347.262365,487.49984 L305.693496,559.500101 C302.835423,564.450488 302.835427,570.549591 305.693507,575.499974 L345.530334,644.500007 C346.082615,645.456594 345.75486,646.679774 344.798273,647.232055 C344.494236,647.407589 344.14935,647.5 343.798279,647.5 L307.233189,647.5 C301.516939,647.5 296.234907,644.450417 293.376782,639.5 L256.426382,575.500029 C253.568261,570.549618 253.568257,564.450461 256.426371,559.500047 L294.531486,493.499854 C296.675077,489.787033 300.636606,487.49984 304.923798,487.49984 L347.262365,487.49984 Z M331.866366,524.832444 L373.43598,596.832261 C376.294108,601.782624 381.576096,604.832173 387.2923,604.832189 L466.966259,604.832413 C468.070828,604.832416 468.966256,605.727849 468.966253,606.832418 C468.966252,607.183486 468.873841,607.528369 468.698309,607.832404 L450.415967,639.498735 C447.557853,644.449193 442.275798,647.498808 436.559518,647.498808 L362.658787,647.498808 C356.942537,647.498808 351.660505,644.449225 348.80238,639.498808 L310.697266,573.498815 C308.553683,569.78602 308.553672,565.211671 310.697237,561.498866 L331.866366,524.832444 Z M496.063752,479.101863 C496.367785,479.277398 496.620257,479.529869 496.795792,479.833902 L515.078469,511.500041 C517.936634,516.450469 517.93665,522.54967 515.078511,527.500114 L478.128145,591.500024 C475.27002,596.450442 469.987988,599.500024 464.271739,599.500024 L388.061511,599.500024 C383.774345,599.500024 379.812836,597.212859 377.669235,593.500075 L356.499748,556.833861 L439.638225,556.833428 C445.354429,556.833398 450.63641,553.783836 453.494526,548.833466 L493.331699,479.833906 C493.883986,478.877322 495.107168,478.549576 496.063752,479.101863 Z M355.730393,439.499696 C360.017559,439.499696 363.979067,441.786861 366.122669,445.499645 L387.292156,482.165859 L304.153679,482.166293 C298.437475,482.166322 293.155494,485.215884 290.297378,490.166254 L250.460205,559.165814 C249.907917,560.122398 248.684736,560.450145 247.728152,559.897857 C247.424119,559.722322 247.171647,559.469851 246.996111,559.165818 L228.713435,527.49968 C225.855269,522.549251 225.855253,516.45005 228.713393,511.499607 L265.663759,447.499696 C268.521884,442.549279 273.803916,439.499696 279.520165,439.499696 L355.730393,439.499696 Z M436.55922,391.500205 C442.275469,391.500205 447.557501,394.549788 450.415626,399.500205 L487.366027,463.500176 C490.224148,468.450587 490.224152,474.549744 487.366037,479.500158 L449.260923,545.500351 C447.117331,549.213172 443.155803,551.500365 438.86861,551.500365 L396.530043,551.500365 L438.098912,479.500104 C440.956985,474.549717 440.956981,468.450614 438.098902,463.500231 L398.262074,394.500198 C397.709793,393.543611 398.037548,392.320431 398.994136,391.76815 C399.298173,391.592616 399.643058,391.500205 399.994129,391.500205 L436.55922,391.500205 Z M381.133827,391.5 C386.850076,391.5 392.132108,394.549583 394.990233,399.5 L433.095347,465.499993 C435.23893,469.212788 435.238941,473.787137 433.095376,477.499942 L411.926247,514.166364 L370.356633,442.166547 C367.498506,437.216184 362.216517,434.166635 356.500313,434.166619 L276.826355,434.166395 C275.721785,434.166392 274.826357,433.270959 274.82636,432.16639 C274.826361,431.815322 274.918772,431.470439 275.094304,431.166404 L293.376647,399.500073 C296.23476,394.549615 301.516816,391.5 307.233095,391.5 L381.133827,391.5 Z" id="Vortex-Copy-2" transform="translate(371.895952, 519.500000) rotate(-360.000000) translate(-371.895952, -519.500000) "></path>
                <path d="M347.262365,226.49984 L305.693496,298.500101 C302.835423,303.450488 302.835427,309.549591 305.693507,314.499974 L345.530334,383.500007 C346.082615,384.456594 345.75486,385.679774 344.798273,386.232055 C344.494236,386.407589 344.14935,386.5 343.798279,386.5 L307.233189,386.5 C301.516939,386.5 296.234907,383.450417 293.376782,378.5 L256.426382,314.500029 C253.568261,309.549618 253.568257,303.450461 256.426371,298.500047 L294.531486,232.499854 C296.675077,228.787033 300.636606,226.49984 304.923798,226.49984 L347.262365,226.49984 Z M331.866366,263.832444 L373.43598,335.832261 C376.294108,340.782624 381.576096,343.832173 387.2923,343.832189 L466.966259,343.832413 C468.070828,343.832416 468.966256,344.727849 468.966253,345.832418 C468.966252,346.183486 468.873841,346.528369 468.698309,346.832404 L450.415967,378.498735 C447.557853,383.449193 442.275798,386.498808 436.559518,386.498808 L362.658787,386.498808 C356.942537,386.498808 351.660505,383.449225 348.80238,378.498808 L310.697266,312.498815 C308.553683,308.78602 308.553672,304.211671 310.697237,300.498866 L331.866366,263.832444 Z M496.063752,218.101863 C496.367785,218.277398 496.620257,218.529869 496.795792,218.833902 L515.078469,250.500041 C517.936634,255.450469 517.93665,261.54967 515.078511,266.500114 L478.128145,330.500024 C475.27002,335.450442 469.987988,338.500024 464.271739,338.500024 L388.061511,338.500024 C383.774345,338.500024 379.812836,336.212859 377.669235,332.500075 L356.499748,295.833861 L439.638225,295.833428 C445.354429,295.833398 450.63641,292.783836 453.494526,287.833466 L493.331699,218.833906 C493.883986,217.877322 495.107168,217.549576 496.063752,218.101863 Z M355.730393,178.499696 C360.017559,178.499696 363.979067,180.786861 366.122669,184.499645 L387.292156,221.165859 L304.153679,221.166293 C298.437475,221.166322 293.155494,224.215884 290.297378,229.166254 L250.460205,298.165814 C249.907917,299.122398 248.684736,299.450145 247.728152,298.897857 C247.424119,298.722322 247.171647,298.469851 246.996111,298.165818 L228.713435,266.49968 C225.855269,261.549251 225.855253,255.45005 228.713393,250.499607 L265.663759,186.499696 C268.521884,181.549279 273.803916,178.499696 279.520165,178.499696 L355.730393,178.499696 Z M436.55922,130.500205 C442.275469,130.500205 447.557501,133.549788 450.415626,138.500205 L487.366027,202.500176 C490.224148,207.450587 490.224152,213.549744 487.366037,218.500158 L449.260923,284.500351 C447.117331,288.213172 443.155803,290.500365 438.86861,290.500365 L396.530043,290.500365 L438.098912,218.500104 C440.956985,213.549717 440.956981,207.450614 438.098902,202.500231 L398.262074,133.500198 C397.709793,132.543611 398.037548,131.320431 398.994136,130.76815 C399.298173,130.592616 399.643058,130.500205 399.994129,130.500205 L436.55922,130.500205 Z M381.133827,130.5 C386.850076,130.5 392.132108,133.549583 394.990233,138.5 L433.095347,204.499993 C435.23893,208.212788 435.238941,212.787137 433.095376,216.499942 L411.926247,253.166364 L370.356633,181.166547 C367.498506,176.216184 362.216517,173.166635 356.500313,173.166619 L276.826355,173.166395 C275.721785,173.166392 274.826357,172.270959 274.82636,171.16639 C274.826361,170.815322 274.918772,170.470439 275.094304,170.166404 L293.376647,138.500073 C296.23476,133.549615 301.516816,130.5 307.233095,130.5 L381.133827,130.5 Z" id="Vortex-Copy-3" transform="translate(371.895952, 258.500000) scale(-1, 1) rotate(-360.000000) translate(-371.895952, -258.500000) "></path>
            </g>
            <g id="RHS" transform="translate(1692.500000, 0.000000)">
                <path d="M121.262365,356.99984 L79.6934962,429.000101 C76.8354234,433.950488 76.8354274,440.049591 79.6935066,444.999974 L119.530334,514.000007 C120.082615,514.956594 119.75486,516.179774 118.798273,516.732055 C118.494236,516.907589 118.14935,517 117.798279,517 L81.2331889,517 C75.5169395,517 70.2349072,513.950417 67.3767824,509 L30.4263817,445.000029 C27.5682607,440.049618 27.5682567,433.950461 30.4263713,429.000047 L68.5314856,362.999854 C70.6750771,359.287033 74.6366056,356.99984 78.9237982,356.99984 L121.262365,356.99984 Z M105.866366,394.332444 L147.43598,466.332261 C150.294108,471.282624 155.576096,474.332173 161.2923,474.332189 L240.966259,474.332413 C242.070828,474.332416 242.966256,475.227849 242.966253,476.332418 C242.966252,476.683486 242.873841,477.028369 242.698309,477.332404 L224.415967,508.998735 C221.557853,513.949193 216.275798,516.998808 210.559518,516.998808 L136.658787,516.998808 C130.942537,516.998808 125.660505,513.949225 122.80238,508.998808 L84.6972663,442.998815 C82.5536832,439.28602 82.553672,434.711671 84.6972369,430.998866 L105.866366,394.332444 Z M270.063752,348.601863 C270.367785,348.777398 270.620257,349.029869 270.795792,349.333902 L289.078469,381.000041 C291.936634,385.950469 291.93665,392.04967 289.078511,397.000114 L252.128145,461.000024 C249.27002,465.950442 243.987988,469.000024 238.271739,469.000024 L162.061511,469.000024 C157.774345,469.000024 153.812836,466.712859 151.669235,463.000075 L130.499748,426.333861 L213.638225,426.333428 C219.354429,426.333398 224.63641,423.283836 227.494526,418.333466 L267.331699,349.333906 C267.883986,348.377322 269.107168,348.049576 270.063752,348.601863 Z M129.730393,308.999696 C134.017559,308.999696 137.979067,311.286861 140.122669,314.999645 L161.292156,351.665859 L78.1536787,351.666293 C72.4374751,351.666322 67.1554938,354.715884 64.2973781,359.666254 L24.4602049,428.665814 C23.9079175,429.622398 22.6847358,429.950145 21.7281521,429.397857 C21.4241189,429.222322 21.1716469,428.969851 20.9961114,428.665818 L2.71343525,396.99968 C-0.144730602,392.049251 -0.144746667,385.95005 2.71339311,380.999607 L39.6637588,316.999696 C42.5218835,312.049279 47.8039158,308.999696 53.5201653,308.999696 L129.730393,308.999696 Z M210.55922,261.000205 C216.275469,261.000205 221.557501,264.049788 224.415626,269.000205 L261.366027,333.000176 C264.224148,337.950587 264.224152,344.049744 261.366037,349.000158 L223.260923,415.000351 C221.117331,418.713172 217.155803,421.000365 212.86861,421.000365 L170.530043,421.000365 L212.098912,349.000104 C214.956985,344.049717 214.956981,337.950614 212.098902,333.000231 L172.262074,264.000198 C171.709793,263.043611 172.037548,261.820431 172.994136,261.26815 C173.298173,261.092616 173.643058,261.000205 173.994129,261.000205 L210.55922,261.000205 Z M155.133827,261 C160.850076,261 166.132108,264.049583 168.990233,269 L207.095347,334.999993 C209.23893,338.712788 209.238941,343.287137 207.095376,346.999942 L185.926247,383.666364 L144.356633,311.666547 C141.498506,306.716184 136.216517,303.666635 130.500313,303.666619 L50.8263547,303.666395 C49.7217852,303.666392 48.8263572,302.770959 48.8263603,301.66639 C48.8263613,301.315322 48.9187719,300.970439 49.0943042,300.666404 L67.3766467,269.000073 C70.2347604,264.049615 75.5168158,261 81.2330953,261 L155.133827,261 Z" id="Vortex-Copy-13" transform="translate(145.895952, 389.000000) scale(-1, 1) rotate(-360.000000) translate(-145.895952, -389.000000) "></path>
                <path d="M121.262365,95.9998403 L79.6934962,168.000101 C76.8354234,172.950488 76.8354274,179.049591 79.6935066,183.999974 L119.530334,253.000007 C120.082615,253.956594 119.75486,255.179774 118.798273,255.732055 C118.494236,255.907589 118.14935,256 117.798279,256 L81.2331889,256 C75.5169395,256 70.2349072,252.950417 67.3767824,248 L30.4263817,184.000029 C27.5682607,179.049618 27.5682567,172.950461 30.4263713,168.000047 L68.5314856,101.999854 C70.6750771,98.2870333 74.6366056,95.9998403 78.9237982,95.9998403 L121.262365,95.9998403 Z M105.866366,133.332444 L147.43598,205.332261 C150.294108,210.282624 155.576096,213.332173 161.2923,213.332189 L240.966259,213.332413 C242.070828,213.332416 242.966256,214.227849 242.966253,215.332418 C242.966252,215.683486 242.873841,216.028369 242.698309,216.332404 L224.415967,247.998735 C221.557853,252.949193 216.275798,255.998808 210.559518,255.998808 L136.658787,255.998808 C130.942537,255.998808 125.660505,252.949225 122.80238,247.998808 L84.6972663,181.998815 C82.5536832,178.28602 82.553672,173.711671 84.6972369,169.998866 L105.866366,133.332444 Z M270.063752,87.601863 C270.367785,87.7773978 270.620257,88.0298691 270.795792,88.3339019 L289.078469,120.000041 C291.936634,124.950469 291.93665,131.04967 289.078511,136.000114 L252.128145,200.000024 C249.27002,204.950442 243.987988,208.000024 238.271739,208.000024 L162.061511,208.000024 C157.774345,208.000024 153.812836,205.712859 151.669235,202.000075 L130.499748,165.333861 L213.638225,165.333428 C219.354429,165.333398 224.63641,162.283836 227.494526,157.333466 L267.331699,88.3339062 C267.883986,87.3773225 269.107168,87.0495756 270.063752,87.601863 Z M129.730393,47.9996958 C134.017559,47.9996958 137.979067,50.2868607 140.122669,53.999645 L161.292156,90.665859 L78.1536787,90.6662926 C72.4374751,90.6663224 67.1554938,93.7158842 64.2973781,98.6662537 L24.4602049,167.665814 C23.9079175,168.622398 22.6847358,168.950145 21.7281521,168.397857 C21.4241189,168.222322 21.1716469,167.969851 20.9961114,167.665818 L2.71343525,135.99968 C-0.144730602,131.049251 -0.144746667,124.95005 2.71339311,119.999607 L39.6637588,55.9996958 C42.5218835,51.0492785 47.8039158,47.9996958 53.5201653,47.9996958 L129.730393,47.9996958 Z M210.55922,0.000204883322 C216.275469,0.000204883322 221.557501,3.04978766 224.415626,8.00020488 L261.366027,72.0001763 C264.224148,76.9505871 264.224152,83.0497438 261.366037,88.0001583 L223.260923,154.000351 C221.117331,157.713172 217.155803,160.000365 212.86861,160.000365 L170.530043,160.000365 L212.098912,88.0001041 C214.956985,83.0497171 214.956981,76.9506138 212.098902,72.0002305 L172.262074,3.00019811 C171.709793,2.0436107 172.037548,0.820431172 172.994136,0.268150164 C173.298173,0.0926160165 173.643058,0.000204883322 173.994129,0.000204883322 L210.55922,0.000204883322 Z M155.133827,4.26325641e-14 C160.850076,4.00581704e-14 166.132108,3.04958277 168.990233,8 L207.095347,73.9999933 C209.23893,77.7127881 209.238941,82.2871372 207.095376,85.9999425 L185.926247,122.666364 L144.356633,50.6665468 C141.498506,45.7161842 136.216517,42.6666351 130.500313,42.6666191 L50.8263547,42.6663952 C49.7217852,42.6663921 48.8263572,41.7709591 48.8263603,40.6663896 C48.8263613,40.3153217 48.9187719,39.9704389 49.0943042,39.6664043 L67.3766467,8.000073 C70.2347604,3.04961463 75.5168158,4.72353413e-14 81.2330953,4.26325641e-14 L155.133827,4.26325641e-14 Z" id="Vortex-Copy-12" transform="translate(145.895952, 128.000000) scale(-1, 1) rotate(-360.000000) translate(-145.895952, -128.000000) "></path>
                <path d="M121.262365,617.99984 L79.6934962,690.000101 C76.8354234,694.950488 76.8354274,701.049591 79.6935066,705.999974 L119.530334,775.000007 C120.082615,775.956594 119.75486,777.179774 118.798273,777.732055 C118.494236,777.907589 118.14935,778 117.798279,778 L81.2331889,778 C75.5169395,778 70.2349072,774.950417 67.3767824,770 L30.4263817,706.000029 C27.5682607,701.049618 27.5682567,694.950461 30.4263713,690.000047 L68.5314856,623.999854 C70.6750771,620.287033 74.6366056,617.99984 78.9237982,617.99984 L121.262365,617.99984 Z M105.866366,655.332444 L147.43598,727.332261 C150.294108,732.282624 155.576096,735.332173 161.2923,735.332189 L240.966259,735.332413 C242.070828,735.332416 242.966256,736.227849 242.966253,737.332418 C242.966252,737.683486 242.873841,738.028369 242.698309,738.332404 L224.415967,769.998735 C221.557853,774.949193 216.275798,777.998808 210.559518,777.998808 L136.658787,777.998808 C130.942537,777.998808 125.660505,774.949225 122.80238,769.998808 L84.6972663,703.998815 C82.5536832,700.28602 82.553672,695.711671 84.6972369,691.998866 L105.866366,655.332444 Z M270.063752,609.601863 C270.367785,609.777398 270.620257,610.029869 270.795792,610.333902 L289.078469,642.000041 C291.936634,646.950469 291.93665,653.04967 289.078511,658.000114 L252.128145,722.000024 C249.27002,726.950442 243.987988,730.000024 238.271739,730.000024 L162.061511,730.000024 C157.774345,730.000024 153.812836,727.712859 151.669235,724.000075 L130.499748,687.333861 L213.638225,687.333428 C219.354429,687.333398 224.63641,684.283836 227.494526,679.333466 L267.331699,610.333906 C267.883986,609.377322 269.107168,609.049576 270.063752,609.601863 Z M129.730393,569.999696 C134.017559,569.999696 137.979067,572.286861 140.122669,575.999645 L161.292156,612.665859 L78.1536787,612.666293 C72.4374751,612.666322 67.1554938,615.715884 64.2973781,620.666254 L24.4602049,689.665814 C23.9079175,690.622398 22.6847358,690.950145 21.7281521,690.397857 C21.4241189,690.222322 21.1716469,689.969851 20.9961114,689.665818 L2.71343525,657.99968 C-0.144730602,653.049251 -0.144746667,646.95005 2.71339311,641.999607 L39.6637588,577.999696 C42.5218835,573.049279 47.8039158,569.999696 53.5201653,569.999696 L129.730393,569.999696 Z M210.55922,522.000205 C216.275469,522.000205 221.557501,525.049788 224.415626,530.000205 L261.366027,594.000176 C264.224148,598.950587 264.224152,605.049744 261.366037,610.000158 L223.260923,676.000351 C221.117331,679.713172 217.155803,682.000365 212.86861,682.000365 L170.530043,682.000365 L212.098912,610.000104 C214.956985,605.049717 214.956981,598.950614 212.098902,594.000231 L172.262074,525.000198 C171.709793,524.043611 172.037548,522.820431 172.994136,522.26815 C173.298173,522.092616 173.643058,522.000205 173.994129,522.000205 L210.55922,522.000205 Z M155.133827,522 C160.850076,522 166.132108,525.049583 168.990233,530 L207.095347,595.999993 C209.23893,599.712788 209.238941,604.287137 207.095376,607.999942 L185.926247,644.666364 L144.356633,572.666547 C141.498506,567.716184 136.216517,564.666635 130.500313,564.666619 L50.8263547,564.666395 C49.7217852,564.666392 48.8263572,563.770959 48.8263603,562.66639 C48.8263613,562.315322 48.9187719,561.970439 49.0943042,561.666404 L67.3766467,530.000073 C70.2347604,525.049615 75.5168158,522 81.2330953,522 L155.133827,522 Z" id="Vortex-Copy-11" transform="translate(145.895952, 650.000000) rotate(-360.000000) translate(-145.895952, -650.000000) "></path>
                <path d="M347.262365,487.49984 L305.693496,559.500101 C302.835423,564.450488 302.835427,570.549591 305.693507,575.499974 L345.530334,644.500007 C346.082615,645.456594 345.75486,646.679774 344.798273,647.232055 C344.494236,647.407589 344.14935,647.5 343.798279,647.5 L307.233189,647.5 C301.516939,647.5 296.234907,644.450417 293.376782,639.5 L256.426382,575.500029 C253.568261,570.549618 253.568257,564.450461 256.426371,559.500047 L294.531486,493.499854 C296.675077,489.787033 300.636606,487.49984 304.923798,487.49984 L347.262365,487.49984 Z M331.866366,524.832444 L373.43598,596.832261 C376.294108,601.782624 381.576096,604.832173 387.2923,604.832189 L466.966259,604.832413 C468.070828,604.832416 468.966256,605.727849 468.966253,606.832418 C468.966252,607.183486 468.873841,607.528369 468.698309,607.832404 L450.415967,639.498735 C447.557853,644.449193 442.275798,647.498808 436.559518,647.498808 L362.658787,647.498808 C356.942537,647.498808 351.660505,644.449225 348.80238,639.498808 L310.697266,573.498815 C308.553683,569.78602 308.553672,565.211671 310.697237,561.498866 L331.866366,524.832444 Z M496.063752,479.101863 C496.367785,479.277398 496.620257,479.529869 496.795792,479.833902 L515.078469,511.500041 C517.936634,516.450469 517.93665,522.54967 515.078511,527.500114 L478.128145,591.500024 C475.27002,596.450442 469.987988,599.500024 464.271739,599.500024 L388.061511,599.500024 C383.774345,599.500024 379.812836,597.212859 377.669235,593.500075 L356.499748,556.833861 L439.638225,556.833428 C445.354429,556.833398 450.63641,553.783836 453.494526,548.833466 L493.331699,479.833906 C493.883986,478.877322 495.107168,478.549576 496.063752,479.101863 Z M355.730393,439.499696 C360.017559,439.499696 363.979067,441.786861 366.122669,445.499645 L387.292156,482.165859 L304.153679,482.166293 C298.437475,482.166322 293.155494,485.215884 290.297378,490.166254 L250.460205,559.165814 C249.907917,560.122398 248.684736,560.450145 247.728152,559.897857 C247.424119,559.722322 247.171647,559.469851 246.996111,559.165818 L228.713435,527.49968 C225.855269,522.549251 225.855253,516.45005 228.713393,511.499607 L265.663759,447.499696 C268.521884,442.549279 273.803916,439.499696 279.520165,439.499696 L355.730393,439.499696 Z M436.55922,391.500205 C442.275469,391.500205 447.557501,394.549788 450.415626,399.500205 L487.366027,463.500176 C490.224148,468.450587 490.224152,474.549744 487.366037,479.500158 L449.260923,545.500351 C447.117331,549.213172 443.155803,551.500365 438.86861,551.500365 L396.530043,551.500365 L438.098912,479.500104 C440.956985,474.549717 440.956981,468.450614 438.098902,463.500231 L398.262074,394.500198 C397.709793,393.543611 398.037548,392.320431 398.994136,391.76815 C399.298173,391.592616 399.643058,391.500205 399.994129,391.500205 L436.55922,391.500205 Z M381.133827,391.5 C386.850076,391.5 392.132108,394.549583 394.990233,399.5 L433.095347,465.499993 C435.23893,469.212788 435.238941,473.787137 433.095376,477.499942 L411.926247,514.166364 L370.356633,442.166547 C367.498506,437.216184 362.216517,434.166635 356.500313,434.166619 L276.826355,434.166395 C275.721785,434.166392 274.826357,433.270959 274.82636,432.16639 C274.826361,431.815322 274.918772,431.470439 275.094304,431.166404 L293.376647,399.500073 C296.23476,394.549615 301.516816,391.5 307.233095,391.5 L381.133827,391.5 Z" id="Vortex-Copy-10" transform="translate(371.895952, 519.500000) scale(-1, 1) rotate(-360.000000) translate(-371.895952, -519.500000) "></path>
                <path d="M347.262365,226.49984 L305.693496,298.500101 C302.835423,303.450488 302.835427,309.549591 305.693507,314.499974 L345.530334,383.500007 C346.082615,384.456594 345.75486,385.679774 344.798273,386.232055 C344.494236,386.407589 344.14935,386.5 343.798279,386.5 L307.233189,386.5 C301.516939,386.5 296.234907,383.450417 293.376782,378.5 L256.426382,314.500029 C253.568261,309.549618 253.568257,303.450461 256.426371,298.500047 L294.531486,232.499854 C296.675077,228.787033 300.636606,226.49984 304.923798,226.49984 L347.262365,226.49984 Z M331.866366,263.832444 L373.43598,335.832261 C376.294108,340.782624 381.576096,343.832173 387.2923,343.832189 L466.966259,343.832413 C468.070828,343.832416 468.966256,344.727849 468.966253,345.832418 C468.966252,346.183486 468.873841,346.528369 468.698309,346.832404 L450.415967,378.498735 C447.557853,383.449193 442.275798,386.498808 436.559518,386.498808 L362.658787,386.498808 C356.942537,386.498808 351.660505,383.449225 348.80238,378.498808 L310.697266,312.498815 C308.553683,308.78602 308.553672,304.211671 310.697237,300.498866 L331.866366,263.832444 Z M496.063752,218.101863 C496.367785,218.277398 496.620257,218.529869 496.795792,218.833902 L515.078469,250.500041 C517.936634,255.450469 517.93665,261.54967 515.078511,266.500114 L478.128145,330.500024 C475.27002,335.450442 469.987988,338.500024 464.271739,338.500024 L388.061511,338.500024 C383.774345,338.500024 379.812836,336.212859 377.669235,332.500075 L356.499748,295.833861 L439.638225,295.833428 C445.354429,295.833398 450.63641,292.783836 453.494526,287.833466 L493.331699,218.833906 C493.883986,217.877322 495.107168,217.549576 496.063752,218.101863 Z M355.730393,178.499696 C360.017559,178.499696 363.979067,180.786861 366.122669,184.499645 L387.292156,221.165859 L304.153679,221.166293 C298.437475,221.166322 293.155494,224.215884 290.297378,229.166254 L250.460205,298.165814 C249.907917,299.122398 248.684736,299.450145 247.728152,298.897857 C247.424119,298.722322 247.171647,298.469851 246.996111,298.165818 L228.713435,266.49968 C225.855269,261.549251 225.855253,255.45005 228.713393,250.499607 L265.663759,186.499696 C268.521884,181.549279 273.803916,178.499696 279.520165,178.499696 L355.730393,178.499696 Z M436.55922,130.500205 C442.275469,130.500205 447.557501,133.549788 450.415626,138.500205 L487.366027,202.500176 C490.224148,207.450587 490.224152,213.549744 487.366037,218.500158 L449.260923,284.500351 C447.117331,288.213172 443.155803,290.500365 438.86861,290.500365 L396.530043,290.500365 L438.098912,218.500104 C440.956985,213.549717 440.956981,207.450614 438.098902,202.500231 L398.262074,133.500198 C397.709793,132.543611 398.037548,131.320431 398.994136,130.76815 C399.298173,130.592616 399.643058,130.500205 399.994129,130.500205 L436.55922,130.500205 Z M381.133827,130.5 C386.850076,130.5 392.132108,133.549583 394.990233,138.5 L433.095347,204.499993 C435.23893,208.212788 435.238941,212.787137 433.095376,216.499942 L411.926247,253.166364 L370.356633,181.166547 C367.498506,176.216184 362.216517,173.166635 356.500313,173.166619 L276.826355,173.166395 C275.721785,173.166392 274.826357,172.270959 274.82636,171.16639 C274.826361,170.815322 274.918772,170.470439 275.094304,170.166404 L293.376647,138.500073 C296.23476,133.549615 301.516816,130.5 307.233095,130.5 L381.133827,130.5 Z" id="Vortex-Copy-9" transform="translate(371.895952, 258.500000) rotate(-360.000000) translate(-371.895952, -258.500000) "></path>
                <path d="M573.762365,356.99984 L532.193496,429.000101 C529.335423,433.950488 529.335427,440.049591 532.193507,444.999974 L572.030334,514.000007 C572.582615,514.956594 572.25486,516.179774 571.298273,516.732055 C570.994236,516.907589 570.64935,517 570.298279,517 L533.733189,517 C528.016939,517 522.734907,513.950417 519.876782,509 L482.926382,445.000029 C480.068261,440.049618 480.068257,433.950461 482.926371,429.000047 L521.031486,362.999854 C523.175077,359.287033 527.136606,356.99984 531.423798,356.99984 L573.762365,356.99984 Z M558.366366,394.332444 L599.93598,466.332261 C602.794108,471.282624 608.076096,474.332173 613.7923,474.332189 L693.466259,474.332413 C694.570828,474.332416 695.466256,475.227849 695.466253,476.332418 C695.466252,476.683486 695.373841,477.028369 695.198309,477.332404 L676.915967,508.998735 C674.057853,513.949193 668.775798,516.998808 663.059518,516.998808 L589.158787,516.998808 C583.442537,516.998808 578.160505,513.949225 575.30238,508.998808 L537.197266,442.998815 C535.053683,439.28602 535.053672,434.711671 537.197237,430.998866 L558.366366,394.332444 Z M722.563752,348.601863 C722.867785,348.777398 723.120257,349.029869 723.295792,349.333902 L741.578469,381.000041 C744.436634,385.950469 744.43665,392.04967 741.578511,397.000114 L704.628145,461.000024 C701.77002,465.950442 696.487988,469.000024 690.771739,469.000024 L614.561511,469.000024 C610.274345,469.000024 606.312836,466.712859 604.169235,463.000075 L582.999748,426.333861 L666.138225,426.333428 C671.854429,426.333398 677.13641,423.283836 679.994526,418.333466 L719.831699,349.333906 C720.383986,348.377322 721.607168,348.049576 722.563752,348.601863 Z M582.230393,308.999696 C586.517559,308.999696 590.479067,311.286861 592.622669,314.999645 L613.792156,351.665859 L530.653679,351.666293 C524.937475,351.666322 519.655494,354.715884 516.797378,359.666254 L476.960205,428.665814 C476.407917,429.622398 475.184736,429.950145 474.228152,429.397857 C473.924119,429.222322 473.671647,428.969851 473.496111,428.665818 L455.213435,396.99968 C452.355269,392.049251 452.355253,385.95005 455.213393,380.999607 L492.163759,316.999696 C495.021884,312.049279 500.303916,308.999696 506.020165,308.999696 L582.230393,308.999696 Z M663.05922,261.000205 C668.775469,261.000205 674.057501,264.049788 676.915626,269.000205 L713.866027,333.000176 C716.724148,337.950587 716.724152,344.049744 713.866037,349.000158 L675.760923,415.000351 C673.617331,418.713172 669.655803,421.000365 665.36861,421.000365 L623.030043,421.000365 L664.598912,349.000104 C667.456985,344.049717 667.456981,337.950614 664.598902,333.000231 L624.762074,264.000198 C624.209793,263.043611 624.537548,261.820431 625.494136,261.26815 C625.798173,261.092616 626.143058,261.000205 626.494129,261.000205 L663.05922,261.000205 Z M607.633827,261 C613.350076,261 618.632108,264.049583 621.490233,269 L659.595347,334.999993 C661.73893,338.712788 661.738941,343.287137 659.595376,346.999942 L638.426247,383.666364 L596.856633,311.666547 C593.998506,306.716184 588.716517,303.666635 583.000313,303.666619 L503.326355,303.666395 C502.221785,303.666392 501.326357,302.770959 501.32636,301.66639 C501.326361,301.315322 501.418772,300.970439 501.594304,300.666404 L519.876647,269.000073 C522.73476,264.049615 528.016816,261 533.733095,261 L607.633827,261 Z" id="Vortex-Copy-16" transform="translate(598.395952, 389.000000) scale(-1, 1) rotate(-360.000000) translate(-598.395952, -389.000000) "></path>
                <path d="M573.762365,95.9998403 L532.193496,168.000101 C529.335423,172.950488 529.335427,179.049591 532.193507,183.999974 L572.030334,253.000007 C572.582615,253.956594 572.25486,255.179774 571.298273,255.732055 C570.994236,255.907589 570.64935,256 570.298279,256 L533.733189,256 C528.016939,256 522.734907,252.950417 519.876782,248 L482.926382,184.000029 C480.068261,179.049618 480.068257,172.950461 482.926371,168.000047 L521.031486,101.999854 C523.175077,98.2870333 527.136606,95.9998403 531.423798,95.9998403 L573.762365,95.9998403 Z M558.366366,133.332444 L599.93598,205.332261 C602.794108,210.282624 608.076096,213.332173 613.7923,213.332189 L693.466259,213.332413 C694.570828,213.332416 695.466256,214.227849 695.466253,215.332418 C695.466252,215.683486 695.373841,216.028369 695.198309,216.332404 L676.915967,247.998735 C674.057853,252.949193 668.775798,255.998808 663.059518,255.998808 L589.158787,255.998808 C583.442537,255.998808 578.160505,252.949225 575.30238,247.998808 L537.197266,181.998815 C535.053683,178.28602 535.053672,173.711671 537.197237,169.998866 L558.366366,133.332444 Z M722.563752,87.601863 C722.867785,87.7773978 723.120257,88.0298691 723.295792,88.3339019 L741.578469,120.000041 C744.436634,124.950469 744.43665,131.04967 741.578511,136.000114 L704.628145,200.000024 C701.77002,204.950442 696.487988,208.000024 690.771739,208.000024 L614.561511,208.000024 C610.274345,208.000024 606.312836,205.712859 604.169235,202.000075 L582.999748,165.333861 L666.138225,165.333428 C671.854429,165.333398 677.13641,162.283836 679.994526,157.333466 L719.831699,88.3339062 C720.383986,87.3773225 721.607168,87.0495756 722.563752,87.601863 Z M582.230393,47.9996958 C586.517559,47.9996958 590.479067,50.2868607 592.622669,53.999645 L613.792156,90.665859 L530.653679,90.6662926 C524.937475,90.6663224 519.655494,93.7158842 516.797378,98.6662537 L476.960205,167.665814 C476.407917,168.622398 475.184736,168.950145 474.228152,168.397857 C473.924119,168.222322 473.671647,167.969851 473.496111,167.665818 L455.213435,135.99968 C452.355269,131.049251 452.355253,124.95005 455.213393,119.999607 L492.163759,55.9996958 C495.021884,51.0492785 500.303916,47.9996958 506.020165,47.9996958 L582.230393,47.9996958 Z M663.05922,0.000204883322 C668.775469,0.000204883322 674.057501,3.04978766 676.915626,8.00020488 L713.866027,72.0001763 C716.724148,76.9505871 716.724152,83.0497438 713.866037,88.0001583 L675.760923,154.000351 C673.617331,157.713172 669.655803,160.000365 665.36861,160.000365 L623.030043,160.000365 L664.598912,88.0001041 C667.456985,83.0497171 667.456981,76.9506138 664.598902,72.0002305 L624.762074,3.00019811 C624.209793,2.0436107 624.537548,0.820431172 625.494136,0.268150164 C625.798173,0.0926160165 626.143058,0.000204883322 626.494129,0.000204883322 L663.05922,0.000204883322 Z M607.633827,4.26325641e-14 C613.350076,4.00581704e-14 618.632108,3.04958277 621.490233,8 L659.595347,73.9999933 C661.73893,77.7127881 661.738941,82.2871372 659.595376,85.9999425 L638.426247,122.666364 L596.856633,50.6665468 C593.998506,45.7161842 588.716517,42.6666351 583.000313,42.6666191 L503.326355,42.6663952 C502.221785,42.6663921 501.326357,41.7709591 501.32636,40.6663896 C501.326361,40.3153217 501.418772,39.9704389 501.594304,39.6664043 L519.876647,8.000073 C522.73476,3.04961463 528.016816,4.72353413e-14 533.733095,4.26325641e-14 L607.633827,4.26325641e-14 Z" id="Vortex-Copy-15" transform="translate(598.395952, 128.000000) scale(-1, 1) rotate(-360.000000) translate(-598.395952, -128.000000) "></path>
                <path d="M573.762365,617.99984 L532.193496,690.000101 C529.335423,694.950488 529.335427,701.049591 532.193507,705.999974 L572.030334,775.000007 C572.582615,775.956594 572.25486,777.179774 571.298273,777.732055 C570.994236,777.907589 570.64935,778 570.298279,778 L533.733189,778 C528.016939,778 522.734907,774.950417 519.876782,770 L482.926382,706.000029 C480.068261,701.049618 480.068257,694.950461 482.926371,690.000047 L521.031486,623.999854 C523.175077,620.287033 527.136606,617.99984 531.423798,617.99984 L573.762365,617.99984 Z M558.366366,655.332444 L599.93598,727.332261 C602.794108,732.282624 608.076096,735.332173 613.7923,735.332189 L693.466259,735.332413 C694.570828,735.332416 695.466256,736.227849 695.466253,737.332418 C695.466252,737.683486 695.373841,738.028369 695.198309,738.332404 L676.915967,769.998735 C674.057853,774.949193 668.775798,777.998808 663.059518,777.998808 L589.158787,777.998808 C583.442537,777.998808 578.160505,774.949225 575.30238,769.998808 L537.197266,703.998815 C535.053683,700.28602 535.053672,695.711671 537.197237,691.998866 L558.366366,655.332444 Z M722.563752,609.601863 C722.867785,609.777398 723.120257,610.029869 723.295792,610.333902 L741.578469,642.000041 C744.436634,646.950469 744.43665,653.04967 741.578511,658.000114 L704.628145,722.000024 C701.77002,726.950442 696.487988,730.000024 690.771739,730.000024 L614.561511,730.000024 C610.274345,730.000024 606.312836,727.712859 604.169235,724.000075 L582.999748,687.333861 L666.138225,687.333428 C671.854429,687.333398 677.13641,684.283836 679.994526,679.333466 L719.831699,610.333906 C720.383986,609.377322 721.607168,609.049576 722.563752,609.601863 Z M582.230393,569.999696 C586.517559,569.999696 590.479067,572.286861 592.622669,575.999645 L613.792156,612.665859 L530.653679,612.666293 C524.937475,612.666322 519.655494,615.715884 516.797378,620.666254 L476.960205,689.665814 C476.407917,690.622398 475.184736,690.950145 474.228152,690.397857 C473.924119,690.222322 473.671647,689.969851 473.496111,689.665818 L455.213435,657.99968 C452.355269,653.049251 452.355253,646.95005 455.213393,641.999607 L492.163759,577.999696 C495.021884,573.049279 500.303916,569.999696 506.020165,569.999696 L582.230393,569.999696 Z M663.05922,522.000205 C668.775469,522.000205 674.057501,525.049788 676.915626,530.000205 L713.866027,594.000176 C716.724148,598.950587 716.724152,605.049744 713.866037,610.000158 L675.760923,676.000351 C673.617331,679.713172 669.655803,682.000365 665.36861,682.000365 L623.030043,682.000365 L664.598912,610.000104 C667.456985,605.049717 667.456981,598.950614 664.598902,594.000231 L624.762074,525.000198 C624.209793,524.043611 624.537548,522.820431 625.494136,522.26815 C625.798173,522.092616 626.143058,522.000205 626.494129,522.000205 L663.05922,522.000205 Z M607.633827,522 C613.350076,522 618.632108,525.049583 621.490233,530 L659.595347,595.999993 C661.73893,599.712788 661.738941,604.287137 659.595376,607.999942 L638.426247,644.666364 L596.856633,572.666547 C593.998506,567.716184 588.716517,564.666635 583.000313,564.666619 L503.326355,564.666395 C502.221785,564.666392 501.326357,563.770959 501.32636,562.66639 C501.326361,562.315322 501.418772,561.970439 501.594304,561.666404 L519.876647,530.000073 C522.73476,525.049615 528.016816,522 533.733095,522 L607.633827,522 Z" id="Vortex-Copy-14" transform="translate(598.395952, 650.000000) rotate(-360.000000) translate(-598.395952, -650.000000) "></path>
            </g>
        </g>
    </g>
</svg>